<svg xmlns="http://www.w3.org/2000/svg" width="560" height="585"><path fill-rule="evenodd" d="M319.625 9.75c8.544.203 17.072-.392 24.75 1.125l5.375.5c8.364 1.838 16.49 2.842 24.25 5.25 22.707 7.048 43.347 15.335 61.75 26.625L446.125 49c6.496 3.98 12.86 8.134 19.125 12.375l13.375 10.25L482.25 75c18.723 14.318 33.775 34.48 46.25 55.125 8.512 14.086 15.686 29.076 22 45.375 1.06 2.74 1.356 5.347 2.25 8.25 1.118 3.632 1.63 7.85 2.5 12l.25 4.875c.452 2.545.37 6.413-.125 8.875C552.05 226.063 545.03 237.36 537 249c-3.15 4.568-6.934 8.728-10.25 13.25-.77 1.05-2.25 2.295-2.75 3.5l-1.75 9.75c-2.04 8.47-3.476 17.067-6 25.25-7.005 22.71-13.44 44.692-22.5 65.25-4.557 10.34-8.895 20.81-14 30.75l-11 20.875-3.125 5-4.875 8.625c-5.63 8.306-11.017 16.7-16.875 24.75-7.317 10.055-15.773 19.132-23.5 28.75-3.476 4.326-8.21 7.772-11.625 12.125-1.735 2.213-3.9 4.024-5.875 6-2.14 2.142-4.11 4.488-6.5 6.375-.956.754-1.76 1.886-2.625 2.75a131.942 131.942 0 0 1-12.25 10.75c-2.664 2.062-5.055 4.7-7.75 6.75-6.092 4.638-12.18 9.366-18.5 13.75-16.634 11.536-35.264 20.455-56.5 27.375-6.394 2.084-13.465 3.484-20.5 5.125-2.612.61-6.232.51-9 .875-4.37.574-9.9 1.207-14.875.5-4.447-.632-9.23-.068-13.875-1l-10-1.625c-11.155-2.982-21.853-5.57-31.625-9.875-21.593-9.51-38.855-23.206-56.5-36.625-3.36-2.555-6.417-5.7-9.75-8.25-3.6-2.754-7.033-5.59-10.5-8.5-2.07-1.737-3.875-3.964-6-5.625-7.03-5.497-13.358-12.217-19.25-18.875-8.544-9.654-17.132-19.408-24.125-30.625-5.2-8.34-9.674-16.99-14.375-25.875-1.824-3.448-4.156-7.06-5.75-10.625-2.487-5.562-5.135-11.093-8.125-16.25l-2.75-5.625c-1.096-1.784-3.71-3.115-5.375-4.375-3.482-2.633-6.645-5.71-10.125-8.375l-4.125-4.125C14.008 374.302 8.57 362.88 5.625 351c-2.04-8.24-.006-20.818 2.125-27.5 4.875-15.285 9.46-29.76 15.375-44 1.618-3.896 2.5-7.667 4-11.625C30.818 258.133 34.19 248.19 38 238.25c10.685-27.87 20.69-56.56 31.5-84.375 4.848-12.474 8.824-25.11 13.875-37.25 2.77-6.66 4.88-13.25 8.25-19.25 2.56-4.56 5.94-8.445 9.125-12.375 1.01-1.244 2.473-2.264 3.75-3.25 6.23-4.81 12.513-8.617 21.625-10.75 2.246-.526 8.17-1.36 10.875-.875l4 .25c7.493-1.457 14.655-2.577 21.125-4.875 3.96-1.406 7.995-3.48 11.75-5.125 6.435-2.817 12.593-5.346 18.75-8.5 13.873-7.106 27.295-15.064 42-21.375 6.163-2.645 12.65-6.048 19.25-8.25a304.752 304.752 0 0 1 25.25-7.25l17.625-3.25c5.34-1.16 10.895-.647 16.125-1.625l6.75-.375zm41.625 88.625c-1.56 1.17-3.696 1.604-5.5 2.5-4.234 2.103-8.51 4.284-12.625 6.625-7.46 4.245-14.46 8.992-21.375 13.75-3.092 2.127-5.695 5.093-8.625 7.375-4.36 3.397-10.36 9.748-13.125 14.625-2.31 4.075-4.348 8.04-5.625 13.25-.964 3.933-.033 8.703.75 12 .446 1.878.32 3.37.875 5.125l2.5 6.5c1.233 3.382 1.132 6.953 1.875 10.875.334 1.76.48 4.54.125 6.375l-.125 4.75-1.75 9.875c-2.53 8.777-5.248 17.012-8.5 25.125-1.514 3.776-2.822 7.615-4.375 11.5-.706 1.766-2.1 3.784-2.25 5.875 4.21 3.647 5.492 16.605 3 23.125-.172.45-.866.76-1 1.125-.334.907.19 1.915-.5 2.875-.44.613-.942.112-1.125 1.125.61.765-.208 2.21-.875 2.5-.44.248-.75.16-1 .625-.28.735.23 1.45-.375 2.25-.675.894-1.75.153-1.875 1.75.17.22.175.25.25.625-.426.335-.608.906-1 1.25l-1.25.25-.375.125v1.25c-.613 1.435-2.062 1.316-2.5 2-1.273 2.26-4.282 4.05-6.625 5.625-1.156.777-2.996.837-3.75 2l-13.125 34.125c-9.886 24.4-19.298 49.328-29 73.75-5.166 13.003-9.618 27.43-16.5 38.875-4.2 6.984-9.583 14-16.5 18.25-1.26.774-2.522 1.003-4 1.625-2.497 1.05-5 2.84-7.75 3.875-2.793 1.05-6.224 1.206-7.875 3.375-3.29 4.323-2.367 9.203-2 15.375l.5.375c18.99.298 34.484-3.282 48.125-8.75 5.188-2.08 9.87-3.87 14.875-5.875 2.467-.988 5.335-2.638 7.625-4 2.29-1.167 4.584-2.333 6.875-3.5 6.414-3.454 12.554-7.682 18.5-11.75 6.77-4.633 12.924-10.14 19.375-15.125l5.125-4.75c5.962-4.568 11.378-10.185 16.5-15.625 4.252-4.517 9.027-8.58 12.875-13.5 1.933-2.47 4.572-4.513 6.5-7 6.214-8.017 12.942-15.507 18.875-23.875 2.078-2.93 4.218-5.825 6.25-8.875l2-2.875.125-3.625.75-6.75c1.704-8.043 2.976-15.563 5.5-22.625 4.562-12.765 10.493-24.51 15.75-36.625 4.47-10.298 8.024-20.98 11.5-32.25 2.446-7.932 2.707-16.703 4.625-25.375l.75-10.25c.644-3.257 1.05-11.69.375-15.25l-.25-5.875c-1.38-7.237-1.79-14.102-3.375-21.25-.803-3.622-2.077-11.498-1.125-16 3.82-18.06 12.718-30.17 20.875-43.75l3.5-6.625c.318-1.1-.634-2.476-.875-3.25-.927-2.984-1.647-5.703-2.75-8.375-.61-1.477-1.18-5.34-2.875-5.625l-4.75-.375c-3.54-.666-6.99-.23-10.75-1l-14.875-1.875c-3.967-.82-8.402-1.897-12.625-2zm56.25 66.75c-2.568 3.296-2.138 10.532-.375 14.125l.25-.125c.518-1.045.017-2.646.25-4 .27-1.58.79-8.515.125-9.875l-.25-.125zm108.125 29.125c-.3 1.112.916 7.527 1.25 9.125l1 12.125.25 7h.25c4.836-7.42 5.877-17.612.375-24.875-.86-1.137-1.735-2.806-3.125-3.375zm-51.5 21.25c-.243 1.776-.07 3.662.375 5.25 1.022.567 1.993 1.568 3.25 1.75l.125-.625c-1.056-1.84-1.383-5.3-3.25-6.25l-.5-.125zm-92.75 222.25l-3.75 1.25c-3.04 1.634-9.14 7.173-8.25 12l.375.125c1.776.917 5.016-.146 6.25-.75 3.783-1.852 9.76-6.427 8.375-12.375l-.375-.125-2.625-.125z"/></svg>