<svg xmlns="http://www.w3.org/2000/svg" width="231" height="241"><path fill-rule="evenodd" d="M131.845 4.017c3.525.083 7.042-.162 10.21.463.74.07 1.478.137 2.217.206 3.45.757 6.802 1.17 10.003 2.163 9.367 2.903 17.88 6.316 25.472 10.968 1.426.79 2.853 1.58 4.28 2.368 2.68 1.64 5.304 3.35 7.89 5.098l5.516 4.223 1.495 1.39c7.724 5.9 13.932 14.206 19.078 22.71 3.51 5.803 6.47 11.978 9.075 18.693.44 1.128.56 2.203.93 3.4.46 1.495.672 3.232 1.03 4.942l.104 2.01c.186 1.047.152 2.64-.052 3.655-1.37 6.823-4.268 11.477-7.58 16.272-1.3 1.88-2.86 3.595-4.228 5.458-.317.432-.927.946-1.134 1.442-.24 1.34-.48 2.678-.722 4.017-.842 3.49-1.434 7.03-2.475 10.402-2.89 9.354-5.543 18.41-9.28 26.88-1.88 4.26-3.67 8.573-5.776 12.667l-4.538 8.6-1.29 2.06-2.01 3.553c-2.323 3.422-4.545 6.88-6.962 10.196-3.018 4.143-6.506 7.882-9.693 11.844-1.434 1.783-3.387 3.202-4.796 4.996-.716.91-1.61 1.657-2.424 2.47-.882.884-1.695 1.85-2.68 2.628-.395.31-.727.777-1.084 1.132a54.484 54.484 0 0 1-5.053 4.43c-1.1.85-2.087 1.935-3.198 2.78-2.513 1.91-5.024 3.858-7.63 5.664-6.863 4.753-14.548 8.427-23.308 11.278-2.637.858-5.554 1.435-8.456 2.11-1.077.252-2.57.212-3.712.362-1.804.236-4.084.497-6.136.206-1.835-.26-3.807-.028-5.724-.412l-4.125-.67c-4.6-1.228-9.013-2.295-13.044-4.068-8.907-3.918-16.028-9.56-23.306-15.088-1.386-1.053-2.647-2.348-4.022-3.4-1.485-1.133-2.9-2.302-4.33-3.5-.855-.716-1.6-1.633-2.476-2.318-2.9-2.264-5.51-5.033-7.94-7.776-3.525-3.977-7.068-7.995-9.953-12.616-2.145-3.435-3.99-7-5.93-10.66-.753-1.42-1.715-2.91-2.372-4.377-1.026-2.29-2.118-4.57-3.352-6.693l-1.134-2.318c-.452-.736-1.53-1.284-2.217-1.803-1.436-1.085-2.742-2.352-4.177-3.45l-1.7-1.7c-3.35-2.707-5.593-7.412-6.808-12.307-.842-3.394-.002-8.576.877-11.33 2.01-6.296 3.902-12.26 6.342-18.126.667-1.604 1.03-3.158 1.65-4.79 1.523-4.012 2.913-8.108 4.485-12.203 4.408-11.48 8.535-23.3 12.994-34.76 1.998-5.138 3.64-10.343 5.722-15.344 1.143-2.744 2.014-5.46 3.403-7.93 1.056-1.88 2.45-3.48 3.764-5.1.415-.512 1.02-.932 1.546-1.338 2.57-1.982 5.162-3.55 8.92-4.428.927-.217 3.37-.56 4.486-.36l1.65.102c3.09-.6 6.046-1.062 8.715-2.008 1.633-.58 3.297-1.434 4.846-2.112 2.655-1.16 5.195-2.202 7.735-3.5 5.723-2.93 11.26-6.207 17.325-8.807 2.542-1.09 5.218-2.492 7.94-3.4A126.175 126.175 0 0 1 115.14 6.18l7.27-1.34c2.202-.477 4.494-.266 6.65-.67.93-.05 1.857-.102 2.785-.153zm17.17 36.51c-.642.482-1.524.66-2.268 1.03-1.747.867-3.51 1.765-5.208 2.73-3.08 1.748-5.966 3.704-8.818 5.664-1.275.877-2.35 2.1-3.558 3.04-1.8 1.398-4.273 4.015-5.414 6.024-.953 1.68-1.794 3.312-2.32 5.46-.398 1.62-.014 3.584.31 4.942.183.774.13 1.388.36 2.112.344.892.688 1.785 1.03 2.677.51 1.394.468 2.865.775 4.48.137.726.198 1.87.05 2.627l-.05 1.957-.722 4.067c-1.043 3.616-2.165 7.008-3.506 10.35-.625 1.556-1.164 3.137-1.805 4.738-.29.728-.866 1.56-.928 2.42 1.736 1.503 2.265 6.84 1.237 9.527-.07.186-.356.313-.41.463-.14.374.077.79-.207 1.185-.182.252-.39.046-.465.463.252.316-.085.91-.36 1.03-.18.102-.31.066-.413.258-.116.304.094.598-.155.928-.278.368-.72.063-.773.72.07.092.072.103.103.258-.176.138-.25.373-.412.515l-.516.104a9.398 9.398 0 0 0-.155.052v.514c-.253.592-.85.543-1.03.824-.526.93-1.767 1.67-2.734 2.318-.477.32-1.236.345-1.547.824l-5.414 14.058c-4.078 10.05-7.96 20.32-11.962 30.382-2.13 5.357-3.968 11.3-6.807 16.016-1.732 2.877-3.952 5.767-6.806 7.518-.52.32-1.04.413-1.65.67-1.03.432-2.063 1.17-3.197 1.596-1.152.433-2.567.496-3.248 1.39-1.358 1.78-.976 3.79-.825 6.334l.206.155c7.833.123 14.225-1.352 19.852-3.605 2.14-.857 4.07-1.595 6.136-2.42 1.018-.407 2.2-1.087 3.146-1.648l2.836-1.442c2.646-1.423 5.18-3.165 7.63-4.84 2.794-1.91 5.332-4.178 7.993-6.232l2.114-1.957c2.46-1.88 4.693-4.194 6.806-6.435 1.754-1.86 3.723-3.536 5.31-5.562.798-1.018 1.887-1.86 2.682-2.884 2.563-3.303 5.338-6.39 7.786-9.836.857-1.208 1.74-2.4 2.578-3.657l.825-1.184.05-1.493c.105-.927.208-1.854.31-2.78.704-3.315 1.23-6.413 2.27-9.322 1.88-5.26 4.328-10.098 6.496-15.088 1.844-4.243 3.31-8.643 4.744-13.286 1.01-3.268 1.117-6.88 1.908-10.454l.31-4.222c.265-1.342.433-4.816.154-6.283l-.104-2.42c-.57-2.982-.738-5.81-1.392-8.754-.332-1.49-.857-4.736-.464-6.59 1.575-7.44 5.246-12.43 8.61-18.024l1.444-2.73c.13-.453-.26-1.02-.36-1.34-.383-1.228-.68-2.348-1.135-3.45-.252-.607-.488-2.2-1.187-2.316l-1.96-.155c-1.46-.274-2.882-.094-4.434-.41-2.046-.26-4.09-.516-6.137-.774-1.636-.336-3.465-.78-5.207-.823zm23.204 27.5c-1.06 1.357-.883 4.338-.156 5.818.034-.017.07-.034.103-.052.214-.43.007-1.09.103-1.647.112-.652.326-3.508.052-4.07l-.103-.05zm44.6 11.997c-.123.46.378 3.1.516 3.76l.412 4.995.104 2.882h.103c1.995-3.056 2.424-7.255.154-10.247-.356-.47-.716-1.156-1.29-1.39zm-21.243 8.755c-.1.73-.03 1.507.154 2.16.423.235.824.648 1.342.722l.05-.257c-.434-.758-.57-2.184-1.34-2.575l-.205-.05zm-38.26 91.558l-1.547.515c-1.254.673-3.77 2.955-3.403 4.944l.155.05c.732.38 2.07-.06 2.578-.308 1.56-.764 4.026-2.648 3.455-5.1l-.155-.05-1.083-.052z"/></svg>