<svg xmlns="http://www.w3.org/2000/svg" width="409" height="427"><path fill-rule="evenodd" d="M233.44 7.117c6.24.148 12.47-.286 18.077.82l3.925.366c6.11 1.34 12.045 2.074 17.712 3.832 16.584 5.144 31.66 11.193 45.1 19.434l7.577 4.196c4.745 2.905 9.393 5.937 13.97 9.033 3.255 2.492 6.51 4.987 9.767 7.48.883.82 1.765 1.643 2.648 2.464 13.674 10.45 24.668 25.168 33.78 40.236 6.215 10.282 11.455 21.223 16.067 33.12.775 2 .99 3.903 1.643 6.022.817 2.65 1.19 5.73 1.826 8.76.062 1.185.123 2.37.183 3.557.33 1.857.27 4.68-.09 6.477-2.43 12.09-7.557 20.335-13.42 28.832-2.302 3.333-5.065 6.37-7.487 9.67-.562.766-1.643 1.675-2.01 2.555-.425 2.372-.85 4.744-1.277 7.116-1.492 6.184-2.54 12.46-4.383 18.432-5.117 16.576-9.815 32.62-16.433 47.627-3.33 7.546-6.496 15.19-10.225 22.444-2.68 5.078-5.357 10.158-8.035 15.237l-2.282 3.65-3.56 6.296c-4.113 6.062-8.047 12.188-12.326 18.065-5.343 7.34-11.52 13.966-17.163 20.986-2.54 3.158-5.997 5.673-8.49 8.85-1.268 1.615-2.85 2.937-4.29 4.38-1.564 1.563-3.003 3.276-4.75 4.653-.697.55-1.283 1.376-1.916 2.006a96.298 96.298 0 0 1-8.947 7.847c-1.945 1.505-3.69 3.43-5.66 4.927-4.448 3.385-8.894 6.836-13.51 10.036-12.15 8.42-25.756 14.93-41.266 19.98-4.67 1.522-9.834 2.545-14.972 3.742-1.907.445-4.552.374-6.573.64-3.194.418-7.23.88-10.865.364-3.25-.46-6.74-.05-10.134-.73l-7.303-1.186c-8.147-2.176-15.96-4.066-23.097-7.208-15.77-6.942-28.378-16.94-41.265-26.733-2.454-1.865-4.687-4.16-7.12-6.022-2.63-2.01-5.138-4.08-7.67-6.204-1.512-1.27-2.83-2.894-4.382-4.107-5.134-4.012-9.756-8.918-14.06-13.777-6.24-7.046-12.512-14.166-17.62-22.354-3.797-6.086-7.065-12.4-10.498-18.886-1.333-2.517-3.036-5.154-4.2-7.756-1.816-4.06-3.75-8.097-5.934-11.86l-2.008-4.106c-.8-1.303-2.708-2.274-3.925-3.194-2.543-1.922-4.854-4.167-7.395-6.113l-3.013-3.01c-5.93-4.8-9.902-13.135-12.052-21.807-1.49-6.014-.004-15.196 1.552-20.073 3.56-11.156 6.91-21.72 11.23-32.116 1.18-2.842 1.825-5.595 2.92-8.484 2.698-7.11 5.16-14.37 7.944-21.624 7.804-20.343 15.11-41.284 23.006-61.586 3.54-9.105 6.445-18.328 10.134-27.19 2.023-4.86 3.565-9.67 6.025-14.05 1.87-3.328 4.337-6.164 6.663-9.033.737-.91 1.807-1.653 2.74-2.372 4.55-3.51 9.138-6.29 15.793-7.846 1.64-.384 5.968-.992 7.943-.64l2.92.184c5.473-1.064 10.704-1.882 15.43-3.56 2.89-1.025 5.838-2.54 8.58-3.74 4.7-2.055 9.198-3.902 13.695-6.204 10.133-5.187 19.935-10.995 30.675-15.602 4.5-1.93 9.24-4.414 14.06-6.02 5.995-2 12.045-3.753 18.44-5.293l12.873-2.374c3.9-.846 7.958-.472 11.777-1.186 1.644-.09 3.287-.182 4.93-.273zm30.402 64.688c-1.14.853-2.7 1.17-4.017 1.825-3.093 1.535-6.216 3.127-9.22 4.836-5.45 3.1-10.563 6.563-15.613 10.036-2.258 1.553-4.16 3.718-6.3 5.383-3.184 2.48-7.565 7.115-9.585 10.675-1.688 2.974-3.175 5.868-4.108 9.672-.705 2.87-.025 6.352.547 8.76.325 1.37.233 2.457.64 3.74l1.825 4.744c.9 2.47.826 5.075 1.37 7.938.243 1.285.35 3.313.09 4.653l-.09 3.467-1.28 7.208c-1.846 6.406-3.832 12.417-6.207 18.34-1.106 2.755-2.06 5.557-3.195 8.393-.516 1.29-1.533 2.762-1.644 4.288 3.075 2.662 4.01 12.12 2.19 16.88-.124.328-.63.554-.73.82-.243.663.14 1.4-.364 2.1-.322.447-.688.08-.822.82.446.56-.152 1.614-.64 1.825-.32.18-.546.116-.73.456-.204.537.168 1.06-.273 1.643-.493.653-1.278.112-1.37 1.277.125.16.128.182.183.456-.31.245-.444.66-.73.913-.305.06-.61.12-.913.182l-.274.09v.914c-.448 1.046-1.506.96-1.826 1.46-.93 1.647-3.127 2.955-4.84 4.104-.843.567-2.187.612-2.738 1.46l-9.586 24.908c-7.22 17.81-14.095 36.005-21.18 53.832-3.774 9.49-7.025 20.022-12.052 28.375-3.067 5.097-7 10.218-12.05 13.32-.92.565-1.843.732-2.922 1.186-1.824.767-3.652 2.073-5.66 2.83-2.04.766-4.546.878-5.752 2.462-2.403 3.156-1.728 6.717-1.46 11.222.12.092.243.183.365.274 13.87.218 25.185-2.395 35.148-6.387 3.79-1.518 7.21-2.825 10.865-4.288 1.802-.722 3.896-1.926 5.57-2.92l5.02-2.555c4.685-2.522 9.17-5.607 13.512-8.577 4.945-3.382 9.44-7.4 14.15-11.04l3.744-3.467c4.355-3.333 8.31-7.433 12.052-11.404 3.105-3.296 6.593-6.263 9.403-9.854 1.412-1.803 3.34-3.294 4.747-5.11 4.54-5.85 9.453-11.318 13.786-17.426 1.518-2.14 3.08-4.25 4.564-6.478l1.46-2.098c.032-.882.062-1.764.092-2.646l.548-4.927c1.245-5.87 2.174-11.36 4.017-16.514 3.33-9.318 7.663-17.89 11.502-26.733 3.264-7.517 5.86-15.313 8.4-23.54 1.786-5.79 1.976-12.192 3.377-18.522l.547-7.48c.47-2.378.768-8.534.274-11.133-.06-1.43-.12-2.86-.182-4.288-1.007-5.282-1.307-10.293-2.465-15.51-.586-2.644-1.517-8.393-.82-11.68 2.788-13.182 9.287-22.02 15.245-31.933l2.556-4.836c.232-.802-.463-1.807-.64-2.372-.676-2.178-1.202-4.162-2.007-6.113-.446-1.078-.863-3.9-2.1-4.106l-3.47-.273c-2.585-.486-5.104-.168-7.85-.73l-10.865-1.37c-2.897-.596-6.136-1.384-9.22-1.46zm41.082 48.722c-1.876 2.406-1.56 7.688-.274 10.31l.183-.09c.378-.764.013-1.932.182-2.92.2-1.154.577-6.216.092-7.21l-.183-.09zm78.97 21.26c-.218.81.67 5.493.913 6.66l.73 8.85.183 5.11h.182c3.533-5.417 4.293-12.856.274-18.158-.63-.83-1.267-2.05-2.282-2.464zm-37.613 15.51a9.73 9.73 0 0 0 .274 3.832c.747.412 1.456 1.143 2.374 1.276l.09-.456c-.77-1.343-1.008-3.87-2.372-4.562l-.365-.09zM278.54 319.52l-2.74.912c-2.22 1.193-6.675 5.236-6.024 8.76l.274.09c1.297.67 3.663-.106 4.564-.547 2.763-1.352 7.128-4.69 6.117-9.032-.09-.03-.182-.06-.273-.092l-1.917-.09z"/></svg>