<svg xmlns="http://www.w3.org/2000/svg" width="481" height="544"><path fill-rule="evenodd" d="M278.777 8.39c1.316-.01 2.32.39 3.496.613 1.703.32 3.42-.272 5.156.174.917.236 2.122.744 2.97.962 2.126.545 4.293.32 6.292.96 1.43.458 3.307 1.438 4.807 1.836 1.14.303 2.066.12 3.058.524.578.236 1.01.75 1.485 1.05l1.4.35 2.27 1.222 2.535.525c.744.303 1.198 1.025 1.835 1.398l2.01.787 1.66 1.136 2.185.524c.65.322 1.03.993 1.573 1.4.808.6 1.855.817 2.71 1.397l1.224 1.136 2.185.7 2.184 2.097 1.485.7c.61.4.964 1.085 1.485 1.572.738.69 1.994.975 2.796 1.573l1.662 1.66 1.66 1.05 1.398 1.748c.898.64 1.79 1.078 2.622 1.748.525.583 1.05 1.165 1.573 1.748.535.41 1.163.697 1.573 1.224l1.224 1.835c.803.798 1.924 1.286 2.622 2.186l.96 1.4c.6.503 1.362.78 1.836 1.397l1.223 2.098 2.36 2.186 1.136 1.835c.427.506 1.163.773 1.572 1.312l1.398 2.623 1.66 1.573c.27.35.374.753.787.96.704.334 2.218-.346 2.884-.523l5.944-1.224c.882-.227 2.413-.588 3.408-.174.587.245.746.902 1.224 1.224 1.085.733 2.368.908 3.146 1.923.56.73.673 1.466 1.136 2.36.548 1.06 1.57 1.94 2.097 3.146l.612 1.922 1.398 1.836.96 2.71c.58.873 1.383 1.673 1.837 2.71l.7 2.184c.614.967 1.454 1.776 1.92 2.972 1.052 2.69 2.024 3.556 1.487 7.167l.26 1.836c-.307 1.744-4.553 5.96-5.767 7.517-.586.752-1.923 1.166-2.01 2.36 1.04 1.19 1.286 2.733 1.836 4.457.523.903 1.047 1.807 1.572 2.71.405.998.14 2.168.524 3.32l1.136 2.186.524 2.622c.365.933 1.17 1.79 1.486 2.885.27.93-.02 1.902.262 2.97l1.05 2.36c.115.875.232 1.75.348 2.623.273.876 1.047 1.813 1.31 2.797.26.97-.08 1.974.176 3.06l.96 2.534c.09.932.176 1.865.264 2.797.253.802.894 1.71 1.136 2.622l.174 3.234.874 2.36c.06.874.117 1.748.175 2.622.224.844.802 1.763 1.05 2.71.257.98-.15 2.234.175 3.32.21.707.688 1.553.874 2.36.203.89-.106 1.655.086 2.448l1.05 2.535c.275 1.042-.13 2.246.173 3.41l.873 2.446c.06.904.117 1.807.175 2.71.243.796.83 1.705 1.05 2.623.24 1.014-.136 1.983.086 2.97.29.788.583 1.575.874 2.36l.175 2.71 1.05 2.71c.26.997-.12 2.2.173 3.32l.874 2.36c.06.904.117 1.808.175 2.71.254.85.82 1.738 1.05 2.71.23.982-.12 2.144.174 3.234.58 2.162 2.493 2.227 4.193 3.234 2.122 1.258 3.97 2.723 5.855 4.197 4.847 3.788 8.523 11.076 10.575 17.743 4.454 14.47-2.39 28.98-10.837 34.61-4.77 3.182-9.914 4.21-16.604 5.595l-9.176 1.224-44.482 6.554c-9.458 1.966-19.166.338-25.08-3.583-6.8-4.507-11.375-11.395-14.07-20.015-3.845-12.29.665-26.043 7.427-31.902.034-2.25-.846-3.31-1.222-5.157-.03-.903-.06-1.806-.088-2.71-.22-.74-.687-1.643-.874-2.534l-.087-2.01c-.26-.992-.897-2.002-1.137-3.147v-2.447c-.29-.816-.583-1.632-.874-2.448-.06-.874-.118-1.748-.176-2.622-.24-.792-.826-1.676-1.05-2.622l-.173-3.234c-.22-.847-.68-1.787-.873-2.797-.03-.64-.06-1.282-.088-1.923-.216-.728-.718-1.537-.962-2.36-.315-1.062.078-2.322-.175-3.32-.185-.735-.686-1.618-.874-2.448-.03-.728-.06-1.457-.088-2.185-.25-.98-.893-1.943-1.136-3.06l-.088-2.797c-.29-.816-.582-1.632-.873-2.447-.06-.816-.117-1.632-.175-2.448-.23-.77-.785-1.68-1.05-2.535-.303-.985.05-2.038-.174-2.97-.29-.73-.582-1.458-.874-2.186l-.262-2.622-1.048-2.36-.437-3.41c-.257-.6-.76-1.308-.962-2.01l-.35-2.534c-.35-.967-1.007-1.9-1.31-3.058l-.262-2.098-1.048-1.835-.612-2.886c-.325-.882-1.08-1.713-1.398-2.71-.146-.757-.29-1.514-.437-2.272l-1.398-2.36c-.254-.686-.144-1.64-.7-2.01l-1.66-.262c-.927-.4-3.834-2.214-4.37-2.972-.508-.72-.645-1.594-1.135-2.36-.516-.804-1.34-1.52-1.748-2.447l-.7-2.01c-.41-.613-1.088-1.17-1.485-1.835l-1.05-2.797c-.453-.685-1.18-1.347-1.573-2.097l-.7-2.097-1.572-2.01c-.29-.816-.583-1.632-.874-2.448-.338-.793-1.098-1.48-1.397-2.36-.216-.636-.408-4.917-.262-5.506.153-.616.563-.77.612-1.574-.576-.462-.73-1.1-1.136-1.748l-2.01-1.923c-.56-.735-.772-1.66-1.31-2.447l-1.137-1.05c-.47-.606-.756-1.293-1.224-1.922l-2.272-1.836c-.58-.616-.813-1.376-1.31-2.097l-1.487-1.224-1.485-1.924c-.588-.404-1.175-.565-1.66-1.05-.678-.672-1.12-1.74-1.836-2.36-.653-.564-1.485-.885-2.01-1.572l-.786-1.224-2.01-.96-1.923-2.1c-.627-.432-1.276-.65-1.835-1.135l-1.05-1.31c-.61-.234-1.223-.467-1.834-.7l-1.573-1.573c-.612-.32-1.224-.64-1.835-.962l-1.923-1.748c-1.914-1.047-3.802-1.69-5.593-2.884-.76-.507-2.24-2.042-3.408-1.748-.206.16-.175.24-.175.61.895 1.62.4 6.723.263 8.83-.292 4.526-1.53 8.843-2.97 12.498-.526 1.398-1.05 2.797-1.574 4.195l.523 1.4c.07.47-.37.614-.437 1.135.318.313.698.5.787 1.05.344.666-.185 1.142-.263 1.747.29.184.393.368.612.612.133 6.28-1.15 13.442-5.593 17.13-1.16.963-2.505 1.767-3.933 2.448-.64.306-1.578.284-1.923.874l-2.185 5.943-5.68 14.246c-7.73 19.188-14.63 38.69-22.548 57.686-7.312 17.538-12.08 36.77-26.917 46.76-6.28 4.23-13.736 6.255-22.46 8.217l-.086.262c-.78 1.51.58 4.643.523 6.905-.037 1.482.498 2.33.786 3.67l.087 3.322c.26.888.823 1.92 1.05 2.972l.086 3.41c.307 1.172.844 2.326 1.136 3.757l.086 2.01c.323 1.054 1.022 2.173 1.31 3.41.06 1.02.118 2.04.176 3.06.21.752.794 1.702 1.05 2.534l.348 3.41c.388.974 1.113 2.03 1.4 3.232l.173 2.885c.255.96.96 2 1.224 3.06l.262 2.797c.25.884 1 1.832 1.31 2.797.36 1.12.065 2.463.437 3.67.315 1.023 1.025 2.017 1.31 3.235l.263 2.533c.334.964 1.15 1.986 1.486 3.06.328 1.048.027 2.002.35 3.146.23.822.92 1.744 1.223 2.62.173 1.08.348 2.157.523 3.235.428 1.007 1.236 2.018 1.573 3.234l.35 2.796c.294.918 1.078 1.862 1.398 2.884.145.932.29 1.865.437 2.797.355.9 1.185 1.802 1.574 2.797.38.976.213 1.923.524 3.06l1.398 2.71c.373.927.185 1.84.525 2.883.297.91 1.252 1.842 1.66 2.797.427.995.302 2.115.7 3.234.338.948 1.203 1.838 1.573 2.884l.525 2.622c.404.924 1.323 1.776 1.747 2.797.38.914.27 1.76.612 2.798.353 1.073 1.325 2.052 1.748 3.234l.524 2.36c.492.988 1.454 1.845 1.922 2.972l.612 2.534 1.66 2.622c.352.845.27 1.63.612 2.535.42 1.11 1.604 2.055 2.097 3.234l.7 2.534c.415.825 1.27 1.527 1.66 2.447l.786 2.623c.547.88 1.372 1.68 1.922 2.622l.96 2.885c.51.813 1.33 1.498 1.75 2.447.26.786.523 1.573.786 2.36.545.85 1.38 1.643 1.922 2.534l1.05 2.798c.454.707 1.208 1.333 1.66 2.098.414.704.403 1.493.786 2.273l2.272 2.97.96 2.535c.432.668 1.227 1.22 1.662 1.923.35.845.7 1.69 1.048 2.535.582.867 1.512 1.62 2.098 2.534l1.05 2.448c.48.753 1.348 1.305 1.834 2.097l.96 2.185c.636.984 1.703 1.783 2.36 2.797.32.73.64 1.457.962 2.185.415.696 1.35 1.23 1.835 1.922.38.787.757 1.574 1.136 2.36.46.592 1.21 1.026 1.66 1.66.657.926.998 2.008 1.66 2.973.515.747 1.496 1.227 2.01 2.01l.962 1.923c.606.838 1.77 1.67 2.447 2.622.32.64.64 1.282.962 1.923l2.01 1.923 1.048 1.922c.535.693 1.494 1.095 2.01 1.836.573.822.903 1.698 1.486 2.535.67.58 1.34 1.164 2.01 1.747.38.64.757 1.282 1.136 1.923.495.618 1.43.932 1.923 1.573l1.747 2.71c.602.706 1.617 1.073 2.185 1.835l.96 1.573c.622.578 1.43.874 2.01 1.487l1.224 1.923 2.71 2.36 1.048 1.486c.76.58 1.602.914 2.184 1.66 1.92 2.456 4.185 4.287 6.642 6.206.57.444.882 1.15 1.31 1.748l2.798 2.098 1.048 1.31c.555.495 1.436.693 2.01 1.137.625.483.967 1.358 1.573 1.835.846.667 1.8 1.075 2.622 1.75.447.366.692 1.023 1.223 1.31.658.355 1.267.462 1.835.874.623.452.963 1.317 1.573 1.748l1.312.612c.826.55 1.486 1.44 2.272 2.01l2.272 1.05 1.573 1.572 1.572.7 2.01 1.747 2.272.874 1.486 1.4c.585.336 1.206.357 1.748.698l1.747 1.486 2.622.962 1.136 1.05c.67.26 1.34.524 2.01.786l1.573 1.31 2.273.7c.717.3 1.207.957 1.834 1.31.437.118.874.234 1.31.35.727.312 1.217.934 1.836 1.312.903.29 1.806.582 2.71.874.59.25 1.048.862 1.572 1.136.755.394 1.607.29 2.272.7l1.224.96 2.71.787 1.397.962 1.66.348c.58.24 1.043.813 1.573 1.05l2.622.698 1.136.612 1.835-.612c1.774-.656 3.667-1.692 5.245-2.622l1.66-.524 2.535-1.66 1.31-.35c.5-.282.906-.88 1.486-1.137.38-.116.758-.233 1.136-.35.742-.467 1.48-1.186 2.272-1.66l1.4-.524c.465-.41.93-.817 1.397-1.225.41-.146.817-.29 1.224-.437.775-.527 1.482-1.368 2.36-1.835 3.496-1.864 6.414-4.416 9.613-6.643l1.223-1.4 1.923-1.047 1.835-1.836 1.136-.612c.392-.45.582-1.03 1.05-1.398.523-.292 1.048-.583 1.572-.874 1.27-.934 2.772-2.666 3.758-3.933.472-.607 1.334-.814 1.923-1.31.69-.584 1.108-1.542 1.835-2.1.378-.26.757-.524 1.136-.786l.7-1.223c.464-.536 1.084-.787 1.66-1.223l.96-1.31c.588-.68 1.5-1.09 2.098-1.75l.787-1.31c.435-.56 1.074-.804 1.66-1.224l1.748-2.098 1.312-.96c.548-.55.847-1.38 1.485-1.837 2.06-1.472 4.23-2.534 6.38-3.933.67-.524 1.34-1.05 2.01-1.573.712-.39 1.337-.474 2.01-.874l.7-.612 1.31-.35c.827-.537 1.8-1.326 2.71-1.747l1.222-.09c2.724-.832 5.527-1.95 8.564-2.62l9.962-1.05 3.758-.175c2.56-.507 5.533-.13 8.564-.7l2.535-.086 9.875-.788 2.796-.087c1.963-.417 4.705-.093 7.08-.525 5.704-1.036 12.57-.583 16.866 1.137.997.4 2.05.57 2.796 1.223 1.772 1.55 4.138 6.418 2.797 9.702-.266.65-.79 1.348-1.05 1.923-.417.928-.334 1.792-.786 2.622-.303.557-.895.95-1.31 1.398-.49.53-.703 1.455-1.137 2.01-.436.41-.873.816-1.31 1.224l-1.05 2.01c-.34.482-1.043.688-1.397 1.136-.424.535-.578 1.187-1.05 1.66l-1.747 1.486c-.583.794-.92 1.65-1.66 2.273-.38.262-.758.524-1.136.787l-.787 1.136-2.01 1.66c-1.496 2.094-3.406 3.765-5.418 5.332l-1.31 1.748c-3.59 2.927-6.963 5.94-10.75 8.653l-1.224 1.4-2.096 1.136-1.748 1.66-1.223.525-1.136 1.225c-4.763 2.95-9.383 6.027-14.245 8.827l-1.398.437c-3.67 2.192-7.987 4.155-11.885 6.118l-1.75.35-1.048.698-2.097.525-2.185 1.224-1.835.263c-5.94 2.343-13.007 3.857-19.75 5.42l-2.71.086c-2.654.604-6.176.75-9.09 1.31-1.804.118-3.61.234-5.417.35l-7.603.35-8.477.35c-3.494.654-7.065-.203-10.487.437h-2.358c-3.117.575-6.336-.02-9.35.524h-3.234c-2.986.55-6.217-.074-9.002.35-4.33.66-8.847-.132-13.283.7l-3.234.087c-1.486.03-2.972.06-4.458.088-1.43.24-3.567.282-5.243.35h-3.06c-1.323.258-3.986.464-5.243.262l-5.943.175c-3.504 0-7.383.24-10.4-.437-.465.03-.932.058-1.398.087-.932-.146-1.864-.29-2.796-.437h-2.185c-2.28-.48-5.003-.745-7.428-1.31l-3.06-1.05-1.92-.175-1.662-.786c-1.223-.36-2.157-.343-3.233-.787l-1.05-.612c-.88-.3-1.698-.123-2.446-.437-.304-.126-.615-.478-.874-.61l-3.32-.962-1.224-.787-1.923-.348-1.66-1.05c-2.166-.845-3.913-1.298-6.03-2.184l-1.748-1.136-2.796-.874-1.485-1.05-1.923-.524c-.78-.398-1.405-1.124-2.272-1.486l-2.36-.786-1.398-1.05c-.712-.287-1.412-.312-2.01-.698l-1.223-1.05-2.71-.96-1.748-1.4-1.748-.61-1.748-1.487c-.815-.29-1.63-.582-2.447-.874-.694-.358-1.205-1.164-1.836-1.573-.906-.587-1.82-.785-2.622-1.398-.407-.38-.815-.758-1.223-1.137l-2.098-.786c-.683-.424-1.112-1.227-1.748-1.662-.525-.233-1.05-.466-1.573-.7l-2.36-2.097-1.572-.61c-.884-.542-1.384-1.54-2.185-2.098a768.57 768.57 0 0 0-1.573-.787l-2.272-2.185c-.68-.457-1.465-.58-2.097-1.05-.543-.402-.89-1.035-1.31-1.572-.394-.503-1.13-.675-1.66-1.05l-2.448-2.446c-.85-.564-1.832-.795-2.446-1.574-1.02-1.294-2.103-2.066-3.32-3.146-.526-.612-1.05-1.224-1.574-1.836-.935-.662-1.934-1.032-2.622-1.923l-1.05-1.573c-.783-.65-1.815-1.13-2.446-1.923-.337-.424-.58-1.01-.96-1.398-.684-.698-1.755-.968-2.36-1.75-.47-.604-.76-1.296-1.224-1.922l-2.36-1.923-1.398-2.01c-.692-.514-1.493-.898-2.01-1.574l-1.486-2.358-2.184-1.923c-.32-.526-.64-1.05-.962-1.575-.7-.61-1.398-1.223-2.097-1.835-.524-.874-1.05-1.748-1.573-2.622-.64-.554-1.282-1.107-1.923-1.66l-1.31-2.186-1.836-1.66c-.672-.882-.995-1.964-1.66-2.885-.582-.524-1.164-1.05-1.747-1.573-.536-.7-.782-1.535-1.31-2.273-.642-.61-1.283-1.222-1.923-1.834l-1.66-3.147c-.497-.64-1.36-1.068-1.836-1.75-.467-.667-.586-1.475-1.05-2.184l-2.01-2.098-1.484-2.97c-.545-.674-1.363-1.16-1.836-1.924-.35-.758-.7-1.515-1.048-2.273-.548-.764-1.408-1.347-1.923-2.184-.536-.87-.723-1.762-1.223-2.71-.583-.64-1.166-1.28-1.748-1.922-.526-.786-.594-1.808-1.136-2.622-.576-.865-1.45-1.603-2.01-2.535-.38-.903-.758-1.806-1.136-2.71-.52-.78-1.38-1.396-1.836-2.272-.357-.687-.372-1.49-.786-2.185l-1.66-2.01c-.65-1.044-.753-2.262-1.4-3.41l-1.484-1.747c-.592-.913-.6-2.2-1.224-3.147-.62-.94-1.52-1.774-2.01-2.884-.29-.845-.583-1.69-.874-2.535-.41-.628-1.127-1.246-1.485-1.923-.35-1.048-.7-2.097-1.048-3.146-.52-.793-1.298-1.564-1.748-2.447-.464-.91-.416-2.14-.96-3.058-.574-.965-1.366-1.83-1.836-2.972l-.437-1.923c-.414-1.036-1.464-1.965-1.922-3.06-.358-.855-.28-1.794-.7-2.71-.37-.81-1.197-1.547-1.572-2.446-.37-.88-.295-1.857-.7-2.796l-1.572-2.447c-.52-1.016-.41-2.146-.874-3.322-.466-.757-.932-1.515-1.4-2.272-.402-.958-.335-1.864-.698-2.972a3634.2 3634.2 0 0 0-1.573-2.62c-.514-1.048-.32-2.223-.787-3.41l-1.31-2.185c-.436-1.062-.26-2.228-.7-3.408-.335-.9-1.212-1.815-1.573-2.797-.35-.95-.172-1.918-.525-2.972-.33-.993-1.136-1.953-1.485-3.06l-.437-2.71c-.313-.836-1.046-1.717-1.398-2.62-.4-1.026-.154-2.04-.525-3.235l-1.31-2.71c-.313-.988-.13-1.943-.438-3.058-.278-1.016-1.173-2.03-1.485-3.147-.272-.97-.017-1.89-.35-2.972l-1.223-2.622c-.325-.996-.047-1.926-.35-3.06-.242-.905-1.004-1.834-1.31-2.796-.35-1.09-.06-2.276-.438-3.496-.278-.9-.974-1.867-1.223-2.884-.232-.947.044-1.852-.262-2.885l-1.223-2.71c-.332-1.065-.02-2.162-.35-3.408-.263-.996-.955-2.033-1.223-3.146l-.262-2.973c-.315-.92-.97-1.89-1.223-2.972-.232-.98.107-2.06-.176-3.146l-1.05-2.623c-.34-1.08.064-2.26-.26-3.497-.23-.87-.805-1.902-1.05-2.884-.29-1.167.21-2.424-.087-3.583-.27-1.053-.717-2.22-.96-3.497v-2.622c-.253-.863-.75-1.942-.963-2.97-.246-1.185.18-2.58.262-3.41-.145-.67-.29-1.34-.437-2.01-.985-.524-2.438-.403-3.67-.7l-4.895-1.398c-6.676-2.74-12.452-6.894-16.08-12.674-2.98-4.747-6.562-14.09-4.806-22.55.524-2.533.993-5 1.746-7.342 2.478-7.7 5.905-14.784 9.002-21.938 4.86-11.23 9.678-22.418 14.507-33.563 8.97-20.708 17.987-41.358 26.916-61.97 5.647-13.033 10.676-26.416 21.587-34.175 12.23-8.697 32.488-11.192 48.764-15.907 18.442-5.344 37.284-9.327 56.106-14.247 2.514-.656 4.96-.355 7.778-.873l3.845-.088 4.368.524c5.053-1.16 10.197-2.718 15.032-4.02 9.81-2.644 19.684-5.014 29.363-7.605 5.722-1.533 11.592-2.364 17.74-3.497 2.73-.503 5.11.278 7.603-.175 1.14-.207 2.364.387 3.32-.087zM397.63 213.703l-6.03.7c-4.254.727-8.507 1.456-12.76 2.184-1.432.303-5.888.452-6.642 1.224-.46.71-.327 1.93-.524 2.884-.492 2.383-1.115 5.602-.175 7.954.66 1.654 1.814 2.954 2.708 4.37 2.874 4.55 6.113 8.717 6.73 15.558.297.19.41.262.96.262l6.905-1.05c6.742-1.493 15.576-1.21 20.274-4.806 3.465-2.65 4.838-10 3.32-15.733-1.877-7.1-5.917-13.368-14.768-13.548zm-45.095 7.08c-1.46.798-4.552.65-6.38 1.048-7.99 1.744-18.216 1.268-21.497 7.78-1.423 2.823-1.815 7.905-.874 11.537 1.568 6.052 4.156 11.19 9.525 13.372 2.908 1.182 7.825.54 10.836-.088l21.935-3.234c.118-.226.16-.305.176-.7-.793-1.45-.602-3.475-1.4-4.806-1.77-2.96-3.78-5.886-5.766-8.74-.924-1.328-2.035-2.733-2.71-4.284-1.472-3.387-2.063-7.76-2.883-11.712l-.263-.087-.7-.09z"/></svg>