<svg xmlns="http://www.w3.org/2000/svg" width="688" height="778"><path fill-rule="evenodd" d="M398.75 12c1.882-.017 3.32.56 5 .875 2.436.46 4.893-.388 7.375.25 1.313.338 3.037 1.063 4.25 1.375 3.04.782 6.14.46 9 1.375 2.044.655 4.73 2.056 6.875 2.625 1.633.433 2.956.172 4.375.75.828.337 1.446 1.073 2.125 1.5l2 .5L443 23l3.625.75c1.065.433 1.714 1.466 2.625 2l2.875 1.125L454.5 28.5l3.125.75c.93.46 1.472 1.42 2.25 2 1.154.86 2.65 1.17 3.875 2l1.75 1.625 3.125 1 3.125 3 2.125 1c.873.574 1.38 1.553 2.125 2.25 1.056.987 2.853 1.395 4 2.25l2.375 2.375 2.375 1.5 2 2.5c1.283.915 2.558 1.542 3.75 2.5l2.25 2.5c.765.587 1.663.997 2.25 1.75l1.75 2.625c1.15 1.14 2.752 1.837 3.75 3.125l1.375 2c.856.72 1.947 1.115 2.625 2l1.75 3 3.375 3.125L511.25 76c.613.72 1.665 1.104 2.25 1.875l2 3.75 2.375 2.25c.386.5.534 1.077 1.125 1.375 1.006.476 3.172-.497 4.125-.75l8.5-1.75c1.262-.327 3.452-.842 4.875-.25.84.35 1.067 1.29 1.75 1.75 1.552 1.05 3.388 1.298 4.5 2.75.8 1.043.963 2.096 1.625 3.375.785 1.515 2.248 2.775 3 4.5l.875 2.75 2 2.625 1.375 3.875c.826 1.25 1.977 2.393 2.625 3.875l1 3.125c.88 1.383 2.082 2.54 2.75 4.25 1.503 3.846 2.893 5.086 2.125 10.25l.375 2.625c-.44 2.494-6.514 8.523-8.25 10.75-.838 1.075-2.75 1.668-2.875 3.375 1.49 1.7 1.838 3.91 2.625 6.375l2.25 3.875c.58 1.427.2 3.1.75 4.75l1.625 3.125.75 3.75c.522 1.334 1.67 2.56 2.125 4.125.386 1.332-.03 2.72.375 4.25l1.5 3.375.5 3.75c.39 1.253 1.497 2.593 1.875 4 .372 1.385-.117 2.823.25 4.375l1.375 3.625.375 4c.363 1.147 1.28 2.444 1.625 3.75l.25 4.625 1.25 3.375.25 3.75c.32 1.207 1.145 2.522 1.5 3.875.367 1.4-.216 3.195.25 4.75.303 1.01.984 2.22 1.25 3.375.293 1.273-.15 2.366.125 3.5l1.5 3.625c.395 1.49-.182 3.213.25 4.875l1.25 3.5.25 3.875c.347 1.138 1.19 2.438 1.5 3.75.344 1.45-.192 2.836.125 4.25l1.25 3.375.25 3.875 1.5 3.875c.375 1.425-.17 3.147.25 4.75l1.25 3.375.25 3.875c.363 1.216 1.172 2.485 1.5 3.875.33 1.403-.17 3.066.25 4.625.832 3.09 3.568 3.184 6 4.625 3.035 1.798 5.678 3.892 8.375 6 6.932 5.417 12.19 15.84 15.125 25.375 6.37 20.697-3.42 41.444-15.5 49.5-6.82 4.55-14.182 6.02-23.75 8l-13.125 1.75-63.625 9.375c-13.528 2.81-27.414.484-35.875-5.125-9.724-6.447-16.27-16.297-20.125-28.625-5.498-17.577.953-37.246 10.625-45.625.047-3.217-1.21-4.734-1.75-7.375l-.125-3.875c-.317-1.06-.984-2.35-1.25-3.625l-.125-2.875c-.37-1.417-1.282-2.863-1.625-4.5v-3.5l-1.25-3.5-.25-3.75c-.345-1.133-1.18-2.397-1.5-3.75l-.25-4.625c-.314-1.212-.973-2.556-1.25-4l-.125-2.75c-.308-1.042-1.026-2.2-1.375-3.375-.45-1.52.11-3.322-.25-4.75-.265-1.05-.982-2.314-1.25-3.5l-.125-3.125c-.356-1.4-1.277-2.777-1.625-4.375l-.125-4-1.25-3.5-.25-3.5c-.327-1.102-1.123-2.404-1.5-3.625-.435-1.41.068-2.916-.25-4.25L433 218.25l-.375-3.75-1.5-3.375-.625-4.875c-.367-.858-1.085-1.872-1.375-2.875l-.5-3.625c-.502-1.385-1.44-2.72-1.875-4.375l-.375-3-1.5-2.625-.875-4.125c-.465-1.262-1.543-2.45-2-3.875l-.625-3.25-2-3.375c-.363-.982-.205-2.344-1-2.875l-2.375-.375c-1.327-.573-5.484-3.166-6.25-4.25-.727-1.028-.923-2.28-1.625-3.375-.737-1.15-1.914-2.175-2.5-3.5l-1-2.875c-.587-.877-1.557-1.676-2.125-2.625l-1.5-4c-.65-.98-1.686-1.927-2.25-3l-1-3-2.25-2.875-1.25-3.5c-.485-1.134-1.573-2.116-2-3.375-.31-.91-.583-7.032-.375-7.875.217-.88.805-1.1.875-2.25-.825-.66-1.043-1.573-1.625-2.5l-2.875-2.75c-.8-1.05-1.106-2.374-1.875-3.5l-1.625-1.5c-.672-.868-1.08-1.85-1.75-2.75l-3.25-2.625c-.83-.882-1.162-1.97-1.875-3L375.75 105l-2.125-2.75c-.84-.58-1.68-.808-2.375-1.5-.968-.963-1.602-2.49-2.625-3.375-.934-.81-2.124-1.267-2.875-2.25l-1.125-1.75L361.75 92 359 89c-.897-.62-1.826-.932-2.625-1.625l-1.5-1.875-2.625-1-2.25-2.25-2.625-1.375-2.75-2.5c-2.737-1.498-5.438-2.418-8-4.125-1.088-.725-3.206-2.92-4.875-2.5-.295.23-.25.343-.25.875 1.28 2.315.57 9.613.375 12.625-.418 6.474-2.187 12.647-4.25 17.875l-2.25 6 .75 2c.098.672-.53.88-.625 1.625.455.447.998.713 1.125 1.5.493.954-.265 1.635-.375 2.5.413.264.562.526.875.875.19 8.98-1.646 19.224-8 24.5-1.658 1.376-3.582 2.525-5.625 3.5-.917.437-2.257.406-2.75 1.25l-3.125 8.5-8.125 20.375c-11.056 27.442-20.922 55.335-32.25 82.5-10.46 25.082-17.28 52.585-38.5 66.875-8.98 6.048-19.648 8.945-32.125 11.75l-.125.375c-1.112 2.16.83 6.64.75 9.875-.053 2.12.713 3.332 1.125 5.25l.125 4.75c.372 1.27 1.177 2.745 1.5 4.25l.125 4.875c.44 1.678 1.207 3.33 1.625 5.375l.125 2.875c.46 1.506 1.462 3.106 1.875 4.875l.25 4.375c.3 1.076 1.135 2.435 1.5 3.625l.5 4.875c.554 1.395 1.59 2.904 2 4.625l.25 4.125c.364 1.372 1.374 2.86 1.75 4.375l.375 4c.357 1.265 1.43 2.62 1.875 4 .515 1.602.093 3.524.625 5.25.45 1.462 1.466 2.883 1.875 4.625l.375 3.625c.478 1.378 1.644 2.84 2.125 4.375.47 1.5.04 2.864.5 4.5.332 1.178 1.318 2.496 1.75 3.75l.75 4.625c.612 1.44 1.768 2.885 2.25 4.625l.5 4c.42 1.313 1.543 2.663 2 4.125l.625 4c.507 1.29 1.694 2.577 2.25 4 .545 1.396.305 2.75.75 4.375l2 3.875c.533 1.328.264 2.632.75 4.125.424 1.303 1.79 2.635 2.375 4 .61 1.423.43 3.025 1 4.625.482 1.356 1.72 2.63 2.25 4.125l.75 3.75c.578 1.32 1.893 2.54 2.5 4 .542 1.305.387 2.516.875 4 .505 1.535 1.895 2.934 2.5 4.625l.75 3.375c.704 1.413 2.08 2.638 2.75 4.25l.875 3.625 2.375 3.75c.503 1.207.385 2.33.875 3.625.6 1.586 2.294 2.94 3 4.625l1 3.625c.595 1.18 1.82 2.185 2.375 3.5l1.125 3.75c.784 1.258 1.963 2.404 2.75 3.75l1.375 4.125c.728 1.163 1.903 2.144 2.5 3.5l1.125 3.375c.78 1.217 1.974 2.35 2.75 3.625l1.5 4c.65 1.01 1.73 1.905 2.375 3 .593 1.006.578 2.135 1.125 3.25l3.25 4.25 1.375 3.625c.616.956 1.753 1.743 2.375 2.75l1.5 3.625c.832 1.24 2.16 2.32 3 3.625l1.5 3.5c.69 1.078 1.93 1.866 2.625 3l1.375 3.125c.908 1.406 2.434 2.55 3.375 4L296 603.75c.594.996 1.932 1.76 2.625 2.75l1.625 3.375c.658.847 1.73 1.468 2.375 2.375.94 1.322 1.426 2.87 2.375 4.25.735 1.07 2.138 1.756 2.875 2.875l1.375 2.75c.867 1.2 2.53 2.39 3.5 3.75l1.375 2.75 2.875 2.75 1.5 2.75c.764.99 2.136 1.565 2.875 2.625.82 1.175 1.29 2.428 2.125 3.625l2.875 2.5 1.625 2.75c.708.884 2.046 1.333 2.75 2.25l2.5 3.875c.86 1.01 2.313 1.536 3.125 2.625l1.375 2.25c.888.825 2.047 1.248 2.875 2.125l1.75 2.75 3.875 3.375 1.5 2.125c1.088.83 2.292 1.308 3.125 2.375 2.744 3.512 5.985 6.13 9.5 8.875.814.635 1.262 1.646 1.875 2.5l4 3 1.5 1.875c.793.706 2.054.99 2.875 1.625.894.69 1.383 1.942 2.25 2.625 1.21.953 2.573 1.537 3.75 2.5.64.525.992 1.466 1.75 1.875.943.51 1.813.66 2.625 1.25.89.646 1.378 1.884 2.25 2.5l1.875.875c1.182.79 2.126 2.06 3.25 2.875l3.25 1.5 2.25 2.25 2.25 1L399 709l3.25 1.25 2.125 2c.837.483 1.725.513 2.5 1l2.5 2.125 3.75 1.375 1.625 1.5 2.875 1.125 2.25 1.875 3.25 1c1.028.43 1.73 1.368 2.625 1.875l1.875.5c1.038.446 1.74 1.335 2.625 1.875l3.875 1.25c.845.36 1.5 1.234 2.25 1.625 1.08.564 2.3.416 3.25 1l1.75 1.375 3.875 1.125 2 1.375 2.375.5c.83.343 1.49 1.162 2.25 1.5l3.75 1 1.625.875 2.625-.875c2.536-.94 5.243-2.42 7.5-3.75l2.375-.75 3.625-2.375 1.875-.5c.712-.403 1.294-1.258 2.125-1.625l1.625-.5c1.06-.67 2.117-1.697 3.25-2.375l2-.75 2-1.75 1.75-.625c1.108-.753 2.12-1.956 3.375-2.625 5-2.665 9.175-6.315 13.75-9.5l1.75-2 2.75-1.5L512.25 704l1.625-.875c.56-.644.83-1.473 1.5-2l2.25-1.25c1.815-1.335 3.964-3.813 5.375-5.625.675-.867 1.908-1.164 2.75-1.875.986-.833 1.585-2.203 2.625-3L530 688.25l1-1.75c.666-.768 1.552-1.126 2.375-1.75l1.375-1.875c.84-.97 2.144-1.558 3-2.5l1.125-1.875c.622-.8 1.537-1.15 2.375-1.75l2.5-3 1.875-1.375c.785-.786 1.21-1.972 2.125-2.625 2.948-2.107 6.052-3.624 9.125-5.625l2.875-2.25c1.02-.56 1.912-.678 2.875-1.25l1-.875 1.875-.5c1.184-.77 2.573-1.897 3.875-2.5l1.75-.125c3.896-1.19 7.907-2.79 12.25-3.75l14.25-1.5 5.375-.25c3.66-.726 7.914-.187 12.25-1l3.625-.125L633 648.875l4-.125c2.807-.596 6.73-.133 10.125-.75 8.16-1.482 17.982-.834 24.125 1.625 1.427.57 2.932.817 4 1.75 2.535 2.216 5.92 9.178 4 13.875-.38.93-1.13 1.928-1.5 2.75-.598 1.327-.48 2.563-1.125 3.75-.434.797-1.28 1.358-1.875 2-.702.76-1.004 2.08-1.625 2.875l-1.875 1.75-1.5 2.875c-.486.69-1.493.984-2 1.625-.606.765-.826 1.697-1.5 2.375l-2.5 2.125c-.835 1.135-1.315 2.36-2.375 3.25l-1.625 1.125-1.125 1.625-2.875 2.375c-2.14 2.994-4.872 5.384-7.75 7.625l-1.875 2.5c-5.133 4.186-9.958 8.496-15.375 12.375l-1.75 2-3 1.625-2.5 2.375-1.75.75-1.625 1.75c-6.812 4.22-13.42 8.62-20.375 12.625l-2 .625c-5.25 3.136-11.424 5.943-17 8.75l-2.5.5-1.5 1-3 .75-3.125 1.75-2.625.375c-8.498 3.35-18.605 5.516-28.25 7.75l-3.875.125c-3.797.864-8.834 1.07-13 1.875l-7.75.5-10.875.5-12.125.5c-4.998.935-10.106-.29-15 .625h-3.375c-4.458.822-9.063-.03-13.375.75h-4.625c-4.27.788-8.893-.106-12.875.5-6.196.943-12.655-.19-19 1l-4.625.125-6.375.125c-2.047.343-5.102.402-7.5.5H401c-1.892.37-5.702.664-7.5.375l-8.5.25c-5.012 0-10.56.343-14.875-.625l-2 .125-4-.625H361c-3.26-.688-7.156-1.066-10.625-1.875l-4.375-1.5-2.75-.25-2.375-1.125c-1.75-.515-3.086-.49-4.625-1.125l-1.5-.875c-1.26-.43-2.43-.177-3.5-.625-.435-.182-.88-.685-1.25-.875l-4.75-1.375-1.75-1.125-2.75-.5-2.375-1.5c-3.098-1.21-5.597-1.857-8.625-3.125l-2.5-1.625-4-1.25-2.125-1.5-2.75-.75c-1.115-.57-2.01-1.608-3.25-2.125l-3.375-1.125-2-1.5c-1.02-.41-2.02-.448-2.875-1l-1.75-1.5-3.875-1.375-2.5-2-2.5-.875-2.5-2.125-3.5-1.25c-.992-.513-1.723-1.665-2.625-2.25-1.295-.84-2.6-1.123-3.75-2l-1.75-1.625-3-1.125c-.976-.605-1.59-1.752-2.5-2.375l-2.25-1-3.375-3-2.25-.875c-1.265-.774-1.98-2.203-3.125-3l-2.25-1.125-3.25-3.125c-.97-.653-2.096-.83-3-1.5-.778-.577-1.272-1.48-1.875-2.25-.563-.718-1.614-.965-2.375-1.5l-3.5-3.5c-1.215-.806-2.62-1.137-3.5-2.25-1.46-1.85-3.007-2.956-4.75-4.5l-2.25-2.625c-1.337-.947-2.765-1.476-3.75-2.75l-1.5-2.25c-1.122-.93-2.598-1.615-3.5-2.75-.482-.606-.83-1.444-1.375-2-.977-.996-2.508-1.383-3.375-2.5-.67-.865-1.084-1.854-1.75-2.75l-3.375-2.75-2-2.875c-.99-.734-2.136-1.284-2.875-2.25l-2.125-3.375-3.125-2.75-1.375-2.25-3-2.625-2.25-3.75-2.75-2.375-1.875-3.125-2.625-2.375c-.963-1.26-1.426-2.808-2.375-4.125l-2.5-2.25c-.767-1-1.12-2.195-1.875-3.25l-2.75-2.625-2.375-4.5c-.71-.913-1.944-1.527-2.625-2.5-.668-.956-.838-2.112-1.5-3.125l-2.875-3-2.125-4.25c-.778-.962-1.95-1.658-2.625-2.75l-1.5-3.25c-.783-1.095-2.014-1.928-2.75-3.125-.766-1.247-1.034-2.52-1.75-3.875l-2.5-2.75c-.75-1.124-.85-2.585-1.625-3.75-.824-1.236-2.075-2.292-2.875-3.625L138 589.875c-.744-1.114-1.974-1.998-2.625-3.25-.51-.983-.532-2.132-1.125-3.125l-2.375-2.875c-.93-1.493-1.076-3.235-2-4.875l-2.125-2.5c-.846-1.306-.856-3.146-1.75-4.5-.887-1.343-2.175-2.537-2.875-4.125l-1.25-3.625c-.586-.9-1.613-1.782-2.125-2.75l-1.5-4.5c-.743-1.134-1.856-2.236-2.5-3.5-.664-1.303-.596-3.062-1.375-4.375-.82-1.38-1.952-2.615-2.625-4.25l-.625-2.75c-.593-1.482-2.095-2.81-2.75-4.375-.512-1.223-.402-2.567-1-3.875-.53-1.16-1.713-2.215-2.25-3.5-.527-1.26-.422-2.657-1-4l-2.25-3.5c-.743-1.453-.585-3.07-1.25-4.75l-2-3.25c-.577-1.37-.48-2.665-1-4.25l-2.25-3.75c-.734-1.497-.46-3.18-1.125-4.875l-1.875-3.125c-.622-1.52-.37-3.186-1-4.875-.48-1.285-1.734-2.595-2.25-4-.5-1.358-.246-2.742-.75-4.25-.475-1.42-1.626-2.793-2.125-4.375l-.625-3.875c-.447-1.197-1.495-2.457-2-3.75-.572-1.466-.22-2.916-.75-4.625L81 462c-.447-1.414-.187-2.78-.625-4.375-.4-1.452-1.678-2.903-2.125-4.5-.39-1.39-.024-2.704-.5-4.25l-1.75-3.75c-.464-1.424-.067-2.755-.5-4.375-.347-1.296-1.436-2.625-1.875-4-.498-1.56-.085-3.255-.625-5-.398-1.286-1.394-2.67-1.75-4.125-.332-1.354.064-2.65-.375-4.125l-1.75-3.875c-.476-1.524-.03-3.094-.5-4.875-.377-1.425-1.367-2.907-1.75-4.5L66.5 406c-.45-1.314-1.387-2.704-1.75-4.25-.33-1.404.155-2.945-.25-4.5L63 393.5c-.486-1.546.09-3.23-.375-5-.327-1.243-1.15-2.72-1.5-4.125-.416-1.67.3-3.467-.125-5.125-.385-1.506-1.025-3.176-1.375-5v-3.75c-.36-1.235-1.07-2.778-1.375-4.25-.352-1.693.257-3.688.375-4.875L58 358.5c-1.408-.748-3.486-.575-5.25-1l-7-2c-9.55-3.918-17.81-9.86-23-18.125-4.263-6.79-9.386-20.15-6.875-32.25.752-3.623 1.423-7.153 2.5-10.5 3.544-11.01 8.446-21.143 12.875-31.375 6.954-16.062 13.844-32.06 20.75-48 12.83-29.614 25.73-59.147 38.5-88.625 8.076-18.64 15.27-37.78 30.875-48.875 17.494-12.438 46.47-16.006 69.75-22.75 26.378-7.642 53.33-13.338 80.25-20.375 3.595-.94 7.093-.51 11.125-1.25l5.5-.125 6.25.75c7.227-1.66 14.585-3.887 21.5-5.75 14.033-3.78 28.155-7.17 42-10.875 8.184-2.19 16.58-3.38 25.375-5 3.905-.72 7.308.397 10.875-.25 1.63-.296 3.38.553 4.75-.125zm170 293.625l-8.625 1-18.25 3.125c-2.048.434-8.42.647-9.5 1.75-.658 1.018-.468 2.76-.75 4.125-.703 3.408-1.594 8.012-.25 11.375.945 2.365 2.596 4.225 3.875 6.25 4.11 6.51 8.744 12.467 9.625 22.25.426.272.586.375 1.375.375l9.875-1.5c9.645-2.136 22.28-1.733 29-6.875 4.955-3.79 6.92-14.3 4.75-22.5-2.686-10.153-8.465-19.117-21.125-19.375zm-64.5 10.125c-2.088 1.142-6.51.93-9.125 1.5-11.43 2.493-26.057 1.813-30.75 11.125-2.035 4.04-2.596 11.307-1.25 16.5 2.243 8.656 5.944 16.002 13.625 19.125 4.16 1.692 11.194.774 15.5-.125l31.375-4.625c.168-.324.227-.436.25-1-1.134-2.077-.86-4.97-2-6.875-2.533-4.23-5.41-8.418-8.25-12.5-1.32-1.898-2.91-3.907-3.875-6.125-2.106-4.844-2.952-11.1-4.125-16.75l-.375-.125-1-.125z"/></svg>