<svg xmlns="http://www.w3.org/2000/svg" width="358" height="364"><path fill-rule="evenodd" d="M141.667 4.475c.846-.246 1.566-.17 2.364-.24 1.156-.102 2.156-.794 3.355-.82.634-.016 1.503.092 2.09.08 1.468-.034 2.824-.572 4.228-.522 1.004.036 2.39.327 3.43.31.79-.01 1.354-.296 2.066-.216.415.047.786.3 1.147.407l.964-.03 1.687.378c.576-.04 1.152-.08 1.728-.122.535.06.958.443 1.436.568l1.44.143 1.275.432 1.503-.06c.477.09.843.454 1.267.617.63.24 1.342.19 2 .41l.993.51 1.535.053 1.788.955 1.085.18c.466.15.818.526 1.243.745.6.31 1.462.267 2.087.507.457.256.914.512 1.37.77.42.123.84.248 1.26.373.407.29.813.582 1.22.873.693.25 1.346.37 2.005.65l1.33.84c.42.17.876.24 1.236.504l1.12.96c.663.37 1.473.48 2.086.933l.873.727c.477.216 1.018.255 1.436.568l1.17 1.13c.638.326 1.277.652 1.916.98l1.065.975c.368.248.89.287 1.252.56l1.376 1.435 1.355.713c.237.176.377.418.68.477.515.087 1.367-.626 1.764-.86l3.608-1.866c.528-.306 1.45-.815 2.165-.73.423.052.644.446 1.01.567.833.276 1.69.156 2.376.67.492.367.7.82 1.16 1.313.545.583 1.364.965 1.92 1.646.25.376.497.752.744 1.128l1.234.93 1.11 1.57c.53.458 1.194.827 1.674 1.413l.846 1.28c.572.512 1.26.88 1.777 1.566 1.166 1.542 1.95 1.924 2.257 4.347l.502 1.135c.116 1.18-1.856 4.664-2.356 5.887-.242.59-1.028 1.1-.868 1.884.886.578 1.323 1.528 1.99 2.54l1.505 1.46c.443.568.484 1.37.94 2.043l1.13 1.2c.27.532.54 1.064.812 1.595.404.534 1.077.94 1.48 1.588.342.55.33 1.23.707 1.867l1.102 1.33.7 1.626c.335.515 1.003.978 1.352 1.564.343.576.305 1.286.667 1.938l1.08 1.46.675 1.753c.31.47.886.94 1.207 1.484l.7 2.05.99 1.363.587 1.657c.296.503.835.99 1.166 1.555.343.584.307 1.466.715 2.107.265.416.725.875.99 1.362.294.535.233 1.083.5 1.56.38.48.758.96 1.136 1.442.367.62.325 1.47.73 2.164l1.007 1.418.603 1.713c.3.47.845.948 1.15 1.5.34.61.274 1.3.596 1.897l.99 1.362c.202.57.403 1.142.604 1.714l1.167 1.555c.35.594.322 1.44.714 2.107l.99 1.362.605 1.714c.317.5.842.97 1.166 1.555.327.59.312 1.402.7 2.05.765 1.288 2.01.983 3.288 1.324 1.595.425 3.05 1.033 4.533 1.64 3.81 1.562 7.498 5.59 10.028 9.513 5.493 8.514 3.71 19.1-.712 24.258-2.497 2.913-5.627 4.51-9.687 6.613l-5.693 2.453-27.478 12.285c-5.74 2.98-12.29 3.692-16.813 2.238-5.198-1.67-9.394-5.278-12.693-10.342-4.704-7.22-4.29-16.896-.993-21.895-.386-1.456-1.145-1.98-1.722-3.1l-.547-1.73c-.276-.438-.74-.935-1.022-1.475l-.42-1.28c-.346-.59-.94-1.126-1.303-1.82l-.443-1.576-1.006-1.42-.588-1.656c-.3-.467-.836-.93-1.15-1.5l-.7-2.05c-.295-.507-.762-1.03-1.07-1.644l-.404-1.223c-.27-.43-.74-.86-1.047-1.345-.396-.628-.37-1.51-.715-2.108-.252-.44-.735-.918-1.006-1.418l-.452-1.392c-.338-.585-.927-1.09-1.287-1.764l-.563-1.786-1.006-1.418-.556-1.544c-.287-.455-.81-.94-1.135-1.443-.375-.58-.34-1.323-.65-1.884l-.96-1.25-.645-1.64-1.103-1.33-.9-2.116c-.274-.34-.726-.706-.984-1.12l-.684-1.57c-.402-.56-.994-1.043-1.4-1.733l-.548-1.304-1.01-.992-.915-1.746c-.37-.51-1.007-.908-1.393-1.492l-.694-1.384-1.328-1.267c-.288-.395-.39-1.03-.815-1.167l-1.118.132c-.67-.09-2.87-.73-3.354-1.122-.458-.37-.705-.91-1.16-1.314-.478-.426-1.138-.74-1.57-1.26-.27-.39-.543-.78-.814-1.17-.376-.32-.914-.557-1.29-.912l-1.183-1.61c-.415-.36-1.002-.656-1.392-1.067l-.83-1.224-1.38-1.01-1.005-1.418c-.363-.45-.977-.753-1.33-1.266-.254-.37-1.153-3.094-1.166-3.5-.013-.423.223-.597.11-1.124-.456-.193-.67-.576-1.05-.92l-1.643-.874c-.494-.372-.8-.93-1.288-1.34-.308-.155-.615-.312-.922-.468-.413-.306-.72-.697-1.137-1.017l-1.797-.772c-.486-.292-.773-.74-1.225-1.113l-1.18-.52-1.305-.968c-.452-.154-.86-.152-1.26-.375-.558-.31-1.037-.918-1.61-1.187-.523-.246-1.117-.302-1.58-.65l-.73-.645-1.468-.255-1.62-1.003c-.482-.165-.94-.188-1.388-.4-.304-.217-.61-.435-.913-.653l-1.31-.12-1.297-.727c-.453-.096-.905-.19-1.357-.287l-1.556-.777c-1.423-.33-2.756-.4-4.127-.845-.582-.19-1.814-.91-2.513-.51-.103.142-.07.188-.002.427.87.88 1.475 4.258 1.77 5.64.63 2.968.616 5.972.348 8.588-.084.996-.17 1.992-.253 2.988l.59.805c.13.29-.126.463-.075.81.262.145.54.196.697.534.343.368.088.77.148 1.174.22.067.32.167.505.284 1.224 4.02 1.694 8.867-.5 12.048-.573.83-1.295 1.592-2.09 2.29-.36.313-.967.47-1.082.91l-.33 4.225-1.08 10.207c-1.505 13.76-2.417 27.573-4.08 41.244-1.534 12.622-1.123 25.873-8.873 35-3.28 3.86-7.72 6.517-12.985 9.362l-.01.184c-.226 1.114 1.217 2.886 1.59 4.353.245.962.743 1.41 1.172 2.222.22.707.44 1.415.658 2.122.328.525.878 1.088 1.214 1.724l.674 2.18c.41.7.966 1.347 1.413 2.215l.42 1.28c.398.62 1.052 1.214 1.462 1.958l.667 1.94c.27.446.82.952 1.134 1.442l.843 2.132c.426.558 1.085 1.106 1.487 1.83l.635 1.826c.337.572.98 1.113 1.342 1.748l.675 1.754c.322.525.977 1 1.352 1.564.434.656.487 1.575.946 2.286.388.6 1.025 1.112 1.43 1.845.21.528.42 1.057.628 1.585.39.56 1.1 1.07 1.512 1.7.402.617.38 1.286.795 1.965.3.488.912.957 1.265 1.467l.924 1.988c.457.57 1.16 1.075 1.598 1.798l.732 1.738c.356.538 1.033 1.004 1.424 1.604l.788 1.723c.392.516 1.09.946 1.52 1.516.423.56.487 1.2.893 1.875l1.392 1.49c.408.532.452 1.153.86 1.764.356.532 1.14.96 1.577 1.5.455.563.577 1.308 1.037 1.956.39.55 1.11.966 1.537 1.573l.813 1.593c.428.52 1.174.904 1.633 1.485.41.52.493 1.084.9 1.69.423.628 1.226 1.082 1.713 1.766l.766 1.425c.496.547 1.27.924 1.777 1.565l.852 1.522 1.546 1.388c.38.48.468 1 .853 1.522.472.638 1.407 1.033 1.94 1.703l.908 1.505c.418.457 1.097.754 1.514 1.276l.982 1.547c.512.468 1.19.834 1.714 1.34.38.562.76 1.123 1.142 1.684.475.433 1.128.726 1.57 1.26.31.46.622.92.934 1.378.506.45 1.187.81 1.698 1.284l1.183 1.612c.42.373 1.02.64 1.45 1.05.395.378.53.888.918 1.32l2.003 1.504 1.08 1.458c.397.353 1.01.563 1.417.938.378.48.757.96 1.135 1.442.532.453 1.268.77 1.81 1.253.374.46.747.923 1.12 1.385.447.398 1.106.596 1.563 1.02.34.41.678.82 1.016 1.232.587.518 1.42.84 2.028 1.374l1.015 1.234c.393.373 1.092.547 1.53.906l1.16 1.314c.403.298.965.442 1.37.77.59.475 1.007 1.11 1.61 1.612.466.388 1.185.52 1.66.93.32.355.644.71.966 1.065.543.43 1.443.756 2.052 1.246l.968 1.064 1.644.875c.34.35.683.7 1.024 1.048.47.35 1.16.434 1.628.818.518.426.89.93 1.417 1.364l1.61.762 1.08 1.033c.432.307 1.092.34 1.525.663l1.617 1.43c.516.345 1.237.397 1.74.785l.905.84c.505.258 1.08.302 1.565.592l1.137 1.017 2.172 1.03c.315.254.63.51.945.766.595.236 1.198.3 1.71.673 1.68 1.235 3.472 2.003 5.403 2.794.448.183.777.58 1.162.888l2.182.844c.304.22.61.437.913.655.447.217 1.05.185 1.502.367.49.198.868.7 1.345.897.666.277 1.354.368 2.006.652.357.155.633.535 1.027.623.49.11.9.068 1.34.23.484.178.86.674 1.33.84l.957.158c.633.205 1.22.658 1.83.883l1.653.263 1.3.728 1.14.165 1.61.76 1.624.153 1.21.63c.44.112.843.013 1.254.135.466.214.93.428 1.396.64.62.05 1.243.097 1.864.145l.922.47 1.438.142 1.25.56 1.592.038c.517.063.952.397 1.42.512.303-.004.605-.01.908-.013.525.07.953.38 1.42.512l1.905.072c.425.055.83.365 1.218.447.558.117 1.088-.104 1.59.038l.964.398 1.888.016 1.075.366 1.134-.076c.416.05.818.335 1.202.39.606-.007 1.21-.016 1.817-.024l.842.188 1.07-.726c1.025-.745 2.057-1.755 2.905-2.64l.975-.64c.445-.508.89-1.018 1.333-1.528l.78-.463c.27-.27.425-.73.753-1l.67-.432c.392-.435.737-1.03 1.162-1.48.27-.197.537-.395.806-.592l.68-1.04c.236-.17.472-.337.71-.504.403-.48.706-1.15 1.187-1.61 1.915-1.834 3.333-4.007 4.99-6.022.18-.374.358-.748.536-1.122l1.048-1.024.85-1.515.622-.6c.17-.36.187-.768.422-1.09l.855-.848c.65-.832 1.303-2.22 1.71-3.215.194-.476.712-.766 1-1.193.34-.5.436-1.193.803-1.684l.59-.712.23-.915c.202-.43.555-.704.847-1.09l.382-1.018c.255-.543.768-.973 1.034-1.506l.27-.988c.18-.44.546-.712.848-1.09.25-.555.497-1.11.746-1.667l.67-.857c.255-.454.297-1.042.626-1.452 1.06-1.322 2.267-2.4 3.398-3.69l1.01-1.377c.39-.382.776-.55 1.137-.93l.34-.52.78-.462c.436-.497.92-1.18 1.43-1.617l.772-.277c1.605-1.03 3.21-2.26 5.044-3.242l6.23-2.48 2.39-.794c1.558-.79 3.542-1.087 5.393-2.003l1.616-.515 6.222-2.297 1.786-.562c1.19-.625 3.015-.913 4.467-1.62 3.49-1.703 7.997-2.655 11.076-2.327.715.078 1.424-.002 2.024.283 1.422.676 3.83 3.383 3.56 5.742-.054.467-.265 1.01-.328 1.43-.1.672.11 1.214-.032 1.83-.094.414-.405.774-.59 1.14-.22.43-.19 1.063-.37 1.5l-.622 1.025-.312 1.485c-.13.372-.548.633-.695.985-.175.422-.156.87-.374 1.26-.286.425-.57.85-.857 1.274-.233.617-.295 1.23-.66 1.765-.196.236-.392.474-.59.71l-.3.876c-.33.478-.663.956-.994 1.434-.585 1.62-1.513 3.042-2.526 4.416l-.528 1.364c-1.782 2.536-3.41 5.088-5.36 7.522l-.535 1.122-1.145 1.112-.826 1.387-.693.56-.51.994c-2.535 2.764-4.955 5.583-7.58 8.268-.275.178-.55.356-.823.535-1.968 2.078-4.394 4.124-6.55 6.095-.355.18-.71.36-1.064.542l-.55.64-1.255.718-1.186 1.185-1.135.5c-3.405 2.587-7.684 4.843-11.747 7.072l-1.73.547c-1.6.87-3.844 1.6-5.62 2.49l-3.428 1.208-4.836 1.604-5.4 1.76c-2.134 1.056-4.59 1.15-6.68 2.184l-1.52.427c-1.904.936-4.087 1.136-5.93 2.033l-2.085.586c-1.824.896-4.02 1.08-5.737 1.857-2.672 1.21-5.725 1.518-8.433 2.857l-2.068.643-2.857.864c-.878.414-2.248.828-3.315 1.176l-1.972.554c-.805.406-2.484 1.022-3.33 1.12l-3.8 1.19c-2.257.634-4.714 1.492-6.78 1.603l-.885.31-1.882.225-1.408.396c-1.556.103-3.36.427-5.024.502l-2.16-.12c-.425.077-.848.156-1.272.235-.404-.07-.808-.138-1.212-.206-.854-.01-1.453.17-2.227.078l-.786-.204c-.622-.034-1.117.23-1.656.162-.22-.027-.483-.197-.673-.235-.772-.005-1.543-.01-2.315-.017l-.93-.285c-.435.04-.87.083-1.303.124l-1.26-.375c-1.55-.152-2.758-.127-4.283-.314-.444-.14-.888-.277-1.332-.415-.653-.02-1.307-.038-1.96-.057-.383-.134-.765-.27-1.148-.405l-1.334.01c-.575-.114-1.11-.47-1.733-.544l-1.663-.078-1.092-.423c-.51-.057-.967.054-1.422-.087l-.978-.453-1.92-.13c-.46-.193-.92-.388-1.38-.583-.412-.025-.825-.05-1.237-.077l-1.396-.64-1.735-.12c-.512-.105-.987-.53-1.468-.68-.69-.214-1.315-.176-1.943-.426l-.995-.51-1.494-.126c-.516-.15-.938-.588-1.427-.753l-1.14-.166-1.9-.924-1.125-.11c-.668-.187-1.17-.74-1.788-.954L160.5 340c-.62-.33-1.24-.663-1.86-.995-.52-.17-1.048-.108-1.54-.296-.424-.162-.76-.507-1.13-.776-.345-.253-.85-.23-1.26-.375-.674-.38-1.347-.756-2.02-1.134-.65-.21-1.326-.18-1.863-.57-.892-.648-1.73-.95-2.71-1.424-.45-.3-.897-.6-1.346-.898-.72-.257-1.432-.314-2.037-.763l-.96-.822c-.624-.277-1.376-.4-1.926-.795-.294-.212-.557-.545-.873-.727-.566-.325-1.305-.305-1.837-.698-.412-.305-.724-.698-1.137-1.017l-1.87-.81c-.42-.347-.843-.694-1.264-1.04-.54-.207-1.125-.31-1.58-.65l-1.386-1.25-1.756-.844-.904-.84-1.685-.8c-.496-.47-.992-.937-1.488-1.405l-1.54-.72-1.24-1.17c-.495-.245-.99-.49-1.484-.737-.594-.446-.998-1.083-1.593-1.557l-1.41-.696c-.474-.354-.784-.847-1.258-1.226l-1.57-.834-1.642-1.726c-.435-.32-1.07-.44-1.5-.793-.42-.345-.644-.844-1.07-1.216l-1.676-.987-1.496-1.645c-.472-.335-1.088-.5-1.53-.906l-1.088-1.274c-.492-.394-1.152-.613-1.635-1.06-.503-.463-.785-1.003-1.28-1.522l-1.474-.922c-.48-.41-.71-1.057-1.207-1.483-.527-.452-1.225-.77-1.754-1.268-.41-.513-.816-1.027-1.224-1.54-.476-.407-1.143-.65-1.594-1.13-.355-.38-.51-.894-.903-1.266-.48-.33-.957-.66-1.435-.993-.61-.554-.895-1.32-1.52-1.942-.424-.285-.85-.57-1.273-.856-.547-.482-.784-1.31-1.36-1.806-.568-.493-1.3-.867-1.817-1.494-.34-.49-.68-.983-1.022-1.474-.378-.33-.952-.598-1.306-.97l-1.246-1.836c-.477-.417-1.118-.772-1.568-1.26-.465-.503-.657-1.303-1.174-1.796-.544-.517-1.21-.93-1.72-1.58l-.63-1.16c-.456-.593-1.3-1-1.794-1.623-.386-.485-.507-1.104-.942-1.617-.385-.455-1.052-.78-1.457-1.29-.397-.503-.527-1.145-.957-1.676l-1.457-1.29c-.518-.562-.652-1.31-1.164-1.982l-1.313-1.21c-.434-.545-.554-1.14-.99-1.788l-1.488-1.404c-.52-.58-.61-1.373-1.124-2.053l-1.24-1.17c-.472-.605-.57-1.388-1.068-2.07-.38-.517-1.11-.948-1.52-1.515-.397-.548-.46-1.204-.877-1.82-.394-.58-1.086-1.05-1.51-1.7-.26-.556-.516-1.11-.774-1.667-.352-.482-.984-.917-1.375-1.435-.444-.588-.47-1.286-.924-1.988l-1.335-1.508c-.38-.58-.436-1.228-.835-1.89-.364-.605-1.124-1.096-1.528-1.758-.35-.578-.353-1.216-.763-1.852l-1.265-1.467c-.39-.582-.38-1.232-.78-1.907-.32-.54-.98-1-1.35-1.563-.423-.64-.452-1.456-.916-2.173-.343-.53-.967-1.026-1.312-1.636-.32-.567-.307-1.2-.692-1.81l-1.28-1.523c-.406-.626-.404-1.39-.842-2.132-.35-.595-.984-1.137-1.358-1.805l-.708-1.867c-.37-.535-.967-1.042-1.326-1.692-.327-.59-.304-1.345-.683-1.994l-1.152-1.5c-.415-.634-.37-1.466-.802-2.204-.305-.518-.863-1.08-1.2-1.668-.398-.698-.303-1.6-.704-2.292-.365-.63-.864-1.3-1.253-2.078-.16-.563-.318-1.126-.476-1.69-.32-.51-.834-1.114-1.158-1.738-.373-.718-.352-1.694-.45-2.244l-.645-1.215c-.728-.16-1.642.182-2.49.215l-3.408-.014c-4.8-.555-9.273-2.184-12.658-5.25-2.78-2.516-6.782-7.885-7.183-13.653-.12-1.727-.265-3.4-.203-5.045.202-5.41 1.126-10.593 1.826-15.763 1.098-8.115 2.175-16.194 3.268-24.248 2.03-14.965 4.1-29.9 6.12-44.796 1.276-9.418 2.092-18.95 7.718-25.925 6.306-7.82 18.91-13.1 28.543-19.087C64.488 43.37 75.91 37.388 87.147 30.807c1.5-.88 3.13-1.13 4.854-1.973l2.462-.753c.97-.15 1.94-.302 2.91-.454 3.046-1.663 6.08-3.598 8.96-5.314 5.842-3.48 11.776-6.797 17.544-10.22 3.41-2.024 7.042-3.624 10.8-5.468 1.667-.82 3.342-.747 4.867-1.49.696-.34 1.593-.18 2.124-.66zm113.79 110.702c-1.254.515-2.507 1.03-3.76 1.543l-7.826 3.72c-.867.456-3.712 1.36-4.058 1.993-.168.542.14 1.303.185 1.953.115 1.624.296 3.81 1.328 5.155.726.946 1.705 1.575 2.538 2.324 2.677 2.41 5.52 4.507 7.155 8.802.226.068.31.094.667-.006l4.26-1.927c4.074-2.184 9.817-3.604 12.194-6.77 1.75-2.337 1.304-7.318-.712-10.737-2.496-4.232-6.235-7.537-11.972-6.05zm-27.778 12.734c-.797.78-2.817 1.245-3.922 1.833-4.833 2.57-11.51 4.118-12.445 8.907-.405 2.077.263 5.422 1.527 7.59 2.107 3.614 4.706 6.454 8.562 6.887 2.09.235 5.14-1.07 6.967-2.02l13.55-6.06c.034-.166.046-.225-.015-.48-.774-.793-1.017-2.13-1.772-2.844-1.677-1.585-3.504-3.106-5.3-4.585-.836-.687-1.807-1.39-2.522-2.267-1.562-1.914-2.735-4.624-3.98-7.02l-.185-.01c-.155.024-.31.048-.466.07z"/></svg>