<svg xmlns="http://www.w3.org/2000/svg" width="570" height="760"><path fill-rule="evenodd" d="M358 9.25c2.776.042 5.97-.35 8.75.25 4.194.906 8.36 1.74 12 3.25 11.038 4.58 19.988 13.063 26.875 21.875 5.58 7.14 12.288 13.433 17.875 20.625l3.125 3.375 2.375.25c1.112.258 2.568.757 3.75 1.25.836.35 2.838 1.2 3.625 1.75l1 1.25c1.437.75 2.044.345 2.75 2.375 2.224.027 1.76 1.687 2.625 2.625 1.243.658 1.136.684 2 1.625L444.5 71c.382.203.893.335 1.375.5.345.64.683.906.75 1.875-.313.257-.298.21-.375.75l.375.375c.587.296.85.115 1.125.75.64.89.108 1.44 0 2.5.582.327 1.124.406 1.25 1.25.196.277.34.928.25 1.125-.24.503-.477.464-.625 1.125.375.23.794.456 1 .875.25.385.312 1.19.375 1.75-.438.293-.656.453-.75 1.125 1.136.668 1.77 2.274 2.625 3.25 2.103 2.398 4.275 4.708 6.25 7.25 6.688 8.608 14.666 16.24 21.375 24.875 3.068 3.948 6.705 7.613 10 11.375 13.75 16.123 27.5 32.252 41.25 48.375 9.37 12.126 21.33 21.893 26.625 38.125 3.13 9.594 1.995 22.045-1.5 30.375l-3.125 6c-.604.93-1.832 1.987-2.125 3.125l-.25 4.125c-.65 3.53-.714 9.546-.25 13 .202 1.502-.415 3.805.25 4.875l1.75 1.125 1.75 1.875c1.6.886 2.496.542 3.625 2 1.363 1.76 2.49 3.62 3 6.25l-.25 2.875c.253 1.3 1.352 2.112 2 3 .782 1.072 1.422 2.98 1.75 4.375.697 2.96-.758 4.994-.875 7.25 1.677 1.934 3.323 5.963 2.25 9.75-.357 1.262-1.248 2.073-1.375 3.5 1.762 1.956 2.595 6.302 1.5 9.625-.428 1.3-1.43 1.834-1.5 3.5 1.308 1.658 2.005 6 1 8.75-.533 1.46-1.905 2.354-2 4.125 2.88 3.23.113 9.927-1.75 11.75.073 1.14.546 1.65.75 2.5 1.058 4.403-1.433 8.09-3.25 9.875.04 1.085.335 1.664.5 2.5.864 4.37-1.86 7.772-3.75 9.625.053 3.292.206 6.213-1.125 8.625-.637 1.155-2.497 2.07-2.875 3.25v3.375l-1 3.75c-.752 1.79-2.65 2.593-3.375 4-.768 1.29-.486 4.36-1.125 6-.922 2.365-2.6 3.525-4.25 5.125-.123 3.122-1.317 6.787-3 8.5-.68.692-2.396 1.192-2.75 2.125-1.024 2.693-1.097 5.197-2.625 7.25-.72.966-3.07 1.946-3.5 2.75l-.5 2.125-2.375 4.75c-.93 1.255-3.084 1.746-3.875 3l-.625 2.125c-.535 1.202-1.455 2.866-2.25 4l-2.625 2.25-1.625.75-.625 2c-.85 1.683-2.41 3.72-3.75 5l-3.5 2.125-.625 1.75c-.945 1.577-2.532 3.276-3.875 4.5l-3.375 1.75-2 3.25c-1.714 1.997-4.213 2.917-6.375 4.5l-3.25 3.75c-2.12 1.618-4.4 2.712-6.625 4.25-1.162.803-1.904 2.31-3.125 3.125-5.982 3.998-11.65 8.003-17.625 12l-1.5 1.5c-2.29 1.61-4.616 2.722-6.875 4.375-3.29 2.408-6.598 5.24-10 7.5-9.455 6.282-18.53 12.99-27.625 19.625-1.407 1.027-3.04 1.5-4.5 2.5-2.096 1.434-4.202 3.492-6.5 4.75l-3.125 1.375-1.875 1.875-3.125 1.375-2 1.375-3.125 1.125c-1.324.91-2.18 2.174-3.875 2.875-1.645.68-3.212 1.294-4.75 1.75l-1.75.25c-.98.502-1.777 1.932-2.875 2.5-1.695.877-4.644 1.176-6.5 1.625l-1.625.125c-1.337.614-2.326 2.09-4 2.625-2.364.754-5.05-.218-7.375.625-.3.11-.295.45-.5.625-.992.85-2.697 1.547-4.125 1.875-2.41.553-4.603-.622-6.75.125-1.253.436-2.488 1.78-4 2.25-2.17.677-5.515-.553-7.25 0-1.702.543-2.394 2.103-4.875 2.25-.83 1.256-1.573 2.59-2.625 3.625.218 1.69 1.345 3.73.875 6.125-.19.965-1.767 4.666-1.75 4.75l1.25 1.75.875 3.75c.323 1.452-.803 5.042-.75 5.125.305.606.99.742 1.375 1.25.83 1.09 1.606 2.994 2 4.375l.25 3.875-.375 1.125c.16.592 1.284.684 1.75 1l1.875 2.375c.827 1.317 1.367 2.89 1.75 4.625v2.375c.42.75 1.568.642 2.25 1.125 1.273.9 2.915 3.228 3.5 4.75.26.68.576 3.98 1 4.25l2.375.75c1.538.95 3.197 3.08 4 4.75.468.973.372 3.232 1 3.75l2.25.125c1.565.522 3.638 2.798 4.5 4.125.632.972 1.055 4.243 2.25 4.375 1.002-.666 2.223.317 2.875.75 2.077 1.378 3.453 2.595 4.625 4.875.364.71.256 2.165.875 2.625.243.13 1.843-.31 2.625 0 1.213.482 2.148 1.77 3.5 2 .332-.473.55-.615 1.375-.625.72.637 1.657.828 2.5 1.375 2.73 1.77 5.636 3.27 8.5 5 9.407 5.677 19.165 11.262 28.375 17.125 6.162 3.923 12.968 8.495 14.625 16.875.638 3.226-1.832 7.88-2.75 10-.966 2.23-1.76 4.738-3.25 6.5-2.278 2.692-5.078 4.588-7.625 7-3.068 2.906-6.392 5.65-9.75 8.25-6.59 5.105-12.69 10.91-19.25 16.125-3.894 3.095-6.9 6.496-12.25 8.25-6.266 2.053-14.875.433-20.375-1.75-13.91-5.522-25.146-12.78-37.125-20.125-3.842-2.356-7.733-4.567-11.5-6.875-1.174-.72-3.374-1.285-4-2.5-.224-.57.22-1.18.125-1.875-2.628-1.298-4.385-3.324-5-6.75-4.133-1.19-6.576-2.488-8.75-5.5-.476-.66-.588-2.987-1-3.375-.762-.29-1.856-.248-2.75-.625-1.88-.794-5.255-4.008-6-5.875l-.375-2.875c-3.525-.58-7.695-4.46-8.5-7.625l.125-2.375c-.507-.94-2.643-1.246-3.5-1.875-1.66-1.218-3.642-4.09-4.25-6.25-.36-1.276.293-2.29.375-3.25-3.328-1.755-5.1-3.432-6.375-7.25-.204-.612-.815-1.51-.5-2.625l.875-1.875c-2.883-1.85-4.42-3.523-5.375-7.375l-.5-2.125c.193-1.494 1.173-1.93 1.375-3.25-2.157-2.104-3.995-3.8-4-8.125l.125-2.375c.38-1.038 1.53-1.228 1.75-2.375-1.773-2.595-3.627-6.65-1.75-10.5.452-.928 1.796-1.134 2.125-2.125-1.503-2.848-1.624-7.44.125-10 .626-.915 2.248-1.015 2.5-2.25l-.125-2.5c-.482-2.705.456-5.45 2.125-6.75.822-.64 2.357-.666 2.5-2-.22-.593.31-2.068.5-2.75 1.078-3.897 1.817-5.237 5.625-6.375.927-3.193 1.465-5.654 3.75-7.375.796-.6 2.615-.735 3.25-1.5 1.157-1.395 1.9-3.57 3.375-4.625 1.074-.77 2.317-1.022 3.5-1.75.706-.435 1.266-1.513 2-2 2.45-1.625 4.828-2.722 7.25-4.375 5.59-3.816 11.3-7.892 16.875-11.75 2.97-2.055 5.963-4.04 8.875-6 .924-.622 2.3-.798 2.875-1.75l.125-.375h-.375l-4.125-.875c-1.617 1.85-6.265 2.01-9 1.125-1.076-.348-1.743-1.038-3.125-1.125-1.67 1.84-6.54 1.477-9 .5-1.067-.424-1.83-1.277-3.125-1.375-2.1 1.774-7.206.907-9.625-.25-1.01-.482-1.16-1.404-2.625-1.5-2.34 1.884-7.552.03-9.5-1-.893-.473-1.173-1.458-2.375-1.625-3.684 2.287-9.736-1.545-11.5-3.375-4.997.89-9.656-.842-11.625-4.125-3.614 1.57-7.993-1.02-10-2.5-1.05-.774-.764-1.928-2.625-2-.67.447-2.42-.028-3.25-.25-3.377-.906-5.245-2.62-7.125-5-4.65.97-9.554-2.736-10.875-5.625-4.544.028-6.555-1.53-9.125-3.375-2.206-1.584-.078-2.847-4.375-2.875l-3.125-1.25-3.375-2.5c-.853-.648-.982-2.63-2.125-2.875l-2.875-.375c-2.16-.683-3.966-2.37-5.5-3.75-.768-.69-.923-2.3-1.75-2.875L171.25 500c-1.713-.54-3.22-1.502-4.5-2.5l-2.5-2.625c-.33-.57-.21-1.65-.75-2l-2.5-.375c-1.383-.5-2.62-1.32-3.75-2.125l-2.75-2.875c-.454-.687-.395-1.84-1-2.375-.476-.292-1.048-.046-1.75-.25-1.944-.566-3.715-1.965-5-3.25l-2.125-2.375c-.43-.817-.195-2.05-1-2.5-3.665-1.085-6.08-2.357-8.125-5.375-.41-.605-.43-2.548-1-3l-3-.875c-2.506-1.156-6.05-4.37-5.875-7.75-.79-.424-2.044-.45-2.875-.875-2.377-1.212-6.147-4.68-6.125-8.25-.5-.292-1.054-.246-1.75-.5-2.097-.765-4.2-2.762-5.375-4.5l-1.5-2.5c-.21-.7.31-1.926-.25-2.25-.55-.32-1.67-.21-2.375-.625-2.645-1.558-5.772-4.442-5.75-8.625-.843-.51-2-.712-2.875-1.25-1.99-1.224-4.23-3.978-5.125-6.25l-.125-2.375c-.46-.644-1.85-.796-2.5-1.25-2.623-1.83-5.564-4.917-5.125-9-3.756-2.098-8.195-4.852-7.5-10.5-3.616-2.063-7.988-5-7.125-10.625-3.187-2.01-6.02-4.232-7.125-8.25-.308-1.12.275-1.91.375-2.75-3.907-2.26-7.15-5.452-6.5-11.125-2.99-1.917-5.63-4.542-6.5-8.5-.28-1.275.383-1.99.5-3-3.095-1.82-5.372-4.524-6.25-8.5-.265-1.2.68-2.363.5-3-.557-.87-1.96-1.2-2.625-2-1.36-1.64-2.462-3.817-3.125-6.125-.42-1.467.648-2.825.5-3.625-.496-.922-1.976-1.286-2.625-2.125-.952-1.23-3.292-5.196-3-7.375.147-1.095.714-1.582.875-2.5-2.096-1.25-6.258-6.102-5.375-10l.875-2-.125-.25c-1.94-.958-5.773-6.415-5-9.75.213-.917.88-1.43 1-2.5-1.945-1.174-5.594-6.21-4.625-10 .23-.897.956-1.365 1.125-2.375-2.107-1.093-5.484-6.585-4.25-10.375l1.25-2c-1.886-1.31-4.96-6.074-4.125-9.875.258-1.175 1.33-1.73 1.625-2.75-2.022-1.254-4.724-6.038-3.625-10.25.285-1.092 1.417-1.42 1.75-2.375-2.234-1.562-4.5-6.337-3.25-10.375.34-1.1 1.445-1.408 1.875-2.375h-.125l-1.75-2.125c-.885-1.684-1-7.625-1-7.625s1.91-1.894 2.125-3.25c-2.323-1.467-3.448-6.595-2.125-10.125.42-1.118 1.9-1.317 2.125-2.5-2.09-1.547-3.31-7.735-1.375-10.625.553-.826 2.002-.922 2.25-2-2.74-1.237-2.496-8.022-1-10.5.51-.847 2.042-.888 2.375-1.875-2.09-2.22-2.386-7.62-.5-10.375.587-.858 2.393-.886 2.625-2-2.295-2.398-1.584-8.022.25-10.375.684-.878 2.295-.493 2.5-1.875-2.03-2.538-.903-7.45.625-9.625.695-.99 2.795-.865 3-2.25-2.972-3.496.397-9.893 4-10.625l.25-1c-2.03-3.31.583-8.15 2.625-9.5.625-.413 1.84-.236 2.25-.875.616-1.352-.467-3.007-.125-4.625.47-2.224 2.072-4.473 3.875-5.375l2-.375c.367-.95-.188-2.4.125-3.875.268-1.265.817-2.693 1.5-3.625.557-.76 1.933-1.932 2.875-2.25.747-.252 1.59.243 2-.25.66-.794.1-2.28.375-3.5.332-1.466 1.222-3.3 2.25-4.125l2.375-1.5c.658-.24 1.655.023 2.125-.375.695-1.196.54-2.67 1.125-4.125 1.16-2.88 3.45-3.908 6.75-4.375 1.804-4 2.545-8.098 8.5-8 1.58-2.74 2.713-6.085 6-7.125l3.25-.375c.61-1.855 3.544-5.317 5.25-6.125 1.21-.573 2.814.017 3.75-.5 1.796-.993 2.654-3.308 4.25-4.5.857-.64 2.07-1.125 3.25-1.375l2.125-.125c2.155-1.016 3.506-3.508 5.625-4.5 1.343-.63 2.692-.212 4.25-.75 2.536-.876 4.52-3.347 7.125-4.375 1.154-.455 2.075.056 3.25-.375l.875-.75 2.25-.75c1.012-.46 2.13-1.325 3.25-1.75 1.163-.44 2.153-.35 3.5-.75 1.897-.562 4.21-1.585 6-2.375l2.25-.375c2.28-.69 4.405-1.214 6.875-2 15.106-4.805 30.473-9.16 46-13.5l2.5-1.125c2.635-.78 4.784-.915 7.375-1.875l1.625-.875c1.23-.396 2.362-.064 3.75-.5l1.625-1 3-.5 1.875-1c1.53-.5 3.596.123 5.125-.375L216.125 18c.9-.36 1.626-.116 2.75-.375l2.375-.875c1.09-.227 3.012.636 4 .375 1.11-.293 2.105-1.314 3.5-1.625l2.25.125c.905-.195 2.218-.808 3.625-.5.542.12 1.368.73 2.125.5.707-.216 1.48-1.008 2.375-1.25 1.645-.444 3.31.162 4.75-.125 1.735-.346 2.97.943 4.25.625 1.022-.253 2.022-1.008 3.375-1.25.996-.178 1.972.338 2.625.5h3.25l1.875.75c.82.098 2.238-.926 3.25-1.125 1.703-.335 6.63 1.11 8 1.5 1.38.392 3.156-1.315 5.25-.875.887.186 1.636.777 2.375 1l2.375.125 2 .875c1.305.193 2.68-1.332 4.75-.875 2.03.448 4.507 1.625 6.625 2.125 1.346.318 3.302-1.12 5.25-.625 1.893.48 4.377 1.783 6.375 2.25.816.19 1.686-.59 2.375-.75h3.75l1.625-.5 7.25.75 23.625-7.125 8.625-1.875 5.25-.5zm-174.625 39.5c-3.35 2.28-7.762.02-12 .5-1.967 2.77-4.974 4.607-8.75 5.25-1.108 2.083-3.698 5.017-6 5.875l-2.75.625-2.375 3.625c-1.41 1.888-3.35 2.53-5.875 3.375-1.293 2.263-2.197 4.767-4.25 6.25l-3.5 1.625c-.27.44-.156 1.195-.375 1.75L135 81.75c-.88.9-3.43 1.667-4 2.5l-.125 1.375c-.423 1.7-1.53 3.97-2.625 5.125-.71.75-3.193 1.865-3.5 2.625v1.75c-.36 1.477-1.183 3.444-2 4.625-.71 1.028-3.48 2.44-3.625 3.5.534.843-.016 2.068-.25 2.875-.525 1.81-1.002 3.204-2 4.5-.752.976-2.345 1.206-2.5 2.75 1.05 1.772-1.234 6.738-2 7.75-.633.835-1.942 1.25-2.25 2.375 1.51 1.95-.4 6.888-1.375 8.25-.554.775-1.68 1.29-2 2.25v.125c.324 1.532.694 3.41.25 5.375l-1.125 3.125c-.555.983-1.837 1.392-2 2.75 1.775 1.915.386 7.35-.625 9l-1.5 1.75c-.2.782.86 1.82 1 2.625.62 3.543-.897 7.28-2.625 9 1.195 2.16 2.118 5.702.875 8.875-.326.833-1.41 1.792-1.625 2.5 0 0 1.48 3.366 1.625 4.125.733 3.86-1.453 5.662-1.625 8.25 1.736 1.218 2.455 5.744 1.625 8.625-.302 1.048-1.102 1.733-1.25 2.875 1.61 1.58 3.157 5.2 2.25 8.75-.283 1.107-1.024 1.843-1.125 3.125 1.96 1.295 3.47 5.354 2.625 8.875-.19.797-.98 2.013-.875 2.625.393.865 1.45 1.177 1.875 2 .965 1.867 1.63 5.223 1 7.75l-.75 2.125c2.168 1.298 4.337 5.06 3.5 9.125l-.75 2.5c2.376 1.147 4.79 5.194 3.875 9.375l-.625 2.125c2.274 1.153 5.004 5.15 4.25 9.125l-.5 2.375c2.678 1.197 3.866 3.7 4.5 6.875.332 1.665-.294 3.06-.375 4.375 4.286 2.283 4.793 5.447 4.5 11.125 4.275 2.253 5.087 5.07 4.875 11 4.337 2.19 5.444 4.952 5.25 10.875 3.56 1.314 4.997 3.827 5.75 7.875.207 1.116-.224 2-.125 2.75 4.28 1.445 6.137 4.805 5.875 10.375l.375.125 2 .5c1.728 1.063 3.294 3.942 3.875 6.125l.125 3.375c.577.482 1.87.346 2.5.75 2.576 1.656 4.148 4.95 4.125 9.25.498.24 1.37.145 2 .375 1.758.64 3.706 3.372 4.375 5.125.316.827.543 4.108.875 4.375l2.25.375c.58.288 1.093 1.008 1.5 1.5 2.227 2.69 2.58 3.403 3.375 7.75 4.405-.057 7.434 4.53 7.375 9 .495.254 1.292.27 2.125.25 3.49 2.164 4.963 4.153 5.875 9h.25l2.25.125c3.403 1.344 4.634 4.738 5.625 8.625 5.607-.06 7.23 4.05 8.375 8.5l.25.125c3.344-.666 6.065 2.113 7.25 4.375.607 1.16.36 3.6 2 3.75 2.094-1.375 6.392 3.383 7 4.75.51 1.15.294 2.98 1.875 3.125 2.2-1.216 6.355 2.857 7.125 4.5.517 1.102.4 2.942 1.875 3.125 1.1-.785 2.563.118 3.25.5 1.542.858 2.942 1.807 3.875 3.25.623.963.68 2.87 1.75 3.375.617.2 1.245-.47 2.25-.25 1.27.278 2.79 1.27 3.75 2 1.304.99 2.688 4.73 3.5 5.125.678.22 1.923-.503 3-.125 1.983.696 4.07 2.213 5.125 3.875.517.815.69 1.98 1.375 2.625.922.528 1.475-.452 2.625-.25l3.375 1.375c1.84 1.037 3.03 4.457 4.25 5 .84.35 2.74-.443 4.125.125 3.636 1.49 3.75 3.73 6.25 5.75 5.727-1.563 7.404 2.38 10.25 5.125.773-.072 1.037-.37 1.625-.5 2.256-.498 4.733 1.005 5.875 1.875 1.348 1.027 1.64 2.965 3.625 3.375.776-.665 1.68-.73 2.75-.5 1.813.388 3 .62 4.25 1.5 1.395.982 1.692 2.743 3.75 3.125 3.99-3.417 8.374 3.3 11.125 3.5 1.563-1.785 5.81-.255 7.125.625l2 1.875 1.875.375c1.057-1.21 4.275-1.023 5.875-.375 1.61.652 2.484 2.135 4.375 2.5 1.374.265 3.248-1.56 5.875-.875 2.23.583 3.378 1.955 6 2.375 2.758-3.276 7.796.28 11.25.5 1.992-2.64 7.89-1.025 10.75-.25 1.23-.368 2.227-1.51 3.75-1.875 2.366-.565 5.134 1.244 7.375.625 1.06-.293 2.222-1.726 4-2.125 2.08-.467 4.723.704 6.75 0 1.263-.528 2.134-1.83 3.625-2.25h3c.735-.175 1.758-.606 2.75-.75h1.25c.926-.4 3.442-2.53 4-3.375.806-1.22.957-2.547 2.125-3.375l3.5-1.875 2.375-5.875c.57-.843 1.7-2.024 2.625-2.5.79-.408 1.593-.356 2.125-1 1.117-1.783.85-4.596 2-6.375.6-.928 1.88-2.236 2.875-2.75.803-.415 1.36-.165 1.75-1 1.195-2.485.525-5.226 2-7.375.87-1.27 3.094-1.878 3.75-2.875.677-1.762-.052-4.637.75-6.625.45-1.112 1.58-2.692 2.5-3.375.566-.42 1.27-.352 1.625-1 .89-1.91-.41-4.55.25-6.625.442-1.39 1.423-3.2 2.5-4 .46-.342.936-.384 1.25-.875.69-1.467-.9-5.044-.25-7.375.36-1.29 1.332-2.95 2.25-3.75.434-.378.838-.32 1.125-.875.54-1.478-1.548-4.34-1-7.125.245-1.245.73-2.682 1.375-3.625.646-.945 1.583-.704 1.625-2.375-1.443-2.398-2.107-6.64-.75-9.5.386-.814 1.703-1.616 1.875-2.375.062-.274-1.882-4.366-2.125-5.625-.4-2.076.26-4.735 1.125-6 .465-.68.93-.396 1-1.625-1.79-2.03-3.746-6.465-2.25-10.5.332-.896 1.142-.98 1.25-2.25-2.28-1.785-4.162-6.177-3-10.5.226-.84 1.275-1.477 1.125-2.25-.3-1.1-.977-1.12-1.5-1.875-.69-.993-1.333-2.457-1.625-3.75-.427-1.892-.135-4.608.625-6.125.552-1.102 1.357-1.004 1.375-2.875-1.282-2.433-2.55-6.24-.875-9.25.693-1.245 2.56-2.262 2.75-3.75l-2.25-4.125c-1.253-2.03-2.953-3.773-4.375-5.625-.742-.967-1.57-2.648-3.125-2.75-.637-.328-1.267-.173-2.125-.375l-6-1.625c-5.227-1.875-9.984-4.257-14.125-7.25-9.034-6.53-17.78-16.693-24.625-25.5l-14-16.125-23-27.375c-1.57-1.796-3.613-3.397-5.5-4.875-4.38-3.43-8.138-8.01-12-12l-6.375-6.625c-5.246-6.7-11.033-12.983-16-20l-6.375-9.5-2.875-4.875L303 166.25l-20.125-24c-7.047-9.095-15.198-17.34-22.25-26.5-5.962-7.744-12.2-14.996-15.5-25.5-1.165-3.71-2.715-11.947-1.875-16.5.33-1.793 2.365-7.16 1.875-8.75-.68-2.203-5.032-5.293-6.875-6.625-1.117-.807-2.573-.975-2.625-2.875v-.625L231 53l-2.125.625c-1.348.317-3.002.172-4.25-.125L219 51.375c-1.415-.25-2.86 1.136-4.875.75-2.59-.496-4.298-1.542-6.75-2-1.826-.34-3.324 1.35-5.625.75-2.14-.558-4.166-1.458-6.375-1.75-1.32-.174-2.81 1.28-4.625 1l-7.375-1.375zM408.5 511.625l2.875-.125c1.05-.434 1.754-1.426 2.875-1.875 1.348-.54 2.52.03 3.875-.25 1.326-.273 2.675-.51 4.25-.5 1.294-2.236 5.257-2.787 8-3.375l2.125-.125c.812-.35 1.09-1.164 1.75-1.625l2.625-1.125.125-.125c1.004-1.26 1.476-3.02 2.75-4 1.348-1.038 3.136-1.348 4.125-2.75l2.25-5c1.026-1.51 2.606-1.938 4.25-2.875 1.164-1.274 1.456-3.21 2.125-5l1.375-2.5h-.375c-.518.584-1.495.78-2.125 1.25-3.277 2.437-6.75 5.04-10.125 7.375l-2.625 1.375c-6.84 4.976-13.866 9.8-21 14.5-3.026 1.993-5.797 4.594-9.125 6.25v.5z"/></svg>