<svg xmlns="http://www.w3.org/2000/svg" width="394" height="525"><path fill-rule="evenodd" d="M247.46 6.39c1.92.03 4.126-.243 6.048.172 2.9.626 5.778 1.202 8.295 2.246 7.63 3.163 13.816 9.023 18.576 15.11 3.856 4.932 8.493 9.28 12.355 14.248l2.16 2.332 1.642.172c.77.178 1.775.523 2.592.864.577.24 1.96.828 2.505 1.21l.69.862c.994.518 1.413.24 1.902 1.64 1.537.02 1.217 1.166 1.814 1.814.86.455.786.473 1.384 1.123l-.173.863c.265.14.618.232.95.345.24.445.473.627.52 1.297-.217.177-.207.145-.26.518l.26.26c.406.203.586.078.777.517.442.614.075.995 0 1.727.403.224.777.28.864.862.137.192.237.642.174.778-.165.347-.33.32-.432.777.26.16.55.314.69.604.174.267.217.824.26 1.21-.302.202-.453.313-.518.777.785.462 1.223 1.57 1.815 2.245 1.452 1.656 2.954 3.253 4.32 5.008 4.622 5.946 10.137 11.22 14.774 17.184 2.12 2.727 4.635 5.26 6.912 7.858l28.513 33.416c6.477 8.377 14.744 15.124 18.403 26.337 2.163 6.627 1.38 15.228-1.037 20.983l-2.16 4.144c-.417.642-1.266 1.373-1.47 2.16l-.17 2.848c-.45 2.438-.495 6.595-.174 8.98.14 1.038-.287 2.63.173 3.368.403.26.806.518 1.21.777l1.21 1.296c1.104.613 1.724.375 2.505 1.382.942 1.216 1.722 2.5 2.073 4.318l-.172 1.986c.175.897.935 1.458 1.383 2.072.54.74.983 2.06 1.21 3.022.482 2.046-.524 3.45-.605 5.01 1.16 1.335 2.297 4.118 1.555 6.734-.247.87-.863 1.432-.95 2.418 1.218 1.35 1.794 4.353 1.036 6.648-.296.898-.988 1.267-1.037 2.418.903 1.145 1.386 4.144.69 6.045-.368 1.008-1.316 1.626-1.382 2.85 1.993 2.23.08 6.857-1.208 8.116.05.787.377 1.14.518 1.726.73 3.04-.99 5.588-2.246 6.82.028.75.23 1.15.345 1.728.597 3.02-1.286 5.37-2.593 6.65.037 2.273.143 4.29-.777 5.957-.44.8-1.726 1.43-1.988 2.246v2.332l-.69 2.59c-.52 1.236-1.833 1.79-2.334 2.763-.53.893-.336 3.013-.777 4.146-.636 1.634-1.797 2.435-2.937 3.54-.085 2.157-.91 4.69-2.074 5.872-.47.478-1.657.824-1.902 1.468-.707 1.86-.758 3.59-1.814 5.008-.497.667-2.122 1.344-2.42 1.9l-.345 1.468-1.643 3.28c-.644.868-2.13 1.207-2.678 2.073l-.433 1.468c-.37.83-1.006 1.98-1.556 2.763-.603.52-1.208 1.037-1.813 1.555-.374.173-.75.346-1.123.52l-.432 1.38c-.588 1.163-1.667 2.57-2.592 3.454-.807.49-1.613.98-2.42 1.468l-.432 1.21c-.653 1.088-1.75 2.263-2.678 3.108l-2.333 1.21-1.383 2.244c-1.185 1.38-2.912 2.015-4.406 3.108l-2.247 2.59c-1.465 1.118-3.04 1.874-4.578 2.937-.803.554-1.316 1.594-2.16 2.157-4.135 2.762-8.053 5.53-12.183 8.29l-1.038 1.036c-1.582 1.112-3.19 1.88-4.752 3.022-2.275 1.664-4.56 3.62-6.912 5.18-6.536 4.34-12.81 8.974-19.096 13.558-.972.71-2.1 1.036-3.11 1.727-1.45.99-2.905 2.412-4.493 3.28-.72.318-1.44.634-2.16.95l-1.297 1.296-2.16.95-1.383.95-2.16.777c-.915.63-1.507 1.502-2.678 1.986-1.138.47-2.22.893-3.284 1.208l-1.21.173c-.676.348-1.227 1.335-1.987 1.728-1.17.605-3.21.812-4.492 1.122-.374.03-.748.058-1.123.086-.924.424-1.608 1.445-2.765 1.814-1.634.52-3.49-.15-5.098.43-.208.077-.203.312-.345.433-.686.587-1.864 1.07-2.85 1.295-1.666.382-3.183-.43-4.667.087-.867.3-1.72 1.228-2.765 1.554-1.5.466-3.813-.383-5.012 0-1.176.374-1.654 1.452-3.37 1.553-.574.868-1.087 1.79-1.814 2.504.15 1.168.93 2.578.604 4.232-.13.665-1.222 3.222-1.21 3.28l.864 1.21.605 2.59c.224 1.002-.555 3.482-.518 3.54.21.418.683.512.95.863.573.753 1.11 2.068 1.383 3.022l.173 2.677c-.086.26-.172.518-.26.777.112.408.89.47 1.21.69l1.297 1.64c.572.91.945 1.997 1.21 3.195v1.64c.29.52 1.083.444 1.555.778.88.623 2.015 2.23 2.42 3.28.18.47.398 2.752.69 2.937l1.642.518c1.063.656 2.21 2.128 2.765 3.282.323.672.256 2.232.69 2.59.52.03 1.037.058 1.556.086 1.08.36 2.514 1.933 3.11 2.85.437.67.73 2.93 1.555 3.022.694-.46 1.538.22 1.99.518 1.434.952 2.385 1.793 3.196 3.368.25.49.176 1.495.604 1.813.168.09 1.274-.214 1.815 0 .838.333 1.484 1.224 2.42 1.382.23-.328.38-.426.95-.433.497.44 1.145.572 1.728.95 1.887 1.223 3.895 2.26 5.875 3.454 6.502 3.923 13.248 7.78 19.614 11.83 4.26 2.71 8.964 5.87 10.11 11.658.44 2.228-1.268 5.444-1.902 6.907-.668 1.54-1.216 3.273-2.247 4.49-1.574 1.86-3.51 3.17-5.27 4.836-2.12 2.01-4.418 3.903-6.74 5.7-4.555 3.526-8.77 7.536-13.306 11.14-2.69 2.137-4.768 4.487-8.467 5.698-4.332 1.42-10.283.3-14.084-1.21-9.616-3.813-17.382-8.827-25.662-13.9-2.656-1.628-5.345-3.156-7.95-4.75-.81-.497-2.332-.888-2.764-1.727-.155-.392.152-.815.086-1.294-1.816-.897-3.03-2.297-3.456-4.663-2.856-.822-4.545-1.72-6.048-3.8-.33-.455-.406-2.063-.69-2.33-.528-.202-1.284-.172-1.902-.433-1.3-.548-3.632-2.768-4.147-4.058l-.26-1.986c-2.436-.4-5.32-3.08-5.875-5.267.03-.548.058-1.095.086-1.642-.35-.65-1.826-.86-2.42-1.295-1.146-.842-2.517-2.824-2.937-4.318-.247-.88.203-1.582.26-2.245-2.3-1.212-3.525-2.37-4.407-5.008-.14-.423-.563-1.043-.346-1.813l.605-1.296c-1.994-1.277-3.056-2.434-3.716-5.095l-.346-1.47c.133-1.03.81-1.33.95-2.244-1.49-1.454-2.76-2.624-2.764-5.613.03-.546.057-1.093.086-1.64.263-.717 1.058-.848 1.21-1.64-1.226-1.793-2.508-4.594-1.21-7.254.313-.642 1.242-.784 1.47-1.47-1.04-1.966-1.124-5.14.085-6.907.433-.632 1.554-.702 1.73-1.554-.03-.577-.06-1.153-.088-1.728-.333-1.87.315-3.765 1.47-4.663.567-.443 1.628-.46 1.727-1.383-.152-.41.215-1.428.346-1.9.745-2.69 1.256-3.617 3.888-4.403.64-2.206 1.012-3.906 2.592-5.095.55-.415 1.808-.508 2.246-1.037.8-.963 1.314-2.465 2.333-3.195.742-.53 1.6-.706 2.42-1.21.487-.3.873-1.044 1.38-1.38 1.694-1.123 3.34-1.88 5.012-3.022 3.865-2.637 7.81-5.452 11.665-8.117 2.053-1.42 4.122-2.792 6.135-4.146.638-.43 1.59-.55 1.987-1.21l.085-.258h-.26c-.95-.2-1.9-.403-2.85-.604-1.118 1.277-4.33 1.39-6.22.777-.745-.242-1.206-.718-2.16-.778-1.157 1.272-4.523 1.02-6.222.345-.738-.293-1.265-.882-2.16-.95-1.45 1.225-4.98.627-6.654-.172-.698-.334-.802-.97-1.815-1.037-1.617 1.302-5.22.022-6.567-.69-.617-.327-.81-1.008-1.64-1.123-2.548 1.58-6.73-1.067-7.95-2.33-3.455.613-6.675-.583-8.036-2.85-2.498 1.083-5.525-.705-6.912-1.728-.726-.534-.53-1.332-1.815-1.38-.463.307-1.674-.02-2.246-.174-2.336-.626-3.627-1.81-4.926-3.454-3.214.67-6.604-1.89-7.517-3.887-3.142.02-4.53-1.057-6.308-2.33-1.526-1.095-.055-1.968-3.025-1.987l-2.16-.864-2.333-1.727c-.59-.448-.68-1.816-1.47-1.986l-1.986-.26c-1.494-.472-2.742-1.636-3.802-2.59-.53-.478-.638-1.59-1.21-1.986l-1.64-.26c-1.185-.373-2.226-1.037-3.112-1.726l-1.728-1.814c-.228-.393-.145-1.14-.518-1.38l-1.728-.26c-.956-.346-1.81-.913-2.592-1.468l-1.9-1.986c-.315-.475-.274-1.27-.692-1.64-.33-.202-.725-.032-1.21-.173-1.344-.392-2.568-1.358-3.456-2.246-.49-.545-.98-1.092-1.47-1.64-.296-.564-.134-1.416-.69-1.726-2.534-.75-4.204-1.63-5.617-3.713-.282-.417-.295-1.76-.69-2.07-.69-.203-1.382-.404-2.074-.606-1.732-.798-4.182-3.02-4.06-5.354-.547-.293-1.413-.31-1.988-.604-1.643-.837-4.25-3.234-4.234-5.7-.344-.2-.728-.17-1.21-.344-1.45-.53-2.903-1.91-3.715-3.11l-1.037-1.726c-.145-.483.214-1.33-.173-1.554-.38-.22-1.155-.145-1.642-.432-1.828-1.076-3.99-3.07-3.974-5.958-.583-.352-1.382-.492-1.988-.863-1.376-.847-2.923-2.75-3.542-4.32-.03-.546-.058-1.093-.087-1.64-.317-.444-1.278-.55-1.728-.863-1.814-1.263-3.847-3.397-3.543-6.217-2.596-1.45-5.665-3.352-5.184-7.253-2.5-1.425-5.522-3.454-4.925-7.34-2.204-1.39-4.16-2.923-4.925-5.7-.214-.773.19-1.32.26-1.9-2.702-1.56-4.943-3.765-4.494-7.684-2.067-1.324-3.894-3.138-4.494-5.872-.194-.88.264-1.374.345-2.07-2.138-1.257-3.712-3.126-4.32-5.873-.182-.83.472-1.632.347-2.072-.385-.6-1.356-.83-1.815-1.382-.94-1.133-1.7-2.636-2.16-4.23-.29-1.014.448-1.952.346-2.505-.343-.637-1.366-.888-1.815-1.468-.658-.85-2.275-3.59-2.073-5.094.1-.756.494-1.093.605-1.727-1.45-.865-4.326-4.216-3.716-6.91.2-.46.402-.92.604-1.38-.03-.058-.058-.116-.086-.173-1.342-.662-3.99-4.432-3.457-6.736.148-.632.61-.986.693-1.726-1.345-.81-3.867-4.29-3.197-6.907.158-.62.66-.944.777-1.64-1.456-.756-3.79-4.55-2.937-7.168l.864-1.383c-1.304-.904-3.428-4.195-2.852-6.82.18-.813.92-1.196 1.124-1.9-1.398-.867-3.266-4.172-2.506-7.08.197-.756.98-.982 1.21-1.642-1.544-1.08-3.11-4.378-2.247-7.167.234-.76.998-.972 1.295-1.64H9.16c-.404-.49-.808-.98-1.21-1.47-.612-1.162-1.145-3.43-.692-5.266.253-1.026 1.32-1.308 1.47-2.245-1.607-1.013-2.384-4.555-1.47-6.994.29-.772 1.313-.91 1.47-1.727-1.446-1.068-2.29-5.343-.952-7.34.383-.57 1.384-.637 1.556-1.38-1.893-.856-1.726-5.542-.692-7.255.354-.584 1.412-.612 1.642-1.294-1.446-1.534-1.65-5.263-.346-7.167.406-.594 1.655-.612 1.815-1.382-1.585-1.657-1.094-5.542.174-7.167.473-.606 1.586-.34 1.728-1.294-1.403-1.754-.624-5.147.432-6.65.48-.683 1.932-.597 2.073-1.554-2.054-2.415.275-6.833 2.765-7.34l.173-.69c-1.404-2.286.403-5.63 1.815-6.563.432-.286 1.272-.163 1.555-.605.426-.934-.323-2.077-.087-3.195.326-1.536 1.433-3.09 2.68-3.713l1.38-.26c.255-.656-.128-1.656.088-2.676.185-.872.564-1.86 1.037-2.503.385-.525 1.336-1.334 1.987-1.554.517-.174 1.1.168 1.382-.173.456-.548.07-1.574.26-2.418.23-1.012.844-2.28 1.555-2.85l1.642-1.035c.454-.166 1.143.016 1.467-.26.48-.825.373-1.843.778-2.85.8-1.988 2.384-2.698 4.666-3.02 1.248-2.763 1.76-5.595 5.876-5.527 1.092-1.892 1.875-4.203 4.148-4.922l2.246-.26c.42-1.28 2.45-3.672 3.63-4.23.835-.396 1.944.012 2.59-.346 1.243-.686 1.836-2.285 2.94-3.108.592-.443 1.43-.777 2.245-.95.49-.03.98-.058 1.47-.086 1.49-.702 2.423-2.423 3.887-3.11.93-.434 1.86-.145 2.938-.517 1.753-.604 3.124-2.31 4.925-3.02.798-.316 1.435.037 2.247-.26.2-.173.403-.346.604-.518l1.556-.52c.7-.316 1.472-.914 2.246-1.207.804-.305 1.488-.243 2.42-.52 1.31-.386 2.91-1.093 4.147-1.64l1.555-.258c1.576-.476 3.045-.84 4.752-1.382 10.442-3.32 21.064-6.328 31.797-9.325.575-.26 1.15-.52 1.727-.778 1.82-.54 3.307-.63 5.098-1.295.374-.2.75-.403 1.123-.604.85-.274 1.633-.045 2.592-.346l1.123-.69 2.074-.346 1.296-.69c1.057-.345 2.486.085 3.543-.26l1.296-.776c.622-.25 1.123-.08 1.9-.26.548-.2 1.095-.402 1.642-.603.754-.156 2.082.44 2.765.26.765-.203 1.454-.908 2.418-1.123l1.556.087c.625-.135 1.533-.56 2.505-.346.374.082.945.505 1.468.346.49-.15 1.022-.697 1.642-.864 1.137-.307 2.29.112 3.283-.086 1.2-.24 2.053.65 2.938.43.707-.173 1.398-.695 2.334-.862.688-.123 1.363.233 1.814.345h2.247l1.296.518c.567.068 1.548-.64 2.247-.777 1.178-.23 4.584.768 5.53 1.037.955.27 2.18-.91 3.63-.605.612.13 1.13.537 1.64.69l1.642.087 1.382.605c.902.133 1.852-.92 3.283-.605 1.404.31 3.116 1.122 4.58 1.468.93.22 2.282-.773 3.63-.432 1.307.332 3.024 1.232 4.405 1.555.564.132 1.166-.41 1.642-.518h2.592c.374-.116.75-.23 1.123-.346l5.012.518c5.44-1.64 10.886-3.28 16.33-4.922 1.986-.43 3.974-.863 5.96-1.295l3.63-.345zM126.754 33.676c-2.316 1.575-5.365.014-8.295.345-1.36 1.915-3.44 3.184-6.05 3.628-.765 1.44-2.555 3.466-4.146 4.058l-1.9.432-1.643 2.504c-.974 1.305-2.315 1.75-4.06 2.332-.894 1.563-1.52 3.293-2.938 4.317l-2.42 1.124c-.186.304-.107.825-.258 1.21l-1.728 2.848c-.61.62-2.37 1.152-2.765 1.727l-.086.95c-.292 1.173-1.057 2.742-1.814 3.54-.49.516-2.207 1.288-2.42 1.812v1.21c-.247 1.02-.817 2.38-1.382 3.194-.49.71-2.404 1.685-2.505 2.418.368.582-.01 1.428-.173 1.986-.363 1.25-.693 2.213-1.383 3.11-.52.673-1.62.83-1.728 1.898.726 1.224-.854 4.655-1.383 5.354-.437.577-1.343.863-1.555 1.64 1.044 1.348-.278 4.76-.95 5.7-.384.535-1.16.89-1.383 1.554v.086c.222 1.058.48 2.356.17 3.713l-.776 2.16c-.384.678-1.27.96-1.383 1.9 1.228 1.32.268 5.076-.43 6.216l-1.038 1.21c-.138.54.594 1.257.692 1.813.43 2.447-.62 5.03-1.815 6.217.825 1.493 1.464 3.94.604 6.13-.225.576-.975 1.24-1.123 1.728 0 0 1.024 2.325 1.124 2.85.506 2.665-1.004 3.91-1.123 5.698 1.2.842 1.697 3.968 1.124 5.958-.21.725-.76 1.197-.864 1.986 1.112 1.092 2.182 3.592 1.555 6.045-.195.764-.707 1.273-.777 2.158 1.353.895 2.4 3.7 1.814 6.13-.132.552-.678 1.392-.605 1.814.272.598 1.002.813 1.296 1.382.667 1.29 1.127 3.607.692 5.353l-.52 1.468c1.5.897 3 3.496 2.42 6.304l-.518 1.727c1.642.794 3.31 3.59 2.68 6.477l-.433 1.468c1.57.797 3.458 3.558 2.937 6.304l-.344 1.64c1.85.826 2.672 2.555 3.11 4.748.23 1.15-.203 2.114-.26 3.023 2.964 1.578 3.314 3.764 3.11 7.686 2.957 1.556 3.518 3.5 3.37 7.598 3 1.512 3.764 3.42 3.63 7.513 2.46.907 3.454 2.643 3.975 5.44.144.77-.154 1.382-.086 1.9 2.958.997 4.242 3.32 4.06 7.166l.26.087 1.383.345c1.195.734 2.277 2.723 2.678 4.23l.087 2.332c.398.334 1.293.24 1.728.52 1.78 1.142 2.867 3.42 2.85 6.388.345.166.948.1 1.384.26 1.215.442 2.562 2.33 3.024 3.54.218.57.375 2.838.605 3.022l1.555.26c.4.198.755.695 1.037 1.035 1.54 1.858 1.783 2.35 2.333 5.354 3.045-.04 5.138 3.13 5.097 6.217.343.175.893.186 1.47.173 2.41 1.494 3.43 2.868 4.06 6.217h.173l1.555.086c2.352.928 3.204 3.272 3.888 5.957 3.877-.04 5 2.798 5.79 5.872l.173.085c2.312-.46 4.193 1.46 5.012 3.022.42.8.25 2.488 1.382 2.59 1.448-.95 4.418 2.338 4.84 3.282.352.793.202 2.057 1.295 2.158 1.52-.84 4.393 1.974 4.925 3.108.357.762.277 2.033 1.296 2.16.76-.543 1.77.08 2.246.344 1.065.593 2.033 1.248 2.678 2.245.43.666.47 1.982 1.21 2.332.426.14.86-.325 1.555-.173.877.192 1.928.878 2.592 1.382.9.683 1.858 3.267 2.42 3.54.468.152 1.328-.347 2.073-.086 1.37.48 2.814 1.528 3.542 2.676.357.563.477 1.368.95 1.814.638.365 1.02-.312 1.815-.173l2.333.95c1.27.717 2.095 3.08 2.938 3.454.58.243 1.893-.305 2.85.087 2.515 1.03 2.593 2.577 4.32 3.972 3.96-1.08 5.12 1.643 7.087 3.54.534-.05.716-.256 1.123-.346 1.56-.344 3.27.694 4.06 1.295.933.71 1.135 2.047 2.506 2.33.537-.458 1.162-.502 1.9-.345 1.255.268 2.076.43 2.94 1.037.963.678 1.17 1.894 2.59 2.158 2.758-2.36 5.79 2.28 7.69 2.418 1.082-1.233 4.017-.176 4.926.432l1.383 1.295 1.297.26c.73-.837 2.955-.707 4.06-.26 1.114.45 1.718 1.475 3.025 1.727.95.183 2.245-1.078 4.06-.604 1.543.402 2.336 1.35 4.148 1.64 1.906-2.263 5.39.193 7.776.346 1.377-1.824 5.453-.71 7.43-.173.85-.253 1.54-1.043 2.593-1.294 1.635-.39 3.548.86 5.097.43.733-.2 1.536-1.19 2.765-1.466 1.438-.323 3.265.486 4.666 0 .872-.365 1.475-1.264 2.505-1.555h2.074c.508-.12 1.215-.418 1.9-.518h.865c.64-.277 2.38-1.748 2.765-2.33.557-.844.66-1.76 1.47-2.333l2.418-1.295 1.642-4.06c.393-.582 1.175-1.397 1.814-1.726.548-.282 1.102-.246 1.47-.69.772-1.233.588-3.176 1.382-4.405.415-.642 1.3-1.545 1.988-1.9.554-.287.94-.114 1.21-.69.826-1.718.362-3.61 1.382-5.096.602-.876 2.14-1.297 2.592-1.986.468-1.217-.036-3.203.518-4.576.31-.77 1.092-1.86 1.728-2.332.392-.29.88-.243 1.124-.69.615-1.32-.284-3.144.172-4.577.306-.96.984-2.21 1.73-2.763.316-.236.646-.265.863-.605.475-1.013-.623-3.484-.174-5.094.248-.89.92-2.037 1.555-2.59.3-.26.58-.22.78-.604.373-1.02-1.072-2.997-.693-4.922.17-.86.505-1.852.95-2.504.447-.653 1.095-.486 1.124-1.64-.996-1.657-1.455-4.588-.517-6.563.267-.563 1.177-1.117 1.296-1.64.042-.19-1.302-3.017-1.47-3.887-.277-1.434.18-3.27.778-4.144.32-.47.643-.274.69-1.123-1.237-1.402-2.588-4.466-1.554-7.253.23-.62.79-.678.864-1.554-1.576-1.234-2.878-4.267-2.074-7.254.156-.58.88-1.02.777-1.554-.206-.76-.674-.775-1.035-1.295-.476-.686-.922-1.697-1.124-2.59-.293-1.308-.092-3.184.433-4.232.382-.76.938-.692.95-1.985-.886-1.68-1.762-4.31-.604-6.39.478-.86 1.768-1.562 1.9-2.59l-1.555-2.85c-.867-1.403-2.042-2.606-3.024-3.885-.513-.668-1.084-1.83-2.16-1.9-.44-.226-.875-.12-1.468-.26l-4.148-1.12c-3.613-1.297-6.9-2.942-9.763-5.01-6.244-4.51-12.29-11.53-17.02-17.615-3.226-3.712-6.453-7.426-9.678-11.14-5.3-6.302-10.6-12.606-15.898-18.91-1.086-1.24-2.498-2.346-3.802-3.367-3.027-2.37-5.625-5.534-8.295-8.29-1.47-1.525-2.938-3.05-4.406-4.576-3.626-4.627-7.626-8.968-11.06-13.815l-4.406-6.563-1.987-3.368-4.925-5.612-13.91-16.58c-4.872-6.282-10.506-11.978-15.38-18.305-4.122-5.35-8.435-10.36-10.715-17.616-.805-2.564-1.877-8.253-1.296-11.398.23-1.24 1.636-4.947 1.297-6.045-.47-1.52-3.478-3.655-4.752-4.575-.772-.558-1.778-.674-1.814-1.986v-.433l-3.196-1.295-1.47.432c-.93.22-2.074.118-2.937-.087l-3.888-1.468c-.98-.173-1.978.784-3.37.517-1.79-.342-2.972-1.065-4.667-1.38-1.262-.237-2.297.93-3.888.517-1.478-.385-2.88-1.007-4.406-1.21-.914-.12-1.944.886-3.198.692l-5.098-.95zm155.613 319.75c.662-.03 1.325-.058 1.987-.087.725-.3 1.212-.986 1.987-1.296.933-.373 1.742.02 2.68-.173.916-.188 1.85-.352 2.937-.345.895-1.544 3.634-1.925 5.53-2.33.49-.03.98-.06 1.47-.087.56-.242.752-.804 1.21-1.123.604-.26 1.208-.518 1.813-.777l.087-.086c.694-.87 1.02-2.086 1.9-2.763.932-.72 2.168-.933 2.852-1.9.517-1.152 1.036-2.304 1.554-3.455.71-1.044 1.8-1.338 2.938-1.986.804-.88 1.006-2.22 1.47-3.455.315-.576.632-1.15.95-1.727h-.26c-.358.404-1.033.54-1.47.863-2.264 1.685-4.664 3.484-6.998 5.096l-1.814.95a380.523 380.523 0 0 1-14.516 10.016c-2.092 1.377-4.007 3.174-6.307 4.318v.345z"/></svg>