<svg xmlns="http://www.w3.org/2000/svg" width="207" height="276"><path fill-rule="evenodd" d="M130.01 3.36c1.01.014 2.168-.128 3.178.09 1.523.33 3.036.632 4.358 1.18 4.01 1.663 7.26 4.744 9.76 7.944 2.026 2.593 4.462 4.88 6.49 7.49l1.136 1.226.863.09c.404.095.933.276 1.362.455.303.127 1.03.435 1.316.635.12.152.242.303.363.454.522.273.742.126 1 .863.807.01.638.613.952.953.452.24.413.25.726.59l-.09.454c.138.074.324.122.5.182.124.233.247.33.27.68-.112.094-.107.077-.135.273l.135.135c.214.108.31.042.41.273.23.322.038.523 0 .908.21.118.407.147.453.453.07.1.124.337.09.408-.086.183-.173.17-.226.41.136.082.288.164.363.316.09.14.113.433.136.636-.158.106-.237.164-.27.408.41.243.64.826.952 1.18.764.87 1.553 1.71 2.27 2.634 2.43 3.126 5.326 5.898 7.762 9.033 1.114 1.434 2.435 2.765 3.632 4.13l14.98 17.57c3.403 4.403 7.747 7.95 9.67 13.844 1.135 3.483.724 8.005-.546 11.03l-1.134 2.18c-.22.336-.666.72-.772 1.134l-.09 1.498c-.237 1.28-.26 3.467-.092 4.72.074.547-.15 1.383.09 1.77l.637.41c.21.227.422.454.634.68.58.323.907.198 1.317.727.495.64.905 1.314 1.09 2.27l-.09 1.043c.09.472.49.767.726 1.09.283.39.516 1.082.635 1.588.254 1.077-.274 1.815-.317 2.634.61.703 1.207 2.166.817 3.54-.13.46-.453.754-.5 1.272.64.71.944 2.29.546 3.495-.156.473-.52.667-.545 1.273.476.6.73 2.178.364 3.177-.194.53-.69.855-.726 1.498 1.046 1.173.04 3.605-.636 4.267.027.415.2.6.273.908.384 1.6-.52 2.938-1.18 3.586.014.393.12.604.18.907.315 1.587-.674 2.823-1.36 3.496.02 1.195.074 2.256-.41 3.132-.23.42-.906.752-1.043 1.18v1.226c-.12.455-.243.91-.364 1.363-.273.65-.962.94-1.225 1.452-.28.47-.177 1.584-.41 2.18-.333.858-.943 1.28-1.542 1.86-.044 1.134-.477 2.465-1.09 3.087-.246.252-.87.433-.997.772-.372.978-.4 1.887-.954 2.633-.262.35-1.116.706-1.272 1l-.18.77c-.29.575-.576 1.15-.864 1.725-.338.456-1.12.634-1.407 1.09-.076.257-.15.514-.227.77a9.76 9.76 0 0 1-.817 1.454l-.953.817c-.197.09-.394.182-.59.273l-.228.726c-.308.61-.875 1.35-1.36 1.816l-1.272.77-.227.637c-.343.572-.92 1.19-1.408 1.634-.408.21-.817.423-1.225.635l-.727 1.18c-.622.725-1.53 1.06-2.315 1.634l-1.18 1.36c-.77.588-1.598.986-2.406 1.544-.422.292-.69.84-1.135 1.135-2.172 1.45-4.23 2.906-6.4 4.357l-.545.545c-.83.584-1.676.988-2.497 1.59-1.195.873-2.396 1.9-3.63 2.722-3.435 2.282-6.73 4.718-10.034 7.127-.51.374-1.102.546-1.633.91-.76.52-1.526 1.267-2.36 1.724l-1.135.5-.68.68-1.136.5-.726.5c-.38.135-.757.272-1.135.408-.48.33-.792.79-1.407 1.044a17.84 17.84 0 0 1-1.725.635c-.212.032-.424.062-.636.092-.356.183-.645.702-1.044.908-.616.318-1.687.427-2.36.59l-.59.046c-.486.222-.846.76-1.453.953-.86.273-1.834-.08-2.68.226-.108.04-.106.163-.18.227-.36.308-.98.562-1.498.68-.875.2-1.672-.225-2.452.046-.455.157-.903.645-1.452.816-.79.246-2.003-.2-2.633 0-.618.197-.87.764-1.77.817-.302.456-.572.94-.954 1.317.08.614.49 1.355.32 2.224-.07.35-.643 1.695-.637 1.725.152.21.303.423.454.635l.318 1.36c.118.53-.29 1.832-.272 1.863.11.22.36.27.5.454.3.395.582 1.087.725 1.588l.09 1.408-.135.408c.058.215.466.248.636.363.225.287.453.574.68.862.3.478.496 1.05.635 1.68v.862c.153.272.57.233.817.41.462.326 1.06 1.17 1.27 1.723.096.247.21 1.446.364 1.544.288.092.575.183.863.273.557.345 1.16 1.12 1.45 1.725.17.354.136 1.174.365 1.362l.817.046c.568.19 1.32 1.016 1.634 1.498.23.353.383 1.54.817 1.588.364-.24.807.116 1.044.273.754.5 1.254.942 1.68 1.77.132.257.093.786.317.953.09.048.67-.112.954 0 .44.175.78.644 1.27.727.12-.172.2-.223.5-.227.26.23.602.3.908.5.992.642 2.047 1.187 3.087 1.815 3.416 2.062 6.96 4.09 10.305 6.22 2.237 1.424 4.71 3.084 5.31 6.127.232 1.172-.665 2.862-.998 3.632-.35.81-.64 1.72-1.18 2.36-.827.978-1.844 1.666-2.77 2.542-1.114 1.056-2.32 2.052-3.54 2.997-2.394 1.854-4.608 3.962-6.99 5.856-1.415 1.125-2.506 2.36-4.45 2.997-2.275.745-5.402.157-7.4-.636-5.05-2.005-9.13-4.64-13.48-7.31-1.396-.854-2.81-1.657-4.177-2.495-.427-.262-1.226-.467-1.453-.908-.08-.207.08-.43.045-.68-.954-.473-1.592-1.208-1.816-2.452-1.5-.433-2.39-.904-3.178-1.998-.173-.24-.214-1.084-.363-1.225-.278-.107-.675-.09-1-.228-.683-.29-1.908-1.456-2.18-2.134l-.135-1.044c-1.28-.21-2.795-1.62-3.087-2.77l.045-.862c-.184-.34-.96-.452-1.27-.68-.603-.443-1.323-1.485-1.544-2.27-.13-.464.105-.832.135-1.18-1.208-.638-1.852-1.247-2.315-2.633-.074-.224-.296-.55-.182-.955l.318-.68c-1.047-.672-1.605-1.28-1.952-2.68l-.18-.77c.07-.543.425-.7.498-1.18-.784-.765-1.45-1.38-1.453-2.952l.045-.862c.138-.376.555-.445.635-.862-.643-.942-1.317-2.414-.635-3.813.164-.337.652-.41.77-.77-.544-1.036-.588-2.704.047-3.633.227-.332.816-.37.908-.817l-.046-.908c-.175-.982.166-1.98.772-2.45.298-.234.856-.243.908-.728-.08-.216.113-.752.182-1 .39-1.415.66-1.9 2.042-2.314.337-1.16.532-2.054 1.362-2.68.29-.216.95-.266 1.18-.543.42-.507.69-1.297 1.226-1.68.39-.28.842-.37 1.27-.636.258-.158.46-.55.727-.726.89-.59 1.754-.987 2.633-1.588 2.03-1.386 4.104-2.866 6.13-4.267 1.077-.746 2.164-1.467 3.222-2.18.335-.225.835-.29 1.044-.634l.045-.136h-.136c-.498-.105-.998-.21-1.497-.317-.587.67-2.275.73-3.27.408-.39-.126-.63-.377-1.133-.408-.607.668-2.376.536-3.27.18-.386-.153-.663-.463-1.134-.498-.762.643-2.617.328-3.495-.092-.365-.175-.42-.51-.952-.545-.85.685-2.743.012-3.45-.363-.325-.17-.426-.53-.863-.59-1.338.83-3.536-.56-4.176-1.226-1.816.323-3.508-.305-4.223-1.498-1.312.57-2.902-.37-3.63-.907-.383-.282-.28-.702-.955-.728-.243.163-.88-.01-1.18-.09-1.226-.33-1.905-.952-2.588-1.816-1.688.352-3.47-.994-3.95-2.043-1.65.01-2.38-.556-3.313-1.226-.8-.575-.027-1.034-1.588-1.044-.378-.15-.756-.302-1.134-.454-.41-.303-.818-.606-1.226-.91-.31-.234-.357-.953-.772-1.043l-1.044-.136c-.784-.247-1.44-.86-1.997-1.36-.28-.252-.336-.836-.637-1.045l-.862-.136c-.62-.197-1.168-.547-1.633-.91l-.908-.952c-.12-.207-.078-.6-.274-.727l-.908-.135c-.502-.18-.95-.48-1.36-.77l-1-1.046c-.165-.25-.143-.668-.363-.863-.173-.106-.38-.017-.636-.09-.707-.206-1.35-.714-1.817-1.18-.257-.29-.514-.576-.77-.864-.157-.296-.072-.744-.364-.907-1.332-.395-2.21-.857-2.952-1.952-.15-.22-.156-.926-.363-1.09l-1.09-.318c-.91-.42-2.197-1.587-2.133-2.814-.288-.154-.743-.164-1.044-.318-.864-.44-2.233-1.7-2.225-2.996-.18-.106-.383-.09-.635-.182-.762-.277-1.526-1.003-1.952-1.634l-.545-.908c-.075-.254.114-.7-.09-.817-.2-.116-.606-.076-.862-.227-.96-.566-2.096-1.613-2.088-3.132-.307-.185-.726-.258-1.044-.454-.724-.444-1.536-1.444-1.862-2.27l-.045-.862c-.168-.234-.673-.29-.91-.454-.95-.664-2.02-1.786-1.86-3.27-1.364-.76-2.976-1.76-2.724-3.812-1.313-.75-2.9-1.815-2.587-3.858-1.16-.73-2.187-1.537-2.59-2.996-.11-.407.1-.694.137-1-1.418-.82-2.596-1.98-2.36-4.04-1.085-.695-2.045-1.65-2.36-3.086-.102-.463.138-.723.18-1.09-1.123-.66-1.95-1.642-2.27-3.086-.095-.436.248-.858.183-1.09-.202-.316-.712-.435-.954-.726-.494-.596-.894-1.386-1.134-2.224-.153-.533.235-1.026.18-1.317-.18-.335-.716-.467-.952-.772-.346-.445-1.196-1.886-1.09-2.677.054-.397.26-.574.318-.908-.76-.454-2.273-2.216-1.952-3.63l.318-.728-.045-.09c-.706-.348-2.098-2.33-1.817-3.54.077-.334.32-.52.363-.91-.707-.425-2.032-2.255-1.68-3.63.084-.326.348-.497.41-.863-.766-.397-1.993-2.392-1.545-3.768.153-.242.304-.484.455-.726-.684-.476-1.8-2.206-1.498-3.586.094-.427.483-.63.59-1-.734-.455-1.715-2.192-1.316-3.722.105-.396.516-.515.637-.862-.812-.567-1.634-2.3-1.18-3.768.123-.4.524-.51.68-.862h-.045l-.636-.772c-.32-.612-.6-1.803-.363-2.77.133-.54.694-.687.772-1.18-.844-.532-1.252-2.394-.772-3.676.152-.406.69-.48.772-.908-.76-.562-1.202-2.81-.5-3.86.2-.3.728-.334.818-.725-.995-.45-.907-2.914-.364-3.814.185-.308.74-.323.862-.68-.76-.808-.866-2.768-.182-3.77.214-.31.87-.32.954-.725-.834-.87-.575-2.913.09-3.767.25-.32.834-.18.908-.68-.737-.923-.327-2.707.227-3.496.252-.36 1.015-.315 1.09-.817-1.08-1.27.143-3.593 1.45-3.86.032-.12.062-.24.092-.362-.737-1.202.212-2.96.954-3.45.227-.15.668-.086.817-.318.223-.49-.17-1.092-.046-1.68.17-.807.753-1.624 1.407-1.95l.727-.138c.134-.345-.067-.87.046-1.407.098-.46.297-.978.545-1.316.203-.277.703-.703 1.045-.818.27-.092.578.088.726-.09.24-.29.037-.83.137-1.272.12-.533.444-1.2.818-1.498l.862-.545c.24-.087.6.008.772-.136.25-.433.195-.968.407-1.497.42-1.046 1.253-1.42 2.452-1.59.654-1.45.923-2.94 3.086-2.904.573-.996.985-2.21 2.178-2.59.394-.044.787-.09 1.18-.135.222-.674 1.288-1.93 1.907-2.224.44-.207 1.023.007 1.363-.18.652-.36.964-1.202 1.544-1.635.31-.233.75-.41 1.18-.5l.772-.045c.78-.37 1.272-1.274 2.04-1.634.49-.23.98-.077 1.545-.272.92-.318 1.64-1.216 2.587-1.59.42-.165.754.02 1.18-.135l.318-.274c.273-.09.545-.18.817-.272.368-.167.774-.48 1.18-.636.423-.16.782-.127 1.272-.272.688-.204 1.527-.576 2.178-.863l.817-.136c.827-.25 1.6-.44 2.496-.726 5.487-1.744 11.068-3.326 16.707-4.902l.908-.408c.957-.284 1.737-.332 2.678-.68l.59-.32c.447-.143.858-.022 1.362-.18l.59-.364 1.09-.18.68-.364c.556-.182 1.306.044 1.862-.137l.68-.408c.327-.13.59-.042 1-.136.287-.105.574-.21.862-.317.395-.082 1.093.23 1.45.136.404-.107.766-.478 1.272-.59l.817.044c.328-.07.805-.293 1.316-.18.197.042.497.264.772.18.256-.078.537-.366.862-.454.598-.16 1.203.06 1.725-.045.63-.126 1.078.342 1.544.227.37-.092.733-.366 1.224-.454.362-.065.716.123.953.182h1.18c.228.09.455.18.682.272.296.035.81-.336 1.18-.41.618-.12 2.407.405 2.904.546.502.143 1.146-.477 1.907-.318.323.068.595.283.863.364l.863.045c.242.105.484.21.726.317.474.07.973-.484 1.725-.318.738.162 1.637.59 2.406.77.49.116 1.2-.406 1.907-.226.687.174 1.59.647 2.315.817.296.07.612-.214.862-.272h1.362l.59-.18 2.632.27c2.86-.86 5.72-1.724 8.58-2.586l3.132-.68c.635-.062 1.27-.122 1.907-.183zM66.595 17.703c-1.217.828-2.82.007-4.358.182-.714 1.006-1.806 1.673-3.177 1.906-.404.757-1.344 1.822-2.18 2.134-.333.075-.666.15-1 .227l-.862 1.316c-.512.685-1.216.918-2.133 1.225-.47.82-.798 1.73-1.544 2.27l-1.27.59c-.098.16-.056.434-.136.635l-.908 1.498c-.32.327-1.245.606-1.452.908l-.046.5c-.153.617-.555 1.44-.953 1.86-.258.272-1.16.678-1.27.954v.635c-.13.537-.43 1.25-.727 1.68-.258.373-1.264.886-1.317 1.27.195.307-.005.752-.09 1.045-.19.657-.364 1.164-.726 1.634-.273.355-.85.438-.908 1 .382.642-.448 2.446-.726 2.814-.23.303-.706.453-.817.862.548.708-.146 2.5-.5 2.996-.2.28-.61.468-.726.817v.046c.118.555.252 1.237.09 1.95-.135.38-.27.757-.408 1.135-.202.357-.668.506-.727 1 .645.694.14 2.668-.227 3.268-.182.21-.363.423-.545.635-.072.284.313.66.364.953.226 1.288-.325 2.645-.953 3.27.435.785.77 2.07.32 3.223-.12.302-.513.65-.59.908 0 0 .537 1.223.59 1.5.265 1.4-.53 2.055-.59 2.995.63.442.89 2.086.59 3.132-.11.38-.4.63-.455 1.044.584.575 1.147 1.89.817 3.18-.103.4-.372.668-.408 1.134.71.47 1.26 1.944.953 3.223-.07.29-.356.73-.318.953.142.314.526.427.68.726.35.678.592 1.897.363 2.815-.09.258-.18.515-.272.772.788.472 1.576 1.838 1.272 3.314-.09.303-.182.605-.273.908.862.417 1.74 1.886 1.407 3.405l-.227.77c.826.42 1.817 1.87 1.543 3.314l-.18.863c.97.435 1.403 1.343 1.633 2.496.12.605-.107 1.112-.136 1.59 1.556.828 1.74 1.978 1.634 4.04 1.552.818 1.847 1.84 1.77 3.994 1.575.795 1.977 1.8 1.907 3.95 1.293.477 1.816 1.39 2.09 2.86.074.405-.082.726-.046.998 1.553.525 2.228 1.745 2.133 3.768l.136.045c.242.06.485.12.727.182.627.386 1.196 1.43 1.407 2.224l.045 1.226c.21.175.68.125.908.272.936.6 1.507 1.798 1.498 3.36.18.087.498.052.726.136.64.232 1.346 1.224 1.59 1.86.114.3.197 1.493.317 1.59l.818.136c.21.104.397.366.545.544.81.977.937 1.236 1.226 2.815 1.598-.02 2.698 1.645 2.677 3.268.18.093.47.1.772.092 1.266.786 1.8 1.508 2.132 3.27h.09l.818.044c1.236.488 1.683 1.72 2.043 3.132 2.036-.02 2.626 1.47 3.04 3.087l.092.045c1.215-.242 2.203.768 2.633 1.59.22.42.13 1.307.726 1.36.76-.498 2.32 1.23 2.542 1.726.186.417.107 1.082.68 1.135.8-.44 2.31 1.04 2.59 1.635.186.4.145 1.07.68 1.135.4-.285.93.043 1.18.182.56.31 1.068.656 1.407 1.18.226.35.247 1.042.636 1.226.223.073.45-.17.816-.09.46.1 1.013.46 1.362.725.473.36.976 1.718 1.27 1.86.247.08.7-.18 1.09-.044.72.252 1.48.802 1.86 1.406.19.296.252.72.5.953.336.19.536-.165.954-.09.408.165.817.33 1.226.498.667.377 1.1 1.618 1.543 1.816.306.127.996-.16 1.5.045 1.32.54 1.36 1.354 2.27 2.087 2.08-.567 2.688.864 3.72 1.86.282-.025.378-.133.59-.18.82-.18 1.72.365 2.135.68.49.374.596 1.077 1.316 1.226.283-.24.612-.264 1-.18.658.14 1.09.224 1.543.544.507.356.615.996 1.362 1.134 1.45-1.24 3.04 1.2 4.04 1.272.568-.648 2.11-.092 2.588.227l.726.68c.226.046.453.09.68.137.384-.44 1.553-.372 2.134-.137.584.237.902.776 1.59.908.497.097 1.178-.567 2.132-.317.81.212 1.227.71 2.18.863 1-1.19 2.83.1 4.085.182.724-.96 2.865-.373 3.904-.09.447-.135.81-.55 1.362-.682.86-.205 1.865.452 2.68.227.384-.106.805-.627 1.45-.772.757-.17 1.716.256 2.453 0 .457-.19.774-.664 1.315-.817h1.09c.266-.062.638-.22.998-.27h.454c.336-.147 1.25-.92 1.453-1.227.293-.443.347-.925.77-1.226l1.273-.68.862-2.134c.207-.306.618-.735.953-.908.288-.148.58-.13.772-.363.406-.648.31-1.67.726-2.315.218-.337.683-.812 1.044-1 .292-.15.494-.06.636-.362.434-.903.19-1.898.726-2.678.317-.46 1.124-.683 1.362-1.045.246-.64-.02-1.684.272-2.405.163-.404.574-.978.908-1.226.206-.152.462-.127.59-.362.324-.694-.15-1.653.09-2.406.162-.505.518-1.162.91-1.453.166-.125.34-.14.453-.32.25-.53-.327-1.83-.09-2.677.13-.468.483-1.07.816-1.362.158-.136.305-.115.41-.316.195-.537-.563-1.576-.364-2.588.088-.452.264-.974.498-1.316.235-.343.575-.256.59-.863-.524-.87-.765-2.41-.272-3.45.14-.295.618-.587.68-.862.023-.1-.683-1.586-.77-2.043-.146-.754.094-1.72.408-2.18.17-.246.338-.143.363-.59-.65-.736-1.36-2.347-.817-3.812.12-.326.414-.357.454-.818-.828-.648-1.512-2.243-1.09-3.813.082-.306.463-.537.41-.818-.11-.4-.356-.407-.546-.68a4.207 4.207 0 0 1-.59-1.363c-.155-.688-.05-1.674.227-2.225.2-.4.493-.364.5-1.044-.466-.883-.927-2.265-.32-3.358.253-.452.93-.822 1-1.362l-.817-1.498c-.455-.738-1.072-1.37-1.59-2.043-.268-.352-.568-.962-1.134-1-.23-.12-.46-.062-.77-.136l-2.18-.59c-1.898-.68-3.626-1.546-5.13-2.633-3.28-2.37-6.457-6.06-8.943-9.26l-5.083-5.855c-2.784-3.314-5.57-6.628-8.353-9.942-.57-.652-1.312-1.233-1.997-1.77-1.59-1.245-2.955-2.91-4.358-4.358l-2.316-2.406c-1.905-2.433-4.007-4.716-5.81-7.264l-2.316-3.45-1.044-1.77-2.587-2.95-7.31-8.717c-2.558-3.304-5.518-6.298-8.08-9.624-2.164-2.813-4.43-5.446-5.628-9.26-.424-1.35-.987-4.34-.682-5.993.12-.65.86-2.6.68-3.178-.245-.8-1.826-1.922-2.496-2.406-.405-.294-.934-.355-.953-1.045v-.227l-1.68-.68-.772.226c-.49.115-1.09.063-1.544-.045l-2.042-.773c-.514-.09-1.04.413-1.77.273-.94-.18-1.562-.56-2.452-.727-.663-.124-1.207.49-2.043.273-.777-.203-1.513-.53-2.315-.636-.48-.063-1.02.465-1.68.363l-2.678-.5zM148.35 185.8l1.044-.045c.38-.157.637-.518 1.044-.68.49-.197.915.01 1.407-.09.482-.1.972-.187 1.544-.183.47-.812 1.908-1.012 2.904-1.226l.772-.045c.295-.126.395-.422.635-.59.32-.135.637-.272.955-.408l.045-.045c.365-.458.536-1.096 1-1.453.488-.377 1.138-.49 1.497-.998l.817-1.816c.373-.55.946-.704 1.543-1.044.423-.463.53-1.166.772-1.816.165-.303.332-.605.498-.908h-.136c-.188.212-.543.284-.772.454-1.19.885-2.45 1.83-3.677 2.678l-.953.5a198.94 198.94 0 0 1-7.626 5.265c-1.1.723-2.105 1.668-3.314 2.27v.18z"/></svg>