<svg xmlns="http://www.w3.org/2000/svg" width="121" height="128"><path fill-rule="evenodd" d="M61.016 2.09c8.664-.193 14.314 3.283 20.176 5.877 9.403 4.16 19.18 8.054 24.738 16.005 1.732 2.477 3.45 5.847 4.544 8.738.532 1.862 1.147 3.725 1.68 5.587.53.4 1.022.798 1.554 1.197.468.992.3 1.55.645 2.697.264.878 1.058 1.82 1.16 2.093l.4 3.592c.53.266 1.104.602 1.595 1.16 1.553 1.96 3.567 4.685 2.767 9.447-3.374 11.11-9.253 23.505-13.608 34.09-2.793 6.788-5.067 13.186-8.946 19.653-1.052 1.756-4.336 3.31-6.55 3.892-1.177.445-2.466.474-3.992 0-1.087 1.446-3.826 3.076-5.986 3.99l-3.99.4c-1.51.56-3.41 2.363-4.79 3.192-2.66.93-5.256 2.074-7.98 2.793-7.922 1.396-19.167-1.294-25.486-3.913-11.997-4.97-21.953-7.587-26.867-14.747-3.002-4.373-4.046-11.596-4.318-21.248-.894-.346-1.768-.372-2.14-.84-.614-.773-.36-2.216-.255-4.348l1.197-7.98c1.262-.162 1.515-.394 2.395-.8.17-6.65 2.375-15.793 4.5-20.93.508-1.226 1.58-3.677 2.2-4.61-.43-2.11-.744-4.887-.092-7.184 1.414-4.98 4.663-6.895 10.55-6.385 3.41-10.06 14.313-21.688 22.292-26.61 2.27-1.4 5.575-3.04 8.104-3.8 1.598-.48 3.05-.765 4.502-1.007zm18.58 15.455c-2.8 1.122-6.728 2.8-9.578 4.79-6.766 4.722-12.52 11.907-16.762 19.154-.917 1.568-2.785 4.7-3.042 6.175-.167.96.81 2.447.88 3.402.168 2.263-.52 5.97-1.43 7.326-1.048 1.56-3.69 3.183-4.574 3.304-.646 1.653-1.03 3.388-1.43 5.25-.894 2.19-6.4 12.76-5.47 14.43 2.46 1.95 2.138 2.38 1.963 6.805-.127 1.294-.774 4.826-.91 6.166-.67.06-1.794-.162-1.877.895.015 1.587.114 5 .6 6.906.874 3.423 1.845 7.135 3.11 10.185 2.357-1.13 6.36-3.42 7.39-5.796 0-1.33-.504-2.465.25-3.992.282-.682 2.303-1.8 1.747-2.394-.944-1.008-2.002-5.258-1.197-8.38.673-2.614 2.212-6.253 3.192-7.982.645-1.138-2.802-.275-.798-5.587 1.374-3.642 3.4-5.747 5.252-5.68.17.007.96-1.788 1.532-3.1.953-2.188 2.217-4.804 3.08-7.806 1.43-4.97 4.27-11.147 6.584-16.72 2.962-7.13 5.627-10.856 10.38-11.974.1-5.15 2.313-5.14 3.103-5.404v-5.587c-.446-1.72-.78-3.355-1.994-4.39zm-30.33 4.79c.407.32.11.14.798.398-.408-.32-.11-.142-.798-.4zm-6.386 7.182c-.133.4-.266.965-.4 1.364h1.997c.133-.132.266-.432.4-.565-.41-.32-.11-.14-.8-.4-.428-.3-.377-.24-1.197-.398zm-4.39 8.38c-.132.4-.474.924-.607 1.323.7.252.388.077.798.4.7-.253.597-.203 1.008-.525l.4-.4c-.533-.265-1.065-.53-1.597-.797zm6.618 15.166c-.925 1.28-2.012 2.076-2.793 3.59h1.763c.407-.08.564-.1.798-.398.356-1.274.925-2.006.232-3.192z"/></svg>