<svg xmlns="http://www.w3.org/2000/svg" width="368" height="337"><path fill-rule="evenodd" d="M214.19 2.782c1.832-.138 3.647-.16 5.444-.208 5.482-.148 10.788.045 15.9.696 22.165 2.82 40.674 12.972 54.047 28.26l.195-.007c-.14-2.068-.564-4.298-.508-5.11 1.173-.866 2.508-1.908 3.717-2.473.03-.014 3.74 1.514 5.69 2.686 2.997 1.8 11.34 14.378 14.844 19.12 12.655 17.123 25.486 34.038 37.41 51.92 4.555 6.115 9.322 13.142 13.877 19.257 1.65 2.366 2.71 22.084 2.258 24.292-.782 3.816-3.655 7.223-6.136 8.107.36 6.615-.83 13.024-1.783 18.466-.425 2.426-.712 4.973-1.18 7.387-3.23 16.722-8.232 33.004-15.178 45.922-1.596 2.967-4.616 7.972-5.927 9.427-1.496 1.607-2.73 3.343-4.226 4.42.268 2.273-.166 4.122-.408 6.396-1.007 4.724-2.6 9.783-4.738 13.563-2.165 3.83-5.966 8.44-10.645 10.915-5.793 3.067-16.397 3.18-21.66-3.726l-.193.006c-1.39 1.288-2.708 2.898-4.13 4.154-29.207 25.776-65.337 50.445-107.6 62.462-11.13 3.164-23.888 5.58-36.4 5.94-15.98.462-31.553-2.292-43.67-7.582-26.746-11.68-33.868-29.302-47.356-51.833-9.84-16.347-19.54-31.733-28.853-48.357-1.84-4.733-3.666-9.28-4.467-13.592-.162-.874-.603-1.684-.964-2.524l-4.94-7.785c-5.835-9.83-12.348-19.244-15.592-30.7-.333-1.18-.51-2.638-.59-3.828-.38-5.455.57-10.507 2.38-15.244 1.7-4.456 4.168-8.633 6.755-12.6 4.583-7.033 9.73-13.493 12.95-18.74 15.202-21.9 30.41-43.88 45.61-65.782 8.936-12.19 16.27-25.468 26.818-32.307 4.34-2.814 9.706-4.506 15.082-4.62 6.11-.13 11.827 1.867 16.574 4.527 3.443 1.93 6.448 4.44 8.298 6.71 1.668-.866 4.288-2.632 7.275-4.48 3.59-2.223 7.645-4.595 10.376-6.086 1.105-.603 2.175-.943 3.228-1.458.916-.447 1.82-1.08 2.72-1.477 3.964-1.75 7.91-3.105 12.86-4.793 1.012-.62 3.467-1.062 4.48-1.68 4.852-1.752 10.16-2.997 15.634-4.078 4.037-.798 8.277-1.498 11.913-2.288 4.174-.908 7.655-1.246 10.81-1.274zm51.406 73.997c-1.2.13-4.44.35-6.658.327-1.392-.014-1.672-.344-2.86-.263-.794.053-.994.69-1.613.81-1.1.212-2.08.33-3.1.495-.802.13-1.628.343-2.554.29-2.74-.162-4.33.755-6.7 1.147-1.55.256-2.98.74-4.322 1.068-1.164.04-1.747.238-2.91.28-1.32.4-2.976.903-4.377 1.38-.85.29-1.5.59-2.365.896-.943.334-2.327.112-3.267.454-.822.298-1.376.702-2.183.998-.94.345-2.13.58-3.032.91-1.08.393-1.298 1-2.292 1.35-.95.338-3 .468-3.9.66-.83.18-1.555 1.212-2.346 1.42-.98.254-1.55-.008-2.195.257-.706 1.153-1.394 1.622-2.17 1.983-.828.374-2.555.57-3.33.82-.79.257-1.507 1.133-2.264 1.392-.995.34-1.405.705-2.38 1.028-.75 1.164-1.976 1.462-2.726 2.2-.877.564-1.946.65-2.86 1.03-.705.293-1.51 1.396-2.17 1.72-1.056.517-2.03.68-2.65 1.332-1.11 1.17-1.857 1.94-3.29 2.744 2.114 3.406 3.93 7.51 5.225 11.933 4.956 16.92-4.517 29.086-11.254 38.49-2.46 3.518-5.03 7.11-7.493 10.63 1.592 6.26 1.147 9.292-.56 12.692-1.25 2.493-3.056 4.818-4.87 6.65-2.347 2.376-5.496 4.157-6.92 4.952-2.07 1.154-6.21 2.246-7.095 2.736-5.976 8.434-11.667 16.518-17.767 24.775-10.43 14.566-21.696 30.985-31.372 42.807l.007.194.976.158c4.638-.135 12.66-.474 18.706-1.506 10.705-1.826 24.63-5.293 34.423-9.387 10.41-4.353 20.178-8.627 29.46-13.745 9.55-5.265 18.502-11.592 27.478-17.615 3.685-2.473 7.413-5.48 10.872-8.243a619.38 619.38 0 0 0 15.182-12.496c3.815-3.248 7.706-6.58 11.865-10.314-.78-16.55 9.52-37.078 26.517-34.646 1.6-4.357 6.498-13.428 7.92-17.67 2.415-7.2 5.44-15.627 7.47-23.77.923-3.697 1.448-7.453 1.97-10.94.478-3.206.82-5.717.763-5.816-1.133-2.01-4.325-5.415-5.498-8.086-.582-1.326-.59-4.03-.85-6.26-1.975-.62-4.946-.867-7.1-1.185-1.28-.19-2.062-.657-3.367-.778a86.408 86.408 0 0 0-3.35-.242c-.704-.037-1.463.07-2.174.04-1.368-.058-2.75-.106-4.152-.156-1.45-.053-3.018.164-4.496.065zm10.022 91.342c-1.834 1.724-3.422 2.83-4.197 5.543 1.986-.904 4.75-2.722 5.754-4.125-.6-.496-.956-.92-1.556-1.418zm-11.345 58.81c-1.67 1.197-3 1.912-2.936 4.767.6 1.264 1.388 3.42 2.854 3.78 4.185-1.79 2.712-5.666.665-8.568l-.582.02zm-25.416 20.686c-2.882 2.226-3.695 4.74-.57 7.43 2.75.78 3.935-1.078 4.37-2.68-.06-2.557-1.02-3.324-2.054-4.812-.582.02-1.164.04-1.746.062zm-27.103 17.995c-1.337.996-2.264 1.24-3.005 2.826.697 1.205 1.528 2.74 3.15 3.49 2.012.933 4.53.368 4.738-3.29-1.435-1.758-1.592-3.167-4.884-3.027zm-29.38 14.786l-1.717.838c1.673 2.72 4.05 6.352 7.62 3.37a12.57 12.57 0 0 0-.008-.195c-1.842-2.082-1.95-4.087-5.896-4.014zm-29.946 9.907c.836 2.326 2.89 4.768 5.762 4.95-.62-2.25-2.845-5.062-5.762-4.95z"/></svg>