<svg xmlns="http://www.w3.org/2000/svg" width="225" height="242"><path fill-rule="evenodd" d="M111.148 1.045c6.3-.966 14.044.5 21.68 3.39 7.32 2.77 14.532 6.46 20.543 9.297 15.29 7.22 34.552 16.444 44.36 31.12 3.33 4.98 6.485 11.018 8.51 16.98.8 3.332 1.823 6.72 2.623 10.054.917 2.258 3.586 3.447 4.337 5.937.234 1.054 0 2.667 0 4 .55.45 2.024 2.95 2.462 4.463.134 1.866.07 3.167.205 5.034 1.466 1.333 3.13 3.233 4.595 4.566 2.136 2.955 4.497 10.13 3.804 14.8-1.022 6.887-11.203 28.124-17.146 41.6-6.79 15.394-13.755 30.532-20.4 45.6-3.594 8.148-6.618 16.215-13.185 20.764-3.954 2.74-10.294 4.39-16.56 3.624-2.31 3.352-6.17 3.484-8.913 4.712-1.216.544-2.53 2.027-4.462 2.575-2.063.586-4.327.167-6.01.883-3.934 1.676-7.855 4.48-11.928 6.255-5.275 2.298-9.36 3.508-15.813 4.197-8.124.867-20.674-.91-27.845-3.014-17.534-5.143-32.024-11.205-46.742-18.644-2.253-1.138-4.964-3.178-7.26-4.373-3.31-1.723-10.785-5.675-13.99-10.27-5.424-7.776-6.154-18.33-8.626-29.107-.133-4.533-.658-12.983-.525-13.975.067-.495-4.15-1.608-4.612-2.674.933-7.333 1.68-14.417 2.612-21.75 1.642-2.496 4.763-.662 4.8-4 .83-1.263.323-2.515.8-4.4 1.234-4.873 1.952-10.426 3.415-15.53 1.82-6.347 3.604-12.815 5.786-18.87 1.016-2.82 3.157-6.777 4.4-8.8-.1-3.44-.92-7.696-.25-11.6 1.842-10.682 9.845-17.88 20.65-13.6 10.483-22.276 26.795-39.62 47.2-52 4.304-2.04 8.76-3.97 13.048-5.49 2.44-.867 5.425-1.262 8.438-1.75zm36.577 30.653c.736-.273-35.692 7.65-58.462 56.588-.51 1.093.983 3.478 1.2 5.2.45 3.59-.456 9.956-1.693 12.857-1.158 2.716-3.717 5.5-6.106 7.046-1.398.905-3.73 1.407-4.2 1.953-2.175 12.65-12.226 23.164-14.252 37.518 2.19.78 4.55 1.444 4.65 4.626-1.017 2.357-1.747 15.316-2.25 19.75-1.746.873-4.594 1.196-5.088 1.777-.01 2.538.457 7.235.99 9.94 3.46 17.51 5.122 23.002 5.784 23.38 13.412-6.375 14.878-12.574 14.805-10.872.062-1.43-.93-3.538-.328-5.725.792-2.88 2.437-4.554 4.488-6.25-5.3-6.216-1.216-21.21 1.67-26.192.666-1.15 1.47-3.853 2.73-5.807.257-.4-1.4-2.124-1.6-2.8-.805-2.703-.327-6.834.54-8.018-.16-2.33 2.93-6.73 5.965-8.787 1.717-1.163 2.877-1.93 4.42-1.793.42.037.827-1.877 1.473-3.32 6.856-15.33 13.66-30.285 20.253-45.28 5.537-12.595 10.55-24.92 22.15-26.4-.936-9.36 4.962-10.323 5.765-10.76 1.414-4.19-1.01-17.05-2.903-18.63zm-59.788 7.67c.695.81.86.747 2.4.8v-.4l-2.4-.4zM74.862 54.072v.8h.8c1.448 1.17 3.046.596 4-.8a75.425 75.425 0 0 0-.4-.4c-1.997-1.38-4.093-.674-4.4.4zM66.41 69.235c-.373.365-.65.57-1.147.837l.4.4c.68.638 1.727.95 2.4 1.6.7-.253.388-.078.8-.4.73-.628.558-.353.8-1.6.378 0-1.427-1.512-3.254-.837zM79.936 97.91c-2.116 2.216-5.313 4.025-6.4 7.2h2c.388.1.152.315.4 0 1.595-.38 2.303-.904 2.8-2.4.897-.893 1.84-3.682 1.2-4.8z"/></svg>