<svg xmlns="http://www.w3.org/2000/svg" width="196" height="162"><path fill-rule="evenodd" d="M151.98 160.006c-36.096.8-61.374-10.614-86.478-20.874-2.7-1.104-8.156-.212-10.9-.116-5.253.183-13.388-1.418-16.506-3.326-7.147-4.373-11.355-11.667-16.246-18.345-6.512-8.298-14.146-16.66-18.603-27.45C-2.92 74.954 5.19 56.6 12.275 42.237c6.59-11.296 11.6-21.623 26.9-27.618 9.147-3.583 21.583-2.313 30.303-6.2 3.787-1.687 6.655-5.835 10.886-7.356 4.663-1.675 9.885.09 12.97 1.392 1.444.61 5.064 1.843 5.467 1.49.83-.827 1.684-1.46 2.512-2.29 5.738-3.088 14.46 2.36 16.376 5.273 1.142 1.738.51 5.31 1.49 5.963 2.378 1.823 6.007 2.756 9.01 3.93 9.247 3.618 17.915 7.85 26.86 11.743 6.14 2.673 12.33 5.163 15.966 10.214 3.503 4.865 2.137 14.09 5.32 19.34 4.996 8.24 11.98 15.684 15.28 25.517 6.135 18.28-4.543 43.34-11.8 56.184-3.275 5.36-6.35 10.105-11.29 13.686-3.13 2.27-7.165 4.246-11.076 5.506-1.78.574-4.07.124-5.467.994zm-5.963-20.377c3.766.347 5.386-1.15 5.842-4.1-.333 0-1.04-.374-1.37-.374-1.33 1.074-3.116 2.1-4.473 2.982v1.49zM45.622 129.19c-1.047-1.856-4.76-6.225-5.467-3.976 1.795 1.726 2.57 3.215 5.467 3.976z"/></svg>