<svg xmlns="http://www.w3.org/2000/svg" width="446" height="478"><path fill-rule="evenodd" d="M25.095 404.17l-4.533-1.02c-2.874-3.08-10.124-15.157-9.784-18.543.186-1.86 1.9-3.155 2.76-4.543-1.455-.43-5.087.078-5.573-.318-1.26-1.025-1.58-4.81-1.916-6.328-1.153-5.224-3.23-12.5-2.188-17.75.562-2.83 3.388-3.413 4.778-5.11-2.485-.38-3.79-.187-5.85.24-1.895-1.818-1.358-6.297-1.58-8.767-.35-3.886-2.113-15.07 1.705-19.303 1.69-1.873 4.176-2.64 6.108-3.934l-.7-.345-3.902-.536c-1.16.11-1.962.932-3.27.645-1.403-4.566.583-16.67 1.62-22.298.457-2.488 1.55-5.865 3.58-7.613 2.815-2.427 6.612-2.113 9.732-3.536C9.985 282 8.917 284.98 5 283.99l-.21-.278c.145-5.033 5.294-25.333 9.585-30.352 1.768-2.07 3.62-2.75 5.76-3.584-.138-.07-.278-.138-.418-.207-1.076-.073-3.233-.107-3.974-.744-.444-.45-.29-.143-.352-.695.038-3.53 6.245-14.027 7.905-19.2 2.502-5.305 5.004-10.614 7.505-15.92 6.973-14.14 14.39-26.917 21.514-39.753 2.634 1.333 8.276 5.826 11.248 6.068l-10.904-6.766c8.17-13.78 16.243-27.686 25.345-39.773l10.02-14.334 1.33.828-.003-.348-.982-1.18 11.962-16.155c9.416-11.47 18.323-23.284 28.025-33.588 2.573-2.732 12.07-14.602 14.616-14.847l.84.413c2.108 2.714 1.665 6.562 4.716 9.1l.068-.14c-1.17-3.07-2.578-6.774-1.798-10.44 1.41-6.628 12.06-13.242 15.932-16.107 1.976-1.463 6.97-5.98 9.09-6.11l.768.205c.966 2.972 1.065 4.942 4.01 7.362l.07-.14c-.054-2.397-.483-5.21.166-7.732 1.603-6.23 12.768-10.55 16.58-12.49 2.18-1.11 6.398-4.33 9.106-3.324.206 2.495 1.177 4.002 2.958 5.974.738-2.23.208-4.95 2.05-7.325 3.327-4.292 13.12-6.47 17.93-7.482 2.053-.432 4.427-1.987 6.89-.943.643 1.69.816 3.245 2.602 4.583l.07-.14c.295-1.598 1.563-4.557 2.825-5.38 3.377-2.198 17.31-2.9 21.862-1.72 1.705.44 2.688 3.28 3.716 4.436.596-1.01 1.378-2.62 2.213-3.078 2.1-1.15 16.99 2.447 20.718 5.528.75.832 1.496 1.664 2.244 2.496.746.42.886-.234 1.462-.148l4.263 2.624 29.238 22.407c14.245 11.018 28.495 22.04 42.74 33.06l16.16 12.31c11.034 9.418 21.54 20.557 27.062 32.1l.15 2.158c1.124 1.596 2.248 3.192 3.37 4.788 2.714 5.005 4.408 10.584 6.218 15.917l1.84 5.423c.066.77-.803 1.37-.824 2.024l2.54 5.767c1.348 4.128 5.344 20.684 2.92 24.363 3.113 6.09 3.113 13.658 3.735 20.598.26 2.915 1.304 5.846-1.42 8.157 4.065 5.11 2.977 20.105 4.398 27.002.97 4.714 4.92 6.273 7.602 12.224 3.244 7.2 4.93 16.496 3.68 25.12-2.4 16.52-17.296 34.89-26.56 47.45-20.136 28.038-40.278 55.8-60.415 83.84l-27.927 38.67c-10.013 12.582-16.487 22.944-28.54 28.995-7.76 3.898-17.048 4.936-26.658 3.35-2.625-.432-8.605-3.323-10.884-3.283-7.812.14-14.986 5.155-23.732 3.753-.993 2.704-3.91 2.343-6.045 2.75-5.732 1.092-12.586 2.952-19.423 2.057-1.526 2.818-4.96 2.025-7.37 2.27-4.63.47-9.39.972-14.205.983l-5.716-.735c-5.946 1.855-14.74.07-21.6-1.274l-5.442-1.642c-6.865-.925-13.956-5.198-21.913-7.68l-9.846-4.683c-18.853-8.6-37.71-17.206-56.563-25.81-9.323-4.414-19.61-8.528-28.013-13.172-.55-.305-.505-1.047-1.038-1.356-.65-.377-1.876-.32-2.498-.705-2.277-1.408-4.358-2.87-6.172-4.41-2.987-2.534-8.953-6.36-8.83-9.912.25-.628.503-1.256.755-1.885zm133.562-95.116l.838.413.486-.28.345-.7-1.048-.69.413-.838.762-.84.978.48c.45-.982.35-1.055-.427-1.6l.413-.837.83-.98 1.187.412-.073-.557-.423-.903c3.81-4.827 12.988-12.413 20.142-10.56l55.417-81.034c11.534-15.253 20.822-34.034 33.67-45.738 4.853-4.42 10.078-7.504 15.547-10.046 3.81-1.77 8.336-1.37 12.1-3.41 4.268-2.31 6.934-7.178 10.878-10.786 2.396-2.193 5.18-3.64 7.702-5.406-1.488-.27-2.975-.54-4.463-.812-1.19-1.422.284-4.552.593-6.48.58-3.64.31-11.864 3.05-15.34 1.27-1.17 2.54-2.337 3.81-3.505-.37-.184-.744-.368-1.116-.55-2.032-.363-3.557.085-5.226-.32-.706-1.928-.132-4.43-.035-6.618-.05-4.945-.1-9.892-.152-14.836.37-1.856 1.723-2.928 2.695-4.055-2.647-1.003-4.89-.253-7.174.108l-11.76 2.015c-3.662.756-7.24 2.464-11.344 1.873-1.675 4.76-4.448 4.047-8.12 5.548-5.992 2.45-12.836 7.165-19.532 7.212 0 1.143.102 2.06-.47 3.416l-8.468 5.2c-4.97 3.2-12.4 10.116-17.982 10.757l.502 2.503-12.745 13.166c-13.022 13.612-26.12 28.82-37.99 45.344a787.04 787.04 0 0 0-1.19-.76l.843 1.11-9.194 12.658a164660.7 164660.7 0 0 0-11.26 16.85c-4.493 6.065-8.998 13.045-12.707 20.13-2.238-1.308-7.47-5.322-9.782-5.52l9.435 5.87-10.9 18.935-6.824 13.133-6.822 13.48-9.906 22.554c-.824.61-1.598.235-2.505.5.765 9.192-4.388 20.544-5.545 30.262-1.017.863-2.037 1.153-3.267 1.34 1.188 6.56.847 13.56.533 20.755-.113 2.603.88 5.705-.162 8.43-3.75 1.724-.79 4.72-.443 7.943l1.61 14.34 1.147 5.775c-.14 1.175-1.533 1.815-2.076 2.45 4.46 5.178 4.216 18.81 9.254 23.492l.413-.838c.217-1.198.972-2.898 1.79-3.632 1.098-.982 13.903-6.94 15.01-6.84 1.112.163 1.604 1.535 2.52 2.286l1.98-7.186c1.022-3.398 3.517-6.286 3.85-9.215-.648-3.85-1.17-7.702-1.82-11.552-.47-4.99.505-10.648 2.642-16.175 2.83-7.315 7.843-16.085 12.278-22.08 1.475-1.992 5.02-5.904 5.11-8.246-1.977-2.577-1.052-16.443 1.432-18.048.596.056.505.093.974-.215l-.91-.97.687-1.746z"/></svg>