<svg xmlns="http://www.w3.org/2000/svg" width="259" height="223"><path fill-rule="evenodd" d="M157.642.06C173.477.003 177.612 8.22 180.5 12.5c8.082 1.33 8.64 4.87 9.905 4.84 1.09-.03 3.762.43 4.595 1.303 1.105 1.04 3.445 3.123 4.507 4.972 7.44 2.382 15.015 6.367 21.326 11.385 19.375 13.817 32.596 62.216 35.445 89.843.59 3.38 2.283 9.395.722 15.657-3.475 16.075-23.53 32.333-31 38 .328 2.86 1.42 3.764.92 5.74-7.226 2.524-12.837 9.157-20.44 11.472-1.167-.833-2.813-1.88-3.98-2.712-14.835 8.728-42.168 18.624-51.5 19.5-2.81 3.196-6.733 9.764-21 9.5-11.4-3.113-7.973-5.847-12.5-10.5-38.394 7.99-83.16-2.724-98-27-2.946-4.82-4.085-8.715-5.9-14.71-2.14-7.06-3.61-16.502-5.1-23.79-3.697-11.895-6.362-38.672-3.98-48.053C9.896 76.38 20.43 67.53 22 65c.71-4.28.984-7.944 4.958-9.684.798-2.07 2.22-5.578 6.915-8.71-.01-5.963 1.576-9.32 4.207-13.063 6.574-9.35 19.702-10.298 32.648-13.79C99.392 13.087 127.752 5.893 157.642.06zM209.5 88c-4.625 5.734-10.466 4.306-12 4-.75-.15.415 2.928-8.293 9.29-7.05 5.192-15.91 5.648-21.207 7.21-1.062.1.41 4.507-10.398 8.33-8.636 1.903-11.618-1.165-13.585-2.456-11.332 2.666-22.165 4.905-36.017 8.126-22.597 4.784-44.557 13.212-54 2.5-8.6 6.46-10.576 1.47-14 2.5-4.918 1.156-10.685 9.355-13 13.5v.5c13.87 9.477 41.75 20.547 72 14.5l13-1.5c1.015-1.735 4.4-7.737 13.645-10.73 12.73-2.425 12.71 2.6 15.772 2.23 17.177-7.61 30.133-5.63 39.79-11.645-.167-2-1.36-4.297-.207-5.855 6.666-3.833 17.057-11.387 20-11.5 1.464.686 3.314 3.31 3.736 2.993 2.46-1.853 13.25-9.784 24.063-27.05-8.02-3.733-10.906-4.848-19.3-4.943zM131 153.667c-1.57.14-2.893-.025-4.833 1.5-.167.333-.5.5-.667.833 3.25 1.06 6.59 1.35 10 1-.167-.5-.333-.833-.5-1.333-.887-1.668-2.353-2.038-4-2zM109 182c-.226.773-.204 1.938.5 3 .708.614 1.333.667 2 1 .234-1.292-.023-2.76-.5-4-.605-.465-1.24-.536-2 0zm-38.5 2c.6 1.802.51 2 1.5 2 .138-.395-.7-1.757-1.5-2zm18.5.5c.065 1.832.834 3.38 3.5 3.5-.667-2.58-1.112-4.288-3.5-3.5z"/></svg>