<svg xmlns="http://www.w3.org/2000/svg" width="411" height="498"><path fill-rule="evenodd" d="M195.5.5c21.09-2.06 47.868 18.147 70.804 28.058 16.782 9.013 40.433 20.953 61.227 31.35C347.974 70.127 361.683 78.562 367 87c7.438 10.256 11.907 27.553 15.5 42.5 9.05.175 18.445 6.04 17.477 17.335-.338 10.975-8.062 18.305-7.477 20.564 2.562 9.893 9.983 35.387 15.244 58.866 1.288 5.743 1.994 11.212 2.4 15.916.45 5.236-1.54 12.436-2.84 17.12-3.663 8.877-10.995 15.59-19.063 19.952-4.73 2.146-11.358 2.96-14.74 5.746-5.873 4.188-10.286 11.693-14 18-7.978 16.12-14.32 32.807-22 48.5-19.166 41.837-50.25 89.347-80.714 115.643-24.1 20.418-52.955 38.167-97.786 26.928-46.097-12.653-108.098-36.627-129.5-73.57-14.536-24.398-17.76-71.158-16.43-97.57 1.168-11.5 1.342-21.816 3.197-34.517-.673-4.25-2.157-12.035-6.866-22.01C4.34 255.68-.08 248.48.57 236.928c.38-6.697 9.368-16.885 14.522-23.874C23.026 202.493 30.032 192.074 37 181c3.02-4.71 6.255-8.894 9.488-14.617 19.652-34.785 40.193-71.5 76.155-105.597 11.217-10.636 19.968-18.854 39.286-29C166.773 11.254 180.65 3.444 195.5.5zm-6.66 189.73c-5.885 10.3-18.937 30.894-35.84 72.77-.95 6.147-.026 12.92.7 19.826 1.91 18.174 12.147 31.78 11.097 40.58.047 4.01-9.433 15.765-12.998 22.557-4.436 8.45-6.138 16.915-7.823 28.56-.46 5.78-.898 12.308.002 18.14 8.585-10.396 21.81-27.322 33.52-47.888 12.772-22.43 24.38-47.87 31-69.775 4.065-13.452 7.057-23.145 8.032-30.962 2.017-16.17-1.27-22.77-1.532-24.038l-1.5-5c-4.344-2.53-9.612-6.43-12.5-8.714-5.162-5.148-8.95-10.617-12.16-16.056zM77 265.5c-1.366 1.167-1.333 2.333-2 3.5-2.103 6.635 1.975 12.31 6.5 14h3c3.876-9.366.913-11.79-2.5-16.5-.922-1.146-3.018-1.792-5-1z"/></svg>