<svg xmlns="http://www.w3.org/2000/svg" width="328" height="286"><path fill-rule="evenodd" d="M173.035.414c8.802.202 12.43 1.49 17.29 4.915 1.423 1.42 3.17 2.816 4.592 4.237 3.644-.663 7.342-.118 10.706.736 1.754.612 3.976 2.17 5.692 3.553 5.324-.343 6.71 2.738 9.605 3.908 6.995 1.184 13.993 2.37 20.99 3.553 13.25 3.627 22.563 8.857 32.016 16.343 8.073 6.392 16.626 17.732 20.99 27.71l4.98 11.726c16.44-9.76 21.895 23.694 24.547 35.528 6.563 29.295.948 51.235-10.673 71.056-3.513 5.99-7.23 12.18-11.384 17.053.882 1.97 2.692 5.047 1.78 7.46-3.208 3.776-18.274 18.5-21.346 20.962-2.806.66-4.586-1.06-7.115-1.776-10.512 10.336-31.998 24.57-44.977 33.046-5.455 2.25-11.658 5.995-17.28 7.455-.854.873-3.335 8.26-16.363 14.367-11.885 5.572-24.725-.08-28.685-9.058-9.68 4.265-20.084 7.556-31.437 9.968l-19.566 1.776c-38.29.615-63.385-10.114-78.802-31.715-6.985-9.79-10.98-20.032-16.894-30.815C10.875 202.66 2.683 187.8.357 165.56c-.007-22.924 7.395-35.805 12.428-45.776 1.95-3.866 4.293-6.815 5.715-9.647.796-2.423.473-4.027.71-6.04.535-1.892 1.79-4.144 3.202-4.974.66-10.626 6.198-13.056 7.422-15.122-2.192-18.414 10.17-25.81 24.066-32.474 2.182-1.047 4.35-1.768 6.493-2.95 10.23-5.642 21.328-10.94 34.155-15.977.37-.147 1.396-.186 1.757-.354 8.19-3.808 16.422-7.523 24.65-10.93C118.266 6.232 142.357-1.6 149.77 8.172c5.1-2.13 9.803-4.343 15.297-6.038 2.423-.76 5.004-1.567 7.968-1.718zm27.963 19.126l.71 1.777h.357V19.54h-1.067zm29.883 72.477c.283 1.5.43 2.645 1.424 2.843-.475-.948-.95-1.895-1.423-2.843zM33.44 94.86l-.71 1.42 2.133 1.422-1.423-2.842zm215.584.355c-1.844.25-3.222.713-4.27 1.42-2.866 5.415-6.15 7.19-13.518 7.462-5.083 17.398-21.77 22.198-38.42 29.488l-64.39 29.133c-9.22 4.313-26.962 13.874-40.556 14.21-4.105-.084-7.45-1.47-10.728-3.064-3.773 5.18-9.95 6.596-14.9 4.95-8.06 4.373-17.092 18.87-19.552 31.51 22.582 9.808 66.063 8.21 90.716-3.55l11.384-3.554c1.82-4.938 3.073-6.825 4.98-9.237 6.034-8.147 21.67-18.405 35.22-11.014 13.44-12.096 31.433-12.9 50.515-26.292-.626-2.972-2.078-5.454-1.778-8.17 7.588-6.988 15.18-13.976 22.768-20.963l6.76 2.132c6.915-9.295 12.436-18.646 17.075-29.488-8.262-4.45-18.303-5.924-31.306-4.975zm-181.076 69.99c.474.947.95 1.895 1.423 2.842h.357v-.355l-1.78-2.487zM173.96 195.76c-4.354 1.145-6.947 2.392-9.25 5.328 5.567.794 11.36-.195 16.01-1.066v-.355c-.53-1.313-2.076-3.066-3.557-3.908-1.067-.12-2.135.117-3.202 0zm-22.767 42.277l-1.067 1.066c.453 1.547.915 2.416 2.134 3.198l1.78.71v-.354c-.71-1.676-1.293-3.708-2.847-4.62zm-27.037 8.527c.593 1.184 1.186 2.37 1.78 3.553 1.303.733 2.46.996 3.912.71-.31-1.822-.758-2.78-2.134-3.552-1.186-.882-2.372-.874-3.558-.71zm-23.835 4.263c.247.85.836 2.103 2.136 2.132-.712-.71-1.002-1.916-2.135-2.133z"/></svg>