<svg xmlns="http://www.w3.org/2000/svg" width="295" height="354"><path fill-rule="evenodd" d="M140.47.438c3.874-.447 8.323.015 12.79 1.56 15.102 5.23 33.553 17.44 37.746 18.715 11.417 5.856 29.358 14.324 45.74 23.42 11.07 6.148 22.836 11.713 25.792 17.84 5.295 7.296 8.475 19.602 11.033 30.235 6.44.124 13.962 4.668 12.1 13.16-.24 7.808-5.444 11.19-4.982 14.228 1.668 10.97 9.914 30.856 12.208 48.994a35.826 35.826 0 0 1-1.53 15.743c-2.61 6.315-9.09 12.126-14.592 14.94-3.368.643-7.202 1.575-9.61 3.556-4.18 2.978-7.32 8.318-9.964 12.804-5.678 11.47-10.193 23.34-15.66 34.503-13.64 28.717-35.81 63.677-57.494 82.383-16.938 13.464-37.645 26.985-69.554 18.99-32.848-8.99-76.524-25.946-92.173-52.287-10.093-17.61-13.01-50.38-11.745-69.36l2.49-24.544c.58-12.655-13.314-25.01-11.387-36.993.852-5.3 7.007-11.746 10.676-16.718 5.088-5.852 13.965-18.854 23.546-35.723C49.753 91.5 67.84 62.11 89.304 42.825c8.182-7.352 13.557-13.362 27.323-19.978C119.684 8.24 132.055 1.227 140.47.437zm-4.782 135.06c-4.188 7.327-13.436 21.687-25.466 51.68-4.062 16.275 9.174 34.497 7.83 44.107-1.413 5.538-6.184 9.966-8.898 14.583-3.44 5.854-4.305 13.045-5.694 20.986v12.806c19.34-19.498 37.24-56.5 46.397-83.507 3.754-11.072 5.684-20.027 6.076-26.53.44-7.31-1.063-12-1.41-13.43-.357-1.185-.858-2.596-1.676-3.688-7.58-3.41-12.504-10.02-17.16-17.007zm-79.56 53.46c-.973.83-.95 1.66-1.424 2.49-1.497 4.72 1.406 8.757 4.627 9.958h2.136c2.76-6.662.65-8.387-1.78-11.738-.656-.815-2.147-1.275-3.558-.71z"/></svg>