<svg xmlns="http://www.w3.org/2000/svg" width="186" height="162"><path fill-rule="evenodd" d="M74.368 3.757l.566-.19.2.3.217-.098c.025-.142.048-.283.07-.424l.67-.107.098.215.28-.388c2.673-.61 6.582-.663 8.024 2.23 8.933-4.162 15.27-6.065 21.38-2.63 1.417.796 3.095 1.745 4.18 3.326 2.45-.357 5.272-.08 7.224.97l1.994 1.382c.813.394 1.944.077 2.774.506 1.207.626 2.238 1.675 3.567 1.974 3.676.827 7.484 1.047 11.1 1.892 10.23 2.394 19.025 8.423 26.445 18.365 2.642 3.54 4.274 8.712 6.25 13.09 7.945-5.138 11.74 9.6 12.953 15.794l.884 3.97c1.118 7.154 2.287 14.21 1.437 20.616-.88 6.616-3.804 12.99-6.898 18.777a71.385 71.385 0 0 1-4.26 7.017l-2.776 3.67c.54 1.298 1.398 3.032 1.12 4.06-.28 1.033-2 2.08-2.8 2.896-2.175 2.16-4.35 4.318-6.527 6.477-.58.57-2.175 2.456-2.976 2.65-1.42.347-2.533-.868-3.73-1.18-4.803 4.59-10.417 8.592-16.11 12.835l-6.52 4.19c-1.982 1.352-4.298 1.958-6.433 3.368l-2.357 1.132-3.75 1.37-1.075 1.662c-.983 1.39-2.4 2.734-3.848 3.894-6.236 4.992-13.772 4.713-18.012.846-.952-.868-1.474-1.903-2.35-3.176-5.332 2.525-11.983 4.243-16.93 5.116-17.363 3.067-38.548 1.45-50.372-9.688-2.677-2.52-4.954-5.266-7.324-8.688l-6.16-11.303-3.99-7.522L9.198 120l-2.84-5.695c-.887-1.354-1.926-3.474-2.356-5.065-.5-1.848-1.445-3.324-1.827-5.045C1.195 99.768.574 95.473.533 91.44.458 84 3.626 75.705 7.003 69.49c1.226-2.142 2.303-4.51 3.53-6.652.504-1.002.41-2.252.652-3.36.33-.713.658-1.427.987-2.14l.773-.743c.233-.438.172-2.128.323-2.724.564-2.22 2.147-3.927 3.866-5.728-.756-2.427-.087-5.71.857-7.598.99-1.976 1.956-3.838 3.753-5.547 1.764-1.677 4.168-2.5 6.573-4.064l3.116-1.476c.992-.45 1.985-.898 2.978-1.347 1.867-1.32 4.583-2.466 7.054-3.584l9.69-4.387c2.038-.574 3.735-1.298 5.833-2.248 3.818-1.75 7.637-3.65 11.454-5.4-1.137-3.885 1.982-5.923 4.382-7.973.247.086.26.176.58.13-.054-.23-.064-.233.016-.4l.408-.25.256.276.324-.147.084-.102c-.04-.09-.08-.18-.122-.27zm58.654 85.454c-.656-1.453-1.49-3.106-1.193-4.22.257-.97 1.967-1.99 2.738-2.74l6.906-6.65c.6-.576 2.25-2.502 3.162-2.67 1.376-.252 2.593.93 3.81 1.212 3.288-3.902 5.69-8.736 7.936-13.055.64-1.23 1.487-2.6 1.802-3.946l-2.62-1.032-3.156-.92c-3.595-.768-9.903-1.908-14.338.03-.622 2.838-4.63 4.15-7.478 4.233l-.835 2.336c-1.1 2.128-2.46 4.167-4.485 5.944-2.58 2.266-6.602 3.966-10.407 5.688l-4.223 1.912-35.764 16.25-10.15 4.53c-4.1 1.855-8.206 3.79-11.786 4.224-2.62.318-5.026-.15-7.313-.735-.62-.264-1.24-.528-1.86-.79l-1.846 1.683c-2.115 1.68-4.826 1.844-6.45 1.027-2.45 1.086-3.572 2.926-4.724 4.552-2.284 3.226-3.62 6.093-5.312 9.45-.43 1.215-.857 2.43-1.285 3.647.052.018.105.038.157.058l1.652.622c2.945.812 5.733 2.107 8.613 2.393 7.33.728 14.718 1.185 22.845.27 3.155-.355 6.26-1.307 9.545-1.97 3.792-.768 7.62-3 11.535-3.917 1.224-.287 3.505-.98 3.687-1.8.377-.8.754-1.6 1.13-2.402.786-1.36 1.94-2.997 3.072-4.2 4.576-4.862 13.427-7.42 18.022-4.108 2.674-1.748 4.927-3.534 8.605-5.2l2.49-1.126c2.505-.7 4.918-1.834 7.457-2.983l2.87-1.3c1.232-.687 2.465-1.375 3.697-2.064l3.492-2.232zm-18.907-77.554l-.634-.104.62 1.22.015-1.116zM130.34 52.26c-.055.568.294 1.808.7 1.836l.053-.025-.754-1.81zm-28.003 61.505c-1.71-3.94-6.77-2.374-9.337.273.034.028.07.056.082.142 2.643.375 5.877.91 9.255-.415zM85.834 134.96l-1.083.49c.388 1.39 1.183 2.218 2.255 2.24l.054-.023-1.226-2.707zm-12.91 5.777c-.787-.684-1.512-1.28-2.68-.875l-.03.08c.737 1.713 1.717 2.69 3.268 2.173l.03-.078-.59-1.3zM39.576 95.162l-1.09-1.398.834 1.84a1.3 1.3 0 0 1 .055-.024l.276-.255-.073-.163zm-1.163-1.56l-.005.132c0-.044.002-.088.004-.133zM19.19 54.128c-.152.24-.303.484-.454.726.498.278.787.565 1.182 1.192l.054-.024c-.285-.632-.496-1.264-.782-1.895zm38.492 88.677c-.35-.28-.585-.595-.982-.73-.018.01-.036.017-.054.025l.147.325c.358.44.645.848 1.105 1a1.3 1.3 0 0 1 .054-.024l-.27-.596z"/></svg>