<svg xmlns="http://www.w3.org/2000/svg" width="306" height="253"><path fill-rule="evenodd" d="M129.5.5c11.63-.294 18.256 2.73 26 5.5 5.177-10.15 33.854-3.838 31 13.5 5.95 2.796 22.07 9.57 38.5 16.5 20.802 8.775 42.527 18.698 43.5 23 5.403 7.224 4.153 20.876 8.5 29.5 8.297 16.46 21.103 28.165 26.5 48 7.917 31.13-15.432 79.997-30.5 98.5-5.267 6.586-14.545 11.795-23.5 14.5-29.136 7.535-72.302-3.817-95-11-12.165-4.166-24.335-8.834-36.5-13-5.666-2.5-11.334-4.5-17-7-13.09-3.326-27.682.66-38.5-4-13.26-5.71-19.324-18.136-27.5-29C17.368 162.07-9.422 139.515 5.5 97c8.522-24.74 25.422-58.76 47-71 10.327-6.583 31.622-6.387 48.5-11 13.456-2.834 16.11-12.96 28.5-14.5zm-67 194c.968 5.145 4.71 8.19 10 9l-10-9zM237 213c-3.546 1.888-5.65 2.348-7 6.5h2.5c3.338-1.285 5.657-2.68 6.5-6.5h-2z"/></svg>