<svg xmlns="http://www.w3.org/2000/svg" width="187" height="138"><path fill-rule="evenodd" d="M147.237 135.638c-7.95 2.324-14.945-.067-21.593-1.048-12.693-2.044-25.362-3.99-38.055-6.035-6.767-1.005-16.013-1.96-21.1-5.764-2.25-1.68-4.166-3.718-5.69-6.62-1.253-2.384-1.63-5.515-2.93-7.62C52 99.055 40.784 98.23 11.928 77.878 7.838 74.993.793 69.587.418 61.753.17 56.547 1.886 51.77 3.357 47.43c1.798-5.304 3.76-10.25 5.657-15.45 2.37-6.49 4.43-13.864 8.994-19.09 3.49-3.997 10.342-7.103 14.42-9.118 1.838-.908 4.738-2.45 6.92-2.766C42.426.562 45 .236 47.54.596c2.912.413 5.304 1.7 7.81 2.79l4.214 2.402c1.09.107 2.164.154 3.254.26 2.886.52 5.774 1.04 8.66 1.558 7.848 1.62 15.58 3.65 23.12 5.832 17.274 5 34.004 10.72 50.386 17.235l11.697 5.124c8.827 3.716 19.866 9.076 26.177 16.68 7.215 8.695.567 19.18-1.69 26.844-2.46 6.507-4.94 13.085-7.4 19.59-1.574 4.273-3.163 8.536-5.793 12.668-1.053 1.655-2.572 3.29-3.975 4.728-1.243 1.365-2.276 1.86-3.472 2.843l-1.24 3.333c-.972 2.445-2.217 5.137-3.822 7.223a18.655 18.655 0 0 1-5.433 4.763c-.947.414-1.85.753-2.796 1.168z"/></svg>