<svg xmlns="http://www.w3.org/2000/svg" width="352" height="377"><path fill-rule="evenodd" d="M92.13 357.323c-19.927-6.735-41.337-10.416-54.92-23.602-4.452-4.32-9.413-11.823-11.827-17.447l-3.938-8.99c-2.362-.273-4-.87-5.17-2.02-5.738-5.624-7.402-17.426-9.093-25.283-.626-2.908-1.27-6.367-.46-8.985.606-1.953 1.624-3.333 3.813-4.714l-.818-8.786C7.952 246.208 7.26 233.67 5.93 221.89c.128-3.245-.024-6.49.105-9.734-.442-4.698-1.057-12.237.11-16.778.363-6.883.878-13.497 1.242-20.38.867-4.422 1.465-9.315 2.628-12.743-7.044-12.34-7.522-51.747 28.48-51.9C60.82 61.286 101.512 6.214 148.1.406c19.697-2.456 43.76 6.897 64.45 14.096 6.544 2.28 35.402 9.398 51.088 17.24 24.95 12.47 38.712 36.662 46.358 59.645 1.67 5.023 3.44 10.585 3.73 17.367 18.047 5.493 29.545 14.71 31.795 30.163 1.662 11.404-3.883 27.01-7.77 41.514-7.338 27.387-30.402 120.275-36.865 132.823-2.385 4.632-5.132 8.386-8.426 10.85-10.427 7.803-21.573 8.617-37.778 5.293-20.99 28.76-50.026 46.148-86.613 44.15-4.27-1.04-8.542-2.078-12.812-3.116l-46.606-9.632-16.522-3.475zm38.292-22.108c5.106-3.543 12.66-7.14 17.528-12.122 5.15-5.27 9.692-11.077 14.63-16.706l-.136-.672c-11.786-8.562-18.043-17.737-17.117-35.195.194-3.653 3.61-17.584 4.615-21.332-10.702-13.558-.858-36.217 10.318-37.86 18.662-67.88 26.65-108.637 36.156-117.224 7.648-6.91 15.464-11.017 25.686-11.038.017-8.168-10.944-36.04-15.61-40.04l-15.174 9.26c-8.768 6.84-18.312 14.797-25.677 23.585-11.176 13.336-20.402 28.86-30.34 44.548-4.203 8.182-8.997 16.54-13.2 24.723 4.306 10.496 4.13 19.502 2.89 26.272-3.258 17.787-18.304 22.902-18.234 23.58-1.92 8.912-2.002 18.966-1.725 26.858-.408 6.66-.584 13.32-.994 19.98.367 11.5 1.344 24.016 3.73 34.637 8.037 2.55 12.303 24.182 13.394 31.608l-2.063 7.698c.48 4.666 8.233 15.814 11.325 19.442zm-29.215-156.562c3.536-1.162 8.885-7.188 8.91-14.867-4.01 5.285-9.104 11.067-8.91 14.867zM87.217 123.4c.534-.808 1.07-1.617 1.603-2.426l-.513-.454c-2.845-.802-5.533-2.185-8.095.712 1.795 1.256 4.688 2.01 7.005 2.17zM98.92 95.12c2.184.275 2.984.053 4.325-.744.23-.467.462-.934.693-1.4-2.947-1.687-7.92-2.474-8.867 1.114 1.284.343 2.567 1.188 3.85 1.03zm18.274-26.664c1.066-.032 1.86-.41 2.925-.44l-.435-.75c-1.08-.45-3.234-1.29-4.758-.007l-.08.295c.69.185 1.656.716 2.347.9z"/></svg>