<svg xmlns="http://www.w3.org/2000/svg" width="215" height="238"><path fill-rule="evenodd" d="M18.017 210.7l-2.272-.228c-1.604-.974-5.842-6.792-5.878-8.465-.02-.918.74-1.652 1.077-2.38-.736-.124-2.478.34-2.738.177-.676-.425-1.058-2.253-1.312-2.973-.873-2.48-2.64-5.497-2.124-8.53.238-1.397 1.45-1.866 2.027-2.777-1.235-.037-1.86.135-2.84.466-1.033-.775-1.038-2.992-1.293-4.184-.402-1.876-1.93-7.227-.318-9.52.713-1.014 1.88-1.536 2.746-2.283l-.362-.126-1.936-.03c-.56.123-.902.572-1.557.51-.957-2.144-.71-8.167-.538-10.975.074-1.24.406-2.953 1.292-3.927 1.23-1.35 3.1-1.424 4.537-2.305-3.16-1.154-3.504.362-5.474.112l-.12-.122c-.228-2.464 1.075-12.675 2.87-15.38.74-1.114 1.603-1.557 2.597-2.09l-.217-.077c-.53.028-1.584.14-1.983-.126-.243-.193-.15-.053-.213-.318-.325-2.063 2.21-7.217 2.713-9.838.904-2.74 1.81-5.477 2.713-8.216 2.56-7.313 5.417-13.988 8.128-20.675 1.365.495 4.385 2.35 5.85 2.292L17.67 96.06c3.166-7.21 6.276-14.474 9.997-20.913l4.035-7.59.697.325-.022-.17-.55-.517 4.874-8.594c3.91-6.156 7.552-12.45 11.672-18.055 1.092-1.486 5.02-7.843 6.246-8.114l.434.153c1.19 1.198 1.204 3.102 2.843 4.158l.025-.07c-.753-1.43-1.66-3.152-1.5-4.987.294-3.318 5.096-7.18 6.814-8.807.878-.83 3.044-3.333 4.072-3.523.13.02.258.037.386.055.65 1.392.814 2.347 2.396 3.352l.025-.072c-.17-1.166-.546-2.513-.38-3.783.41-3.135 5.6-5.907 7.345-7.08.998-.672 2.864-2.494 4.245-2.164.25 1.205.813 1.883 1.8 2.74.226-1.133-.194-2.428.562-3.697 1.368-2.292 6.016-3.938 8.302-4.718.975-.333 2.04-1.233 3.305-.87.415.786.59 1.534 1.542 2.08.01-.023.017-.048.026-.072.05-.797.49-2.316 1.058-2.792C99.44 1.058 106.194-.115 108.485.19c.858.115 1.507 1.44 2.078 1.944.23-.528.515-1.36.896-1.633.955-.688 8.434.18 10.437 1.462.414.36.828.723 1.242 1.084.39.16.42-.167.705-.16l2.236 1.027 15.6 9.19 22.82 13.584 8.616 5.043c5.945 3.94 11.734 8.747 15.115 14.05l.202 1.044 1.93 2.135c1.62 2.28 2.78 4.9 3.98 7.394l1.22 2.536c.08.37-.31.716-.28 1.037l1.582 2.662c.904 1.932 3.84 9.772 2.875 11.71 1.88 2.786 2.332 6.48 3.048 9.828.3 1.406.985 2.774-.206 4.064 2.288 2.25 2.65 9.63 3.754 12.91.754 2.243 3.028 3.874 4.368 5.828 2.195 3.205 3.456 7.438 3.36 11.72-.187 8.202-6.272 18.02-10.148 24.59l-24.465 44.642-11.32 20.53c-4.137 6.735-6.678 12.175-12.197 15.845-3.555 2.364-8.024 3.424-12.807 3.223-1.306-.055-4.396-1.11-5.506-.954-3.802.533-7.004 3.408-11.354 3.244-.323 1.38-1.77 1.377-2.785 1.702-2.73.874-6.147 2.583-9.352 2.16-.577 1.466-2.3 1.284-3.46 1.546-2.232.505-4.523 1.034-6.872 1.326l-2.833-.018c-2.79 1.26-7.188.913-10.614.665l-2.753-.476c-3.405-.042-7.12-1.705-11.15-2.442l-5.082-1.698c-9.71-3.074-19.422-6.15-29.132-9.223-6.918-2.297-14.77-4.174-19.573-7.336-1.608-1.06-4.747-2.57-4.9-4.31l.257-.965zm59.497-54.36c.144.05.29.1.433.152l.22-.166.127-.36c-.184-.093-.37-.184-.553-.276.052-.144.102-.29.153-.433l.32-.456.507.178c.162-.506.108-.535-.303-.755.05-.144.1-.29.152-.433l.345-.528.604.13-.07-.267-.26-.415c1.57-2.582 5.597-6.83 9.198-6.35l22.21-42.836c4.72-8.13 8.132-17.845 13.703-24.32 2.105-2.446 4.47-4.262 6.987-5.828 1.753-1.09 3.985-1.165 5.7-2.384 1.945-1.38 2.956-3.915 4.665-5.91 1.038-1.212 2.31-2.084 3.436-3.096l-2.226-.13c-.666-.623-.133-2.238-.097-3.197.067-1.81-.556-5.807.574-7.667l1.65-1.937-.578-.202c-1.013-.056-1.73.254-2.57.155-.458-.9-.327-2.154-.41-3.227-.32-2.41-.64-4.82-.958-7.23.07-.926.666-1.53 1.073-2.137-1.35-.33-2.4.168-3.493.48-1.873.56-3.745 1.123-5.618 1.684-1.74.587-3.385 1.633-5.422 1.59-.534 2.42-1.93 2.238-3.63 3.19-2.78 1.55-5.837 4.26-9.1 4.68.067.56.17 1-.027 1.696-1.273 1.013-2.548 2.028-3.822 3.04-2.234 1.858-5.446 5.675-8.132 6.32l.394 1.192-5.433 7.182C91.72 74.887 86.237 83.087 81.43 91.855l-.625-.3.477.492-3.732 6.723-4.49 8.89c-1.83 3.228-3.613 6.9-5 10.578-1.17-.504-3.962-2.15-5.102-2.11l4.953 2.3c-1.395 3.297-2.793 6.594-4.19 9.89l-2.546 6.813-2.525 6.984c-1.165 3.864-2.328 7.73-3.49 11.593-.367.346-.767.21-1.193.393.92 4.44-.917 10.284-.904 15.094-.444.482-.924.684-1.513.85.97 3.128 1.22 6.564 1.495 10.093.1 1.276.77 2.73.423 4.122-1.727 1.063-.105 2.348.257 3.9l1.64 6.9c.3.917.602 1.833.903 2.75.002.58-.64.976-.867 1.318 2.485 2.26 2.946 9.432 5.915 10.91l.15-.433c.036-.598.303-1.472.66-1.88.475-.543 6.368-4.212 6.913-4.23.553.014.875.653 1.366.965.18-1.207.36-2.415.538-3.623.297-1.72 1.342-3.277 1.33-4.725-.546-1.84-1.09-3.68-1.637-5.52-.526-2.407-.085-5.182.387-8.057.653-3.98 2.868-8.314 4.675-11.502.6-1.06 2.097-3.18 2-4.328-1.116-1.14-1.49-7.96-.375-8.89.295-.01.252.014.463-.163l-.503-.42.232-.892z"/></svg>