<svg xmlns="http://www.w3.org/2000/svg" width="454" height="454"><path fill-rule="evenodd" d="M249.5 1C330.544-.344 407.77 78.486 426 137.5c5.955 19.59 3.01 44.043 7 67 1.333 6.166 1.584 12.417 4 18.5 3.894 5.142 11.13 9.25 11 34-.282 16.085-32.012 50.175-54 81l-55 73c-9.935 13.455-19.158 29.066-36.5 35-12.887 4.41-24.654-1.743-34-4l-19 2c-20.984 4.59-44.91 12.59-71 7.5-28.616-5.583-51.083-16.365-74-26.5-38.852-17.182-69.902-40.926-83-84-3.687-12.124-4.18-24.048-6-38.5-1.33-14.7-.635-38.845.5-45.5 3.736-23.347-.985-46.116 7.5-64.5 5.208-11.285 16.777-22.065 27-28.5 5.23-3.292 11.616-5.932 15-11 35.645-53.378 70.363-103.71 128-135 11.216-6.09 24.07-10.905 37.5-14.5 6.388-1.523 11.946-2.42 18.5-2.5zm-33 56c.658 1.177 4.45 2.687 7 1.5V58c-1.24-1.5-4.667-.667-7-1zM320 73c-8.175 1.155-16.01 2.6-23.5 5-16.985 5.813-33.006 15.643-47 24.5-.904.87-2.276 1.28-3 2.5-1.358 6.422-6.683 17.986-13.5 25.5-17.295 17.788-36.068 34.69-50 62-4.478 8.777-8.406 18.217-11 28.5-1.666 8-3.304 15.74-5.5 24-3.05 7.643-8.724 13.634-14 19.5-8.14 8.604-18.26 16.124-24 27l-5 31.5c-1.662 6.763-3.713 14.076-7 19.5L112 348c-3.33 8.954 6.836 38.475 10 42 10.808-2.905 26.884-11.1 29.5-22 2.23-9.293-2.123-18.95.5-27.5 3.362-10.96 10.68-19.314 16.5-28-5.428-14.14 7.388-32.18 15.5-37l13.5-4 80-110c12.727-15.944 40.544-13.79 47.5-33.5 7.415-21.01 6.716-36.34 3-55h-8zM48 190c-4.334 6.088-8.39 10.156-5.5 19h.5c.532-4.6 6.926-16.81 5-19zm95.5 42c-1.603 3.24-3.45 7.136-4 11l1-.5c1.267-3.13 3.443-5.386 4-9.5l-1-1z"/></svg>