<svg xmlns="http://www.w3.org/2000/svg" width="154" height="165"><path fill-rule="evenodd" d="M40.548 156.776c-8.71-2.944-18.068-4.553-24.005-10.316-1.945-1.89-4.114-5.17-5.17-7.627l-1.72-3.93c-1.032-.12-1.748-.38-2.26-.882-2.508-2.457-3.235-7.615-3.974-11.05-.275-1.27-.556-2.782-.202-3.927.265-.854.71-1.457 1.667-2.06-.12-1.28-.24-2.56-.358-3.84-.77-4.934-1.074-10.414-1.656-15.563.057-1.418-.01-2.837.048-4.255-.194-2.053-.396-5.23.114-7.214l.476-9.026c.38-1.932.76-3.865 1.138-5.798-2.388-4.95-3.68-22.397 12.416-22.433C26.82 27.405 44.65 3.31 65.012.773 73.62-.3 84.138 3.787 93.18 6.933c2.86.996 15.473 4.108 22.33 7.535 10.905 5.45 16.92 16.025 20.262 26.07.73 2.196 1.503 4.627 1.63 7.59 7.888 2.402 12.913 6.43 13.897 13.185.727 4.985-1.696 11.806-3.395 18.145-3.208 11.97-13.36 52.5-16.185 57.984-1.043 2.024-2.243 3.665-3.683 4.743-4.557 3.41-9.357 3.766-16.44 2.313-9.174 12.57-21.866 20.242-37.857 19.368l-5.6-1.362-20.37-4.21-7.222-1.518zm16.737-9.663c2.232-1.55 5.533-3.12 7.66-5.3 2.253-2.303 4.237-4.84 6.396-7.3l-.06-.294c-5.15-3.744-7.885-7.754-7.48-15.385.085-1.596 1.534-7.457 1.973-9.095-4.677-5.926-.258-16.176 4.626-16.895 8.156-29.67 11.575-47.365 15.73-51.118 3.343-3.02 6.76-4.815 11.227-4.824.007-3.57-4.784-15.895-6.823-17.645-2.21 1.35-4.493 2.7-6.704 4.05-3.832 2.988-7.932 6.61-11.15 10.45-4.887 5.828-8.92 12.614-13.263 19.47-1.837 3.577-4.036 7.23-5.873 10.806 1.882 4.588 1.805 8.524 1.263 11.483-1.424 7.774-8 10.01-7.97 10.307-.838 3.895-.77 8.29-.65 11.74-.18 2.91-.256 5.82-.435 8.732.16 5.026.588 10.496 1.63 15.14 3.513 1.113 5.378 10.568 5.855 13.814-.3 1.122-.6 2.243-.902 3.365.21 2.04 3.6 6.912 4.95 8.498zm-12.77-68.43c1.546-.51 4.066-3.143 4.077-6.5-1.753 2.31-4.16 4.838-4.076 6.5zM38.33 54.317l.7-1.06-.224-.2c-1.244-.35-2.418-.954-3.538.312.784.55 2.05.88 3.062.948zm5.115-12.36c.954.12 1.304.022 1.89-.326.1-.205.202-.41.303-.613-1.288-.737-3.46-1.082-3.876.487.56.15 1.122.52 1.683.45zM51.432 30.3c.466-.013.812-.178 1.278-.192-.063-.11-.126-.22-.19-.328-.472-.196-1.413-.563-2.08-.003-.01.043-.022.086-.034.13.302.08.724.312 1.026.392z"/></svg>