<svg xmlns="http://www.w3.org/2000/svg" width="364" height="314"><path fill-rule="evenodd" d="M222 .5c24.98-.986 31.16 16.73 32.5 18 5.6-.05 12.983 4.728 13.767 6.68 3.477-.173 4.222.913 6.233 1.82 2.505 2.06 4.167 4.334 6 6.5 4.905 3.017 21.945 6.456 39.5 25.5 20.206 23.11 30.054 62.002 37.5 99.5.418 5.385 2.348 5.95 2.5 20 2.27 6.8 2.484 14.97 1.183 21.867-5.11 18.11-29.466 41.63-43.683 51.633.167 2.833 1.54 6.13.5 8.5-5.653 2.804-25.48 15.694-28.46 15.95-2.982-.987-5.73-4.308-7.04-3.45-11.417 6.472-24.156 11.816-36.907 17.034-8.276 3.808-27.383 9.26-34.593 9.466-4.097 4.548-10.375 11.622-21.39 13.345-20.114 3.146-25.513-14.51-25.777-14.968-22.57 3.74-39.746 3.452-47.708 3.077-25.105-2.66-47.317-8.074-65.21-18.65-20.66-12.216-28.714-25.916-33.08-45.784-.56-2.56-1.79-5.05-2.34-7.792-2.05-10.187-4.25-21.533-6.775-34.538-3.274-15.262-6.222-41.365-2.657-58.69 4.705-19.786 14.516-32.763 24.695-45.547.99-3.493.808-7.132 3.242-9.953.852-1.12 2.2-2.008 3.502-2.838.37-.236.37-.362.518-.735C40.305 70.643 45.286 65.815 47.5 65l.5-6c1.277-5.62 3.84-10.567 7.57-14.93 9.672-11.303 32.237-13.5 49.43-17.856 27.164-6.332 54.336-12.31 81.5-18.643C198.332 5.24 209.51 2.373 222 .5zm75 124c-1.1.114-1.083.003-2.58.348-5.208 6.968-11.77 6.007-16.92 5.152-4.827 10.725-15.97 17.05-27.704 20.126-4.166.833-9.13 2.04-13.296 2.874-1.667 2.333-2.853 4.256-5 6.5-2.24 1.952-5.848 3.87-8.5 4.774-4.803 1.676-16.164 2.146-20.5-3.274-2.005-.026-7.148 1.692-10 2.3-23.83 5.333-46.895 11.167-71.5 16-6.84 1.653-20.405 5.005-30 3.63-7.15-1.226-11.54-3.13-16.25-7.128-9.464 7.85-15.49 2.905-18.75 2.698-5.688 2.634-17.01 14.248-19 19.5 5.404 3.808 11.5 7.167 17 10.5 10.964 4.853 23.33 7.944 36.304 10.68 10.302 1.94 23.182 2.472 34.853 1.747 13.7-.852 26.002-2.914 31.414-3.782 4.55-7.904 15.53-17.034 30.094-15.518 3.978.77 7.53 1.332 10.336 4.373 1.407.2 7.957-3.94 14.85-5.302 5.718-1.394 14.21-2.89 22.436-4.7 7.87-1.732 15.494-3.76 20.214-5.998-.41-3.202-2.1-7.09-1-8 8.832-5.333 18.168-11.167 27-16.5 2.214-.49 5.576 2.75 7.28 3.828.23.146.583-.556.863-.685 9.376-6.524 26.61-26.02 32.357-36.643-.333-.167-.667-.505-1-.67-5.762-3.366-14.81-6.584-23-6.83zM175.5 219l.5 1 13.5 1.5c-.552-2.71-1.28-3.504-3.5-4.5-4.724-.595-6.315-.574-10.5 2zm-23 37v3.5l2 2h1.5l-1-5.5h-2.5zM98 258.5c.467 2.167.68 2.35 2 3.5l-2-3.5zm26 .5l1 4.5 4 1-1.5-4.5-3.5-1z"/></svg>