<svg xmlns="http://www.w3.org/2000/svg" width="269" height="226"><path fill-rule="evenodd" d="M107.958 2.452c11.165.91 24.52 2.868 37.24 4.357 2.877.02 6.454.065 9.123-.833 6.096-2.05 11.765-5.54 18.54-4.875 2.708.265 5.33.814 8.253 1.932 3.692 1.412 7.88 5.47 9.264 6.298 3.878-1.754 9.935-.554 14.794 2.242 3.356 1.93 6.01 4.672 6.856 7.52.883 2.97.908 4.957-1.17 8.988 6.16 5.607 17.558 15.686 28.124 25.49 10.976 10.184 20.81 18.902 24.067 23.063 4.605 5.888 4.743 10.357 5.048 13.67.94 10.214-5.855 22.74-9.208 35.215-.035.13-.025.27-.036.405-.43 5.1-2.034 10.748-3.526 16.766-2.768 11.173-6.804 21.38-10.74 32.823-2.92 8.483-7.76 20.853-14.89 28.412-7.344 7.788-14.545 12.36-22.743 15.56-19.958 7.796-45.094 7.09-70.62-.488-33.09-9.824-66.54-32.027-97.666-55.076-4.524-1.364-8.166-1.994-12.617-3.93C15.63 156.136 7.87 145.38 5.01 138.95c-2.165-4.865-2.523-10.077-3.197-15.35-2.32-18.167-.527-32.125 6.32-52.83 4.88-5.903 10.27-34.183 33.902-51.373C56.14 9.137 77.338 2.247 107.958 2.452zm-92.64 128.376c.687 3.804.907 7.282 3.818 10.538.01-.115.017-.23.025-.345-1.28-3.396-2.56-6.795-3.842-10.192zm42.323-61.03c8.17 7.008 9.476 13.82 13.436 21.302 3.133 5.917 7.598 11.48 12.428 17.08 3.95 4.58 25.63 21.155 34.393 24.834 5.585 3.606 12.915 11.046 14.442 12.752 9.62 6.73 34.302 14.853 55.355 16.028.052-.09 0-.512.05-.6-11.267-9.256-22.44-18.955-33.61-28.52-9.25-8.54-20.02-16.063-27.756-25.293-2.132-2.542-3.564-5.624-4.66-8.517-1.047-2.773-.708-5.21-1.445-7.28-.83-2.324-1.85-4.67-4.968-7.738-3.807-3.744-10.482-6.843-15.334-8.402-11.385-3.66-22.488-5.483-33.036-5.55-3.156-.02-6.476-.222-9.296-.096zm-7.41 13.958l3.052 5.768-.354-1.83c-.57-.817-1.592-3.86-2.698-3.938zm100.923 108.16c2.844 4.824 9.62 3 10.527-.77-3.57-2.605-8.28-2.948-10.527.77zm29.957 5.91c2.813.37 6.273-1.31 7.75-4.575-2.94-.208-5.74 1.045-7.75 4.575z"/></svg>