<svg xmlns="http://www.w3.org/2000/svg" width="164" height="138"><path fill-rule="evenodd" d="M12.827 27.075C26.027 3.518 47.123 1.692 65.852 1.8c6.784.552 14.94 1.588 22.67 2.492 1.748.012 3.92.04 5.543-.505C97.768 2.542 101.212.42 105.33.825c1.644.16 3.324.668 5.1 1.347 2.243.858 4.788 3.323 5.628 3.826 2.356-1.065 5.867-.536 8.82 1.163 2.038 1.174 3.65 2.84 4.164 4.57.536 1.804.605 2.763-.657 5.213 2.412 2.196 4.824 4.517 7.236 6.713 5.678 5.225 11.7 10.634 17.377 15.86 4.898 4.45 6.78 6.066 8.663 9.372.964 1.69 1.52 3.76 1.717 5.774.54 5.504-3.483 13.746-5.52 21.325-.02.08-.402.833-.41.915-.26 3.098-1.192 6.356-2.098 10.013-1.683 6.788-4.222 13.162-6.614 20.116-1.773 5.155-4.8 12.713-9.133 17.307-4.462 4.73-8.88 7.122-13.86 9.067-12.128 4.736-27.4 4.308-42.91-.297-20.104-5.97-40.33-18.608-58.74-33.493-2.748-.83-5.415-1.29-8.12-2.466-6.328-2.34-10.763-8.594-12.5-12.5C2.158 81.692 1.81 78.32 1.4 75.116-.01 64.078 1.14 55.84 5.3 43.26l4.94-11.273 2.587-4.912zM9.685 79.582c.417 2.312.55 4.425 2.32 6.403l.015-.21c-.78-2.064-1.557-4.128-2.335-6.193zm25.34-37.143c4.963 4.257 5.756 8.584 8.162 13.13 1.903 3.594 4.717 6.992 7.778 10.28 2.684 2.885 6.18 5.082 9.628 7.898 3.873 3.405 16.556 9.497 19.816 15.035 13.952 7.097 24.33 9.597 34.192 9.66l.096-.16C106.526 91.018 81.1 70.166 77.383 65.73c-1.294-1.544-2.165-3.417-2.83-5.175-.637-1.684-.213-3.12-.662-4.38-.502-1.41-1.122-2.837-3.017-4.7-2.313-2.276-7.18-4.784-10.13-5.73-6.916-2.224-13.662-3.207-20.07-3.247-1.92-.013-3.935-.136-5.65-.06zm-4.197 8.552c.62 1.167 1.237 2.336 1.855 3.504l-.215-1.11c-.345-.498-.967-2.348-1.64-2.394zm61.406 65.87c1.577 2.488 5.23 2.038 6.396-.468-2.17-1.583-5.03-1.792-6.396.467zm18.244 3.502c1.71.225 3.812-.794 4.708-2.78-1.785-.126-3.486.636-4.708 2.78z"/></svg>