<svg xmlns="http://www.w3.org/2000/svg" width="316" height="340"><path fill-rule="evenodd" d="M5.5 270c-.552-3.866-4.663-12.276-3-17l3.5-4H2.5c-.484.126-.19.392-.5 0-2.682-3.742-1.42-13.403-1-18.5 1.538-1.075 3.68-2.626 5-4-1.024-.356-2.337-.497-4-.5-.536.376-.473.3-1.5.5-.14-7.805 1.076-14.07 2.5-20 1.354-.848 2.485-2.357 4-3 1.346-.57 2.948-.273 4-1-2.276-.99-5.9-.432-8-1 2.15-6.516 2.696-13.573 5.5-19.5.982-2.076 3.464-2.91 4.5-5-2.082-.165-1.838.093-2.5-1.5 3.6-8.086 15.56-36.98 26.5-52.5.683.66 1.59 1.06 2.5 1.5-.67-.887-1.535-1.426-2.5-2l.5-1.5c18.956-33.395 58.92-82.438 63.416-83.62.497 2.39 2.135 4.192 3.084 6.12h.5v-1c-1.415-1.938-1.31-6.525 0-8.5 2.875-3.293 14.255-13.516 17.5-13 .175 2.64 1.074 3.227 2 5h.5l.5-6.5c1.776-3.197 10.34-8.403 18-10.5.17 1.566.52 2.346 1 3.5l1.5.5c-.02-3.048.776-5.175 3-6 3.04-2.816 10.42-4.604 15.5-5l1.5 3.5.5-.5c1.2-1.566.866-2.72 3-3.5 3.476-2.498 10.752-1.194 15.5-1 .4 1.345.92 1.853 1.5 3 1.646-1.623 1.516-2.455 5-2.5 3.41.714 10.436 3.24 11.274 3.895.545.427 1.174 1.81 1.726 2.105l3 .5c3.25 1.925 5.97 4.812 9 7-12.017-8.677 35.48 25.71 62.508 49.154 5.177 4.49 9.413 10.8 12.376 16.11.147.264-.062.71.08.97 1.377 2.527 2.804 4.6 3.536 6.266 1.73 3.935 3.172 8.318 4.387 12.962.088.34-.448.835-.332 1.167 2.06 5.898 3.44 13.313 4.365 20.27.053.4-.91 1.02-.765 1.396 1.68 4.425 2.36 12.82 2.845 18.864.053.66-1.196.235-1 1.84.136 1.113 1.626 4.46 2 6 .334 5.807.618 9.943 1.5 14.5.784 1.77 2.99 3.367 4 5 3.583 5.785 5.324 16.66 2.396 24.584-3.793 10.267-11.162 18.998-17 27.278-11.494 16.3-22.7 32.044-34.073 48.184-9.62 13.652-19.816 26.978-29.323 40.454-7.06 10.01-12.68 18.63-25.8 22.6-8.723 2.64-19.604-2.37-23.2-1.6-3.064.655-6.61 1.626-10.112 2.522-.812.208-3.36-.12-4.062.313-1.855 1.145-3.257 1.596-5.326 2.165-3.76 1.035-9.313-.35-13 1-.265.097-1.526 1.36-2 1.5-7.716.782-12.32.855-17.366.74-1.247-.22-3.07-.11-3.634-.24l-10-.5c-5.745-1.44-11.703-3.404-16.5-5.5-20.4-8.913-39.985-18.242-60.29-27.13-3.93-1.72-7.874-3.105-11.85-5.335-.463-.26-.475-.897-.93-1.163-.41-.24-1.267-.108-1.67-.352A64.553 64.553 0 0 1 22.5 295l-5-5.5c-.266-.68.203-2.547.5-2.5l-3.5-.5c-2.378-4.764-6.33-7.468-6.5-14.5 1.003-.698 1.033-.673 1.5-2h-4zM184 70v2c-5.083 2.944-9.402 6.39-14.18 9.54-1.334.5-2.987 1.46-4.32 1.96-.765.648.232 1.67-.5 2.5-1.767 2.004-6.246 5.493-8.36 8.348-3.167 3.167-6.474 6.986-9.64 10.152-6.665 8.885-15.354 18.695-20.5 26-5.333 7.57-10.444 15.31-15.5 23-1.776 2.7-3.028 6.192-6.5 9-.962-1.01-1.91-1.572-3.5-2v.5h1c1.366 1.33 2.495 1.132 3 3.5-12.137 15.43-23.288 45.53-24 47-.43.324-1.572.67-2 1 .013 2.694-2.2 13.766-3 16.5l-.5 4.5c-.555.954-1.83.742-2.5 2 .327.49.402 16.833.5 20l-1.5.5c-.31.887 1.676 9.6 2 11l1 8.5c-.154.703-1.316 1.007-1 2.5.473 2.233 4.438 14.166 6 15l.5.5c-.377-3.958 7.697-6.367 11.814-8 .5.5 1.686 1 2.186 1.5.312-4.972 3.24-7.273 4-11.5.358-1.99-1.112-5.305-1.5-7-.523-5.51 1.012-11.494 2.5-15 2.634-6.208 10.952-13.792 11.5-20.5-3.175-4.304 4-18 4-18l.5.5c.388.962.5-1 .5-1-.723-.5 1.75-2.292 2.5-3 2.872-2.717 6.384-5.05 12-5 1.29-4.212 4.65-7.66 7-11 5.347-7.6 10.447-15.435 15.5-23 5.37-8.038 10.458-16.094 16-24 2.76-3.94 6.406-7.948 9-12 4.16-6.498 9.94-16.026 15.5-21 3.085-2.303 6.875-4.998 10.5-6.5 3.106-1.287 6.905-.785 9.5-2.5 4.603-3.04 6.668-8.317 12-11V95c-1.36.003-2.3-.02-3-.5-.402-.51-.177-.137-.5-1 1.345-4.304 1.367-9.354 2.13-13.186.258-1.29 2.14-2.51 3.37-3.314-.51-.402-.137-.177-1-.5-.775-.525-2.043-.515-3.5-.5-.08-7.235 0-10.334 0-15.5.318-1.057 1.714-1.598 1-2.5v-.5c-4.35.516-10.75 1.69-15.5 3l-5 .5c-.656.386-.337.927-.833 1.42-.746.74-16.65 7.396-18.667 7.58zM40 124.5c.627.812 1.05 1.004 2 1.5-.627-.812-1.05-1.004-2-1.5z"/></svg>