<svg xmlns="http://www.w3.org/2000/svg" width="203" height="175"><path fill-rule="evenodd" d="M120.117.965c8.597-.347 11.47.494 15.795 4.692 1.07 1.038 2.825 3.325 3.588 4.843l3 .5c1.995.88 3.09 1.77 5.023 3.193.407.3 1.167.267 1.727.432 2.796.823 2.87 3.36 4.75 4.375 3.455 1.868 9.802 4.028 14 6.82 13.803 9.188 19.306 25.962 24.625 43.68 1.886 6.283 3.002 12.813 4.5 19 .333 3.833.917 7.667 1.25 11.5.566 2.516 1.555 6.93.627 10.663-2.546 10.25-12.71 20.068-24.502 29.837.733 1.9.977 2.515.625 4.5-6.182 1.64-10.6 7.112-16.625 9-.89-1.202-1.646-1.69-3.5-2-5.16 3.21-19.97 9.78-26.693 12.02-4.1 1.315-8.485 1.947-12.485 2.78-3.132 1.808-5.187 7.463-16.492 7.25-6.978-.133-8.637-6.397-9.33-8.05h-3.5c-4.017.964-9.516 1.078-14.5 1.5-8.01.68-19.1-.887-26-3-14.425-4.42-26.82-9.674-33.772-21.293-5.343-11.473-6.638-23.338-9.116-36.164C.564 93.51-.148 78.85 4 68.817c2.798-6.77 6.625-13.45 11.5-17.817.175-1.968.56-3.83 1-5 .99-1.585 2.51-2.654 3.5-3 .05-1.444.098-2.072 1-3 1.047-1.487 2.418-2.775 4-3.5l.5-4.5c1.69-5.945 5.973-9.856 11-12 4.776-2.036 9.637-2.27 15-3.786 14.764-4.17 31.274-6.29 46.05-10.52 5.293-1.515 14.705-3.387 22.567-4.73zM163 69c-1.275 1.167-3.236 2.983-5 3.5-1.895.556-4.175-.327-5.5.5-3.637 3.69-5.98 7.39-11.37 9.425-2.724 1.028-9.607 2.46-11.63 3.075-.396.618-1.18 2.286-1.63 2.873-1.615 2.1-6.227 3.46-9.076 4.026-4.45.886-6.704-3.294-11.794-1.9-9.99 2.736-20.502 4.078-31 7-6.89 1.918-15.724 3.594-23.4 4.625-5.502.738-9.066-1.832-12.652-3.784-4.425 2.28-5.435 2.564-9.948 1.16-2.093.055-5.484 3.663-7.304 5.63-.86.928-4.46 4.487-3.57 5.37 5.59 5.632 18.46 10.014 31.898 12.176 10.666 1.716 22.77.254 32.976-1.176.34-.048.793-.09.97-.403 1.683-2.983 6.075-6.92 12.03-8.597 7.993-1.27 10.94 2.94 11.5 2.5 1.23-.963 6.142-2.743 7.575-3.278 4.97-1.345 21.276-3.164 23.58-6.28-.168-.846-.79-2.485-.155-3.942.15-.53 14.643-9.783 16-9 1.125.893 1.546 1.17 2.52 1.96 4.122-1.908 18.96-19.488 18.98-20.96-7.852-3.886-8.584-3.38-14-4.5zm-63 51.5c-1.333.145-2.844.523-4 1.5v.5c2.765.312 4.785.934 8 1v-.5l-1.5-1.5c-.692-.553-1.437-.747-2.5-1zm-17 22l.5 3H85l-.5-3H83zM53 144l.5 2h.5c-.293-1.122-.374-1.328-1-2zm14.5.5l.5 2.5 2 .5v-2l-1-1h-1.5z"/></svg>