<svg xmlns="http://www.w3.org/2000/svg" width="466" height="344"><path fill-rule="evenodd" d="M103 2c20.44-2.868 31.985 4.324 45.5 12.5 1.29.78 13.445.7 42.5 8 72.88 16.723 137.82 40.418 201 68 25.395 11.213 54.633 25.84 69 48.5 9.62 17.813-1.627 42.33-7 57-10.442 26.562-24.907 69.894-34.5 84-6.022 9.628-11.725 13.964-18.5 19-1.167 3.333-2.462 6.395-4 10-3.2 7.206-10.245 20.395-17.5 25-14.232 11.025-35.384 9.328-57 5-41.83-6.833-83.138-14.1-125-20.5-19.01-2.52-35.024-9.264-43-22-3.72-5.278-4.607-10.908-7-17-3.93-10.006-10.857-17.705-19-23.5-29.636-21.09-64.23-36.23-93.5-57-10.483-7.44-22.307-16.445-28.5-26.5-13.486-18.675-.7-46.47 5.5-64 8.152-23.043 21.264-66.244 35-78C58.657 20.523 74.573 12.303 89.5 6c4.12-1.345 6.785-3.24 13.5-4z"/></svg>