<svg xmlns="http://www.w3.org/2000/svg" width="168" height="202"><path fill-rule="evenodd" d="M161.204 68.353c-.156 2.527.847 5.733 1.55 8.23.413 1.778.825 3.557 1.236 5.335 1 3.56 1.745 7.203 2.526 10.912.688 3.267 1.638 7.5.31 11.613-1.563 4.836-4.394 7.974-8.36 9.86-1.84.874-4.14 1.13-5.823 2.18-2.678 1.672-4.616 4.744-6.237 7.677-4.135 7.488-7.265 15.91-11.343 23.422-1.844 3.398-3.853 6.74-5.708 10.036l-2.644 4.282c-1.77 2.52-3.54 5.044-5.31 7.566-2.106 2.802-4.357 5.497-6.56 8.162-2.67 3.226-5.61 6.03-8.473 8.972-1.225 1.26-2.617 2.58-4.085 3.545-1.447.95-2.726 2.198-4.204 3.135-5.504 3.49-11.13 6.148-18.834 7.053-1.343.158-2.847.044-4.313.14l-1.777-.132-3.707-.358-4.923-.954c-3.36-.972-6.612-1.76-9.66-3.006-8.674-3.54-16.99-7.096-24.613-11.378-7.588-4.263-14.524-10.43-18.25-17.89-1.29-2.58-2.097-5.473-2.925-8.442-1.332-4.778-1.493-10.12-2.04-15.522-.05-1.796-.103-3.593-.155-5.39l.152-6.91.14-1.858.208-2.965c.13-1.5.263-3 .395-4.5l.852-6.326c-.585-4.248-2.23-8.618-3.93-12.042-1.043-2.104-2.872-6.06-1.752-9.445 1.378-4.163 4.775-7.345 7.182-10.45 2.72-3.51 5.14-7.314 7.79-10.988 3.38-4.68 6.51-9.785 9.407-14.932 1.625-2.886 3.33-5.736 5.23-8.37 2.157-2.992 4.246-6 6.472-8.887C43.35 34.116 48.27 29 53.34 24.274c3.425-3.193 7.047-6.217 11.07-8.68 1.347-.825 3.483-2.39 5.045-2.776.31-2.146 1.384-3.992 2.392-5.38 2.866-3.952 6.28-6.322 12.007-6.84 1.28-.115 3.052-.03 4.385.345 4.37 1.233 7.626 3.028 11.144 4.94l35.21 19.093c4.795 2.614 9.84 5.016 13.718 8.374.98.848 2.044 1.78 2.75 2.853 1.347 2.05 2.594 4.157 3.414 6.66.658 2.006 1.04 4.11 1.63 6.208.41 1.633.824 3.265 1.236 4.897 3.59.178 6.362 2.375 6.77 5.313.205 1.473-.267 5.532-1.207 5.894.04.448.053.532-.096.986-.277-.012-.27.036-.414.16.005.496.025.458-.13.94-.574-.024-.413.7-.707 1.127-.12-.01-.238-.023-.356-.034zm-82.306 8.51c-.435.66-.87 1.323-1.307 1.984-.995 1.655-1.99 3.31-2.987 4.965-2.687 4.804-5.018 9.772-7.57 14.87-1.11 2.216-2.332 4.725-3.12 7.142-.4 1.227-.25 4.234-.156 5.32.396 4.524.888 8.56 2.494 12.062.622 1.355 2.277 4.997 1.746 7.056-1.014 3.93-3.932 6.02-5.632 9.247-1.287 2.442-1.848 5.24-2.678 8.337-.347 1.293-.81 3.118-.73 4.666.096 1.906-.012 3.765.064 5.5.028-.01.055-.02.083-.032l3.28-3.86c2.015-2.497 3.93-5.108 5.84-7.715 7.764-10.586 13.547-23.066 18.516-37.057 1.898-5.345 4.206-13.48 2.725-19.52l-.955-2.88c-.885-.588-1.77-1.178-2.655-1.768a24.673 24.673 0 0 1-4.366-4.244l-1.81-2.683c-.23-.4-.397-1.13-.782-1.39zm-45.304 29.25c-1.063.523-1.793 2.423-1.34 3.97.252.862.875 1.642 1.497 2.215.406.373 1.248 1.2 2.145.884.35-.61.684-1.126.908-1.982.61-2.327-1.144-4.913-3.21-5.087z"/></svg>