<svg xmlns="http://www.w3.org/2000/svg" width="223" height="205"><path fill-rule="evenodd" d="M129.866 1.643c1.113-.083 2.216-.097 3.307-.126 3.33-.09 6.552.028 9.657.423 13.463 1.713 24.704 7.88 32.827 17.165l.118-.005c-.086-1.256-.343-2.61-.31-3.103.713-.526 1.524-1.16 2.26-1.503.017-.008 2.27.92 3.455 1.632 1.82 1.094 6.886 8.732 9.015 11.613 7.687 10.4 15.48 20.673 22.722 31.534 2.767 3.714 5.662 7.982 8.43 11.696 1 1.437 1.645 13.413 1.37 14.754-.475 2.318-2.22 4.387-3.727 4.924.22 4.018-.504 7.91-1.083 11.216-.258 1.473-.432 3.02-.716 4.486-1.96 10.157-5 20.046-9.218 27.892-.97 1.802-2.803 4.842-3.6 5.726-.908.976-1.657 2.03-2.566 2.683.163 1.382-.1 2.506-.248 3.887-.612 2.87-1.58 5.942-2.878 8.237-1.315 2.328-3.623 5.126-6.465 6.63-3.52 1.863-9.96 1.932-13.155-2.263l-.118.005c-.844.782-1.645 1.76-2.51 2.523-17.738 15.655-39.682 30.64-65.35 37.937-6.76 1.922-14.51 3.39-22.11 3.608-9.706.28-19.164-1.392-26.523-4.605-16.246-7.094-20.572-17.797-28.764-31.482-5.977-9.928-11.868-19.273-17.525-29.37-1.118-2.875-2.226-5.636-2.713-8.256-.098-.53-.366-1.023-.585-1.533l-3-4.728c-3.544-5.973-7.5-11.69-9.47-18.65-.203-.715-.31-1.6-.36-2.323-.228-3.313.348-6.382 1.446-9.26 1.033-2.706 2.533-5.242 4.104-7.652 2.784-4.272 5.91-8.195 7.866-11.38C22.68 60.67 31.918 47.32 41.15 34.018c5.427-7.405 9.882-15.47 16.288-19.623 2.635-1.71 5.894-2.585 9.16-2.654 3.712-.08 7.25.87 10.067 2.598 1.787 1.096 3.688 2.793 5.04 4.077 1.012-.527 2.604-1.6 4.418-2.722 2.18-1.35 4.644-2.79 6.302-3.696.672-.368 1.322-.575 1.962-.887.556-.272 1.104-.655 1.652-.897 2.406-1.063 4.802-1.886 7.81-2.912.614-.376 2.105-.644 2.72-1.02 2.947-1.064 6.17-1.82 9.496-2.477 2.452-.484 5.027-.91 7.235-1.39 2.536-.55 4.65-.15 6.566-.774zm31.223 44.944c-.73.08-2.697.213-4.045.2-.846-.01-1.015-.21-1.737-.16-.482.032-.604.42-.98.492-.667.127-1.263.2-1.882.3-.488.078-.99.208-1.552.175-1.664-.097-2.63.46-4.07.698-.94.155-1.81.448-2.625.648-.708.027-1.062.146-1.768.172-.802.243-1.808.548-2.66.838-.516.176-.91.358-1.436.544-.572.202-1.413.068-1.984.275-.5.18-.836.426-1.326.605-.57.21-1.294.352-1.84.552-.658.24-.79.608-1.394.822-.578.203-1.822.282-2.368.4-.506.107-.945.735-1.426.86-.595.156-.94-.003-1.333.157-.428.702-.846.986-1.318 1.205-.502.227-1.55.346-2.023.5-.48.154-.914.687-1.374.844-.604.206-.853.428-1.445.624-.456.707-1.2.888-1.657 1.337-.532.342-1.18.395-1.736.625-.43.178-.917.848-1.318 1.044-.642.315-1.234.413-1.61.81-.675.71-1.128 1.177-1.998 1.666 1.284 2.07 2.386 4.563 3.173 7.25 3.01 10.275-2.744 17.665-6.836 23.376-1.496 2.137-3.056 4.32-4.552 6.456.967 3.803.697 5.645-.34 7.71-.76 1.513-1.856 2.926-2.957 4.04-1.426 1.44-3.34 2.523-4.204 3.006-1.255.7-3.77 1.365-4.308 1.662-3.63 5.122-7.086 10.032-10.79 15.048-6.336 8.847-13.18 18.82-19.056 26l.004.117.594.097c2.817-.082 7.69-.288 11.36-.915 6.503-1.11 14.96-3.216 20.908-5.703 6.323-2.644 12.256-5.24 17.894-8.348 5.8-3.198 11.237-7.04 16.69-10.7 2.237-1.502 4.5-3.33 6.602-5.006a376.33 376.33 0 0 0 9.222-7.59c2.317-1.973 4.68-3.996 7.206-6.264-.474-10.052 5.78-22.52 16.105-21.043.973-2.646 3.95-8.156 4.813-10.733 1.466-4.373 3.303-9.49 4.537-14.437.56-2.245.88-4.526 1.195-6.644.292-1.947.498-3.472.464-3.533-.69-1.22-2.627-3.288-3.34-4.91-.353-.806-.36-2.45-.516-3.803-1.2-.377-3.004-.527-4.312-.72-.778-.114-1.253-.398-2.046-.472a53.34 53.34 0 0 0-2.035-.147c-.426-.022-.887.044-1.32.025-.83-.035-1.67-.065-2.52-.095-.88-.032-1.833.1-2.73.04zm6.086 55.48c-1.114 1.047-2.08 1.718-2.55 3.366 1.207-.55 2.885-1.653 3.495-2.505-.364-.302-.58-.56-.944-.86zm-6.89 35.72c-1.015.726-1.823 1.16-1.784 2.894.364.77.843 2.078 1.733 2.298 2.542-1.087 1.647-3.442.404-5.204l-.355.013zm-15.437 12.563c-1.752 1.352-2.246 2.88-.347 4.513 1.67.473 2.39-.655 2.654-1.628-.037-1.553-.62-2.02-1.248-2.923l-1.06.038zm-16.463 10.93c-.812.605-1.375.753-1.826 1.716.426.733.93 1.665 1.915 2.12 1.223.567 2.752.224 2.878-1.998-.87-1.068-.967-1.924-2.966-1.838zm-17.844 8.98l-1.044.51c1.016 1.653 2.46 3.858 4.627 2.046 0-.04-.003-.08-.004-.118-1.118-1.265-1.184-2.482-3.58-2.438zm-18.19 6.018c.51 1.412 1.756 2.896 3.5 3.007-.376-1.366-1.728-3.075-3.5-3.007z"/></svg>