<svg xmlns="http://www.w3.org/2000/svg" width="250" height="268"><path fill-rule="evenodd" d="M64.94 255.39c-14.22-4.807-29.5-7.434-39.195-16.844-3.177-3.084-6.717-8.44-8.44-12.453l-2.81-6.414c-1.686-.197-2.854-.623-3.69-1.443-4.095-4.014-5.282-12.437-6.49-18.044-.446-2.076-.905-4.544-.326-6.412.43-1.393 1.157-2.378 2.72-3.363-.196-2.09-.39-4.18-.585-6.272-1.26-8.053-1.754-17.002-2.703-25.41.092-2.314-.016-4.63.076-6.945-.316-3.353-.647-8.54.185-11.78l.78-14.74 1.856-9.465C2.42 107.72.78 79.235 26.59 79.177c15.93-35.02 45.042-74.36 78.29-78.504 14.058-1.753 31.23 4.922 45.995 10.06 4.67 1.625 25.266 6.706 36.46 12.3 17.807 8.9 27.627 26.166 33.084 42.568 1.193 3.586 2.456 7.555 2.664 12.395 12.878 3.92 21.083 10.497 22.69 21.526 1.185 8.14-2.772 19.277-5.546 29.628-5.237 19.545-21.697 85.835-26.31 94.79-1.702 3.306-3.662 5.985-6.012 7.744-7.44 5.57-15.396 6.15-26.96 3.777-14.98 20.525-35.702 32.933-61.812 31.506-3.048-.74-6.096-1.482-9.143-2.223l-33.26-6.874-11.79-2.48zm27.327-15.778c3.644-2.53 9.034-5.096 12.51-8.65 3.675-3.763 6.915-7.906 10.44-11.924l-.098-.48c-8.412-6.11-12.877-12.657-12.216-25.117.138-2.605 2.504-12.174 3.222-14.85-7.638-9.675-.422-26.41 7.554-27.584 13.318-48.443 18.9-77.336 25.683-83.465 5.46-4.93 11.037-7.86 18.332-7.876.012-5.83-7.81-25.72-11.14-28.575l-10.83 6.608c-6.257 4.88-13.068 10.56-18.324 16.83-7.975 9.518-14.56 20.597-21.653 31.793-2.998 5.84-6.123 11.805-9.12 17.644 3.07 7.49 2.944 13.918 2.06 18.75-2.325 12.693-13.062 16.343-13.013 16.827-1.37 6.36-1.725 13.536-1.528 19.168-.292 4.753-.417 9.507-.71 14.26.262 8.205.96 17.138 2.662 24.718 5.736 1.82 8.78 17.258 9.56 22.557-.492 1.83-.983 3.663-1.473 5.494.342 3.33 5.875 11.285 8.082 13.875zm-20.85-111.73c2.524-.83 6.638-5.132 6.655-10.612-2.86 3.772-6.793 7.9-6.654 10.61zM61.434 88.45l1.144-1.732-.366-.325c-2.03-.572-3.947-1.56-5.776.51 1.28.895 3.346 1.434 5 1.547zm8.352-20.183c1.56.196 2.13.038 3.087-.53l.494-1c-2.103-1.204-5.65-1.766-6.327.794.914.247 1.83.85 2.745.737zm13.042-19.03c.76-.022 1.326-.29 2.087-.314l-.31-.535c-.77-.32-2.308-.92-3.395-.004-.02.07-.04.14-.058.21.493.133 1.182.51 1.675.644z"/></svg>