<svg xmlns="http://www.w3.org/2000/svg" width="322" height="323"><path fill-rule="evenodd" d="M177.394.212c57.728-.957 112.738 55.188 125.723 97.22 4.242 13.953 2.143 31.37 4.986 47.72.95 4.392 1.128 8.844 2.85 13.177 2.773 3.662 7.927 6.588 7.835 24.215-.2 11.457-22.803 35.737-38.465 57.69l-39.177 51.995c-7.077 9.583-13.647 20.702-26 24.928-9.18 3.14-17.562-1.24-24.22-2.85l-13.532 1.426c-14.948 3.27-31.99 8.967-50.575 5.342C106.435 317.1 90.43 309.42 74.107 302.2c-27.675-12.237-49.792-29.148-59.122-59.827-2.626-8.635-2.978-17.128-4.274-27.42-.947-10.472-.452-27.668.356-32.408 2.662-16.628-.7-32.845 5.343-45.94 3.71-8.037 11.95-15.714 19.233-20.298 3.726-2.345 8.274-4.225 10.685-7.835 25.39-38.018 50.12-73.866 91.176-96.152 7.99-4.337 17.146-7.767 26.712-10.327 4.55-1.085 8.51-1.723 13.178-1.78zm-23.507 39.886c.47.838 3.17 1.913 4.986 1.068v-.356c-.883-1.07-3.324-.475-4.986-.712zm73.725 11.395c-5.824.823-11.404 1.852-16.74 3.562-12.098 4.14-23.51 11.14-33.478 17.45-.644.62-1.622.91-2.137 1.78-.968 4.574-4.76 12.81-9.617 18.162-12.32 12.67-25.692 24.708-35.615 44.16-3.19 6.25-5.988 12.974-7.836 20.298-1.188 5.697-2.354 11.21-3.918 17.093-2.173 5.444-6.215 9.71-9.973 13.89-5.798 6.127-13.008 11.483-17.096 19.23l-3.562 22.435c-1.183 4.817-2.645 10.025-4.986 13.89l-3.205 3.916c-2.372 6.376 4.87 27.402 7.124 29.913 7.698-2.07 19.15-7.906 21.013-15.67 1.588-6.618-1.512-13.496.356-19.586 2.395-7.805 7.607-13.756 11.753-19.943-3.866-10.07 5.263-22.92 11.04-26.352l9.617-2.85 56.985-78.346c11.314-15.43 27.445-8.42 33.835-23.86 5.282-14.963 4.784-25.882 2.137-39.173h-5.698zm-193.75 83.332c-3.087 4.337-5.976 7.234-3.917 13.533h.356c.38-3.277 4.934-11.973 3.562-13.533zm68.026 29.914c-1.14 2.307-2.456 5.082-2.85 7.834l.713-.356c.904-2.23 2.454-3.837 2.85-6.767l-.712-.71z"/></svg>