<svg xmlns="http://www.w3.org/2000/svg" width="317" height="341"><path fill-rule="evenodd" d="M69.442 317.366c-11.368-5.11-22.422-10.54-30.863-16.623l-6.588-3.02c-4.222-2.802-8.254-5.695-11.14-9.014-7.402-8.517-9.875-21.624-11.886-32.466-.82-6.606-1.743-13.15-2.563-19.757-.056-3.874-.052-7.377-.11-11.25-1.973-1.09-5.054-2.722-6.004-3.702-.39-2.79 2.622-29.146 3.697-31.214 1.708-2.13 4.45-1.842 6.596-2.816 4.116-19.628 10.88-52.73 21.438-70.286.356-3.84-1.683-9.755-.633-15.032 3.536-17.77 16.568-23.916 29.64-19.902C82.014 38.646 126.596-.046 165.272.234c9.326.07 30.347 7.058 41.956 13.597 7.5 3.624 15.004 7.247 22.506 10.87l14.12 7.573c8.41 5.76 17.225 10.825 24.286 17.182 15.546 13.997 22.418 31.696 26.435 49.43.93 4.105 5.5 6.88 6.354 10.96.575 1.73.544 3.348.422 5.045 1.335 1.015 2.36 4.616 2.91 7.478.4 1.6.985 4.11.33 6.474l4.04 3.777c4.03 4.453 6.646 10.59 7.372 16.298 1.187 9.323-4.498 23.904-11.267 38.635-5.916 12.875-12.62 25.864-16.808 35.558-7.81 17.035-15.707 34.553-23.516 51.11-4.376 9.545-8.51 20.637-14.276 27.54-5.682 6.8-13.168 10.65-21.05 11.554-2.517.398-7.034-.263-8.85-.483-.477 1.7-8.127 7.6-13.422 6.492-.81 1.643-2.24 2.564-3.36 3.133-3.548 1.956-8.453.65-10.49 1.91-17.086 10.557-35.986 17.363-59.07 14.305-14.597-1.934-32.156-8.287-43.47-12.508l-20.984-8.796zm26.287-19.56c3.084-1.677 14.567-6.98 20.568-16.186-3.065-8.15 3.22-12.654 5.64-15.944-6.91-13.64-1.004-29.185 6.698-45.088-2.79-3.14-3.378-11.907-.47-15.12l-.7-.87c.705-.765.78-.575 1.533-.946-.296-.97-.527-.658-.18-2.007 1.117-.004.59.32.87-.7-.264-.66-.196-.193-.037-1.117 2.23-.65 5.226-8.096 12.438-9.142 10.288-22.008 20.496-44.523 30.7-66.78 9.22-20.052 15.946-34.775 31.932-38.652-.065-6.47 2.604-12.25 8.28-14.76 3.51-8.87-1.1-20.47-2.85-26.46-9.818 2.36-19.123 7.106-27.092 12.32-14.375 9.408-27.684 22.01-39.396 37.91-6.413 8.705-12.803 21.39-17.713 29.096 3.833 7.493 3.444 23.93-5.947 32.57-3.06 2.815-5.695 4.047-8.773 4.832-1.158 4.325-2.195 8.01-3.77 12.647-1.33 4.283-13.89 25.2-17.25 40.497 2.17.87 4.073 1.84 5.78 3.102 1.793 3.44-1.48 18.817-1.96 23.94-.192 2.07.22 5.73-1.036 7.107-.875 1.34-4.596 1.89-6.583 2.318-.582 8.618 5.267 41.307 9.32 47.43zm8.865-151.25c5.143 1.677 8.392-2.835 9.173-9.646-.076-.034-.274-.568-.35-.603l-.227-.104c-2.904 3.245-6.155 6.225-9.503 9.937.303.14.605.278.908.416zm-5.463-49.318c-1.432-.474-2.99-1.197-4.422-1.67l-1.95 1.855c1.452.765 4.01 2.362 5.103 1.982l1.27-2.167zm10.365-20.73c1.475-.477 2.416-.55 3.502-2.244l-2.273-1.04-1.798-.276c-.947.666-1.894 1.33-2.84 1.997l3.407 1.562zm17.626-21.06c.517-.128 1.035-.257 1.552-.387-1.63-.826-2.487-1.027-3.597-.548l2.045.937z"/></svg>