<svg xmlns="http://www.w3.org/2000/svg" width="401" height="336"><path fill-rule="evenodd" d="M30.718 66.376C63.178 8.05 115.63 4.47 160.726 3.723c3.23-.07 36.617 3.892 55.558 6.11 4.284.03 9.612.097 13.586-1.24 9.075-3.05 17.516-8.247 27.606-7.26 4.03.395 8.15 1.64 12.5 3.303 5.5 2.102 11.736 8.144 13.795 9.378 5.775-2.612 14.864-.887 22.1 3.277 4.995 2.875 8.945 6.957 10.207 11.2 1.315 4.42.906 6.71-2.187 12.713-3.33-3.03 37.466 34.167 60.57 55.433 12.002 10.906 16.69 14.867 21.306 22.968 2.362 4.146 3.712 9.155 4.195 14.086 1.323 13.49-8.443 33.757-13.914 51.215-.06.193-.365 1.228-.395 1.428-1.183 7.794-2.53 17.518-5.038 26.404-4.697 16.635-10.344 32.258-16.207 49.3-4.346 12.63-12.248 31.153-22.864 42.41-10.935 11.596-21.344 17.94-33.614 22.54-29.55 11.076-67.66 10.202-105.114-.96-44.177-13.168-100.464-46.47-145.3-81.957-6.737-2.033-13.324-2.88-19.95-5.763-12.025-4.655-26.02-19.87-30.173-31.194-2.73-7.445-4.17-15.82-5.026-23.69C-4.656 118.817 27.74 74.05 30.718 66.375zm-7.52 128.745c.418 6.196 1.165 10.92 5.5 15.77l.037-.515c-1.907-5.058-4.48-13.89-5.538-15.254zm62.522-90.925c12.166 10.436 14.11 20.58 20.007 31.72 4.664 8.81 11.56 17.136 19.06 25.198 6.58 7.07 14.155 12.576 23.597 19.355l12.522 8.232 14.54 8.894 12.806 10.008 8.698 9.713c18.863 10.326 54.077 22.982 83.102 23.87.08-.133.157-.265.235-.397-16.88-14.6-33.417-28.425-50.048-42.665-13.774-12.72-30.68-24.827-42.197-38.57-3.173-3.787-5.306-8.376-6.935-12.685-1.562-4.128-.69-7.483-1.79-10.565-1.234-3.462-3.052-6.957-7.696-11.524-5.67-5.576-15.642-10.024-22.867-12.346-16.953-5.447-33.44-8.418-49.146-8.517-4.7-.03-9.69.09-13.89.278zm-11.354 20.04c1.515 2.863 2.9 6.653 5.055 9.036.304-.413-.77-7.018-5.054-9.034zm150.792 161.687c3.22 7.215 14.995 4.377 15.675-1.144-5.317-3.88-11.61-4.27-15.675 1.144zm44.713 8.786c3.42.996 10.187-2.744 11.54-6.81-4.375-.312-9.29 1.755-11.54 6.81z"/></svg>