<svg xmlns="http://www.w3.org/2000/svg" width="431" height="357"><path fill-rule="evenodd" d="M184 1.5c14.606-2.69 24.187 4.82 36 8.5 1.9-6.117 12.138-9.975 21-7 10.08 3.384 24.605 8.67 22.5 25.5l77 33.5c14.416 6.206 30.307 11.128 39 23 5.018 6.853 7.702 12.29 7.5 28.5 1.548 5.598 3.303 11.238 5.5 15.5 12.53 24.31 31.99 41.205 37.5 73.5 2.28 21.954-3.827 43.737-9.5 62-14.638 40.243-29.695 78.338-73.5 89.5-34.416 9.16-101.596-6.998-129.5-16.5-16.832-5.833-34.133-11.417-50.5-18-7.845-3.21-16-6.5-24-10-7.78-.887-15.316-1.157-22.5 0-13.138.915-25.61-2.78-34-6.5-17.415-7.724-26.146-25.54-37-40C23.958 228.973-11.632 199.424 7 140c12.532-36.24 34.966-81.88 66-101.5 17.742-10.143 35.902-10.56 68-16 21.374-5.685 18.957-9.724 28.5-16 3.76-2.422 8.47-4.1 14.5-5zM88 275c1.287 7.668 7.276 11.76 14.5 13.5L88 275zm247.5 26.5c-5.155 1.498-10.134 3.196-11 9.5h3c5.873-1.7 8.875-4.066 10-9.5h-2z"/></svg>