<svg xmlns="http://www.w3.org/2000/svg" width="519" height="476"><path fill-rule="evenodd" d="M302.537 3.058c2.585-.195 5.144-.226 7.677-.294 7.73-.207 15.21.065 22.418.982 31.25 3.976 57.345 18.29 76.2 39.844l.274-.01c-.2-2.917-.795-6.06-.717-7.203 1.653-1.222 3.534-2.692 5.24-3.49.043-.02 5.273 2.137 8.022 3.788 4.225 2.54 15.986 20.27 20.928 26.958 17.842 24.14 35.933 47.99 52.744 73.202 6.422 8.62 13.143 18.528 19.566 27.15 2.326 3.335 3.82 31.136 3.183 34.248-1.103 5.38-5.153 10.183-8.65 11.43.507 9.327-1.173 18.363-2.516 26.036-.6 3.42-1.004 7.01-1.66 10.413-4.557 23.576-11.61 46.532-21.403 64.745-2.25 4.183-6.507 11.24-8.355 13.29-2.11 2.266-3.85 4.714-5.958 6.23.378 3.207-.234 5.814-.576 9.02-1.42 6.66-3.667 13.793-6.68 19.122-3.053 5.402-8.41 11.898-15.007 15.39-8.17 4.323-23.12 4.485-30.54-5.254l-.272.01c-1.96 1.814-3.818 4.084-5.825 5.855-41.177 36.343-92.116 71.123-151.7 88.065-15.692 4.462-33.68 7.868-51.32 8.376-22.532.65-44.488-3.23-61.57-10.69-37.71-16.467-47.752-41.312-66.77-73.078-13.872-23.046-27.546-44.738-40.68-68.177-2.596-6.673-5.168-13.083-6.297-19.163-.23-1.234-.85-2.376-1.36-3.56l-6.963-10.975c-8.227-13.862-17.41-27.134-21.982-43.288-.47-1.663-.717-3.718-.833-5.395-.533-7.69.806-14.815 3.355-21.493 2.398-6.283 5.88-12.17 9.525-17.765 6.463-9.916 13.72-19.024 18.26-26.42C53.728 140.08 75.168 109.09 96.6 78.212c12.598-17.185 22.94-35.906 37.81-45.55 6.115-3.964 13.682-5.997 21.262-6.16 8.616-.182 16.827 2.023 23.368 6.032 4.148 2.543 8.562 6.482 11.7 9.462 2.35-1.222 6.044-3.713 10.255-6.32 5.06-3.132 10.78-6.476 14.63-8.58 1.56-.85 3.068-1.33 4.552-2.056 1.29-.63 2.563-1.52 3.835-2.082 5.588-2.466 11.15-4.378 18.128-6.758 1.43-.872 4.89-1.497 6.318-2.37 6.84-2.468 14.325-4.224 22.043-5.748 5.692-1.125 11.67-2.112 16.796-3.226 5.883-1.28 10.79-.352 15.237-1.796zm72.48 104.327c-1.695.185-6.26.495-9.39.463-1.962-.02-2.355-.484-4.032-.37-1.118.074-1.4.973-2.273 1.14-1.55.3-2.933.465-4.37.7-1.13.182-2.296.484-3.602.408-3.863-.227-6.104 1.066-9.447 1.618-2.184.36-4.202 1.042-6.094 1.506-1.642.06-2.463.336-4.104.395-1.86.566-4.196 1.274-6.17 1.946-1.2.41-2.12.833-3.336 1.263-1.33.47-3.28.158-4.606.64-1.16.42-1.94.99-3.078 1.407-1.327.486-3.003.817-4.275 1.28-1.523.557-1.83 1.413-3.23 1.908-1.343.475-4.232.657-5.5.93-1.172.25-2.192 1.708-3.31 2-1.38.36-2.184-.01-3.092.363-.995 1.63-1.965 2.29-3.06 2.798-1.166.527-3.6.802-4.696 1.157-1.113.36-2.123 1.597-3.19 1.962-1.403.48-1.98.994-3.355 1.45-1.058 1.64-2.786 2.06-3.844 3.102-1.236.793-2.743.916-4.03 1.45-.996.413-2.13 1.968-3.06 2.424-1.49.73-2.865.96-3.737 1.88-1.567 1.65-2.618 2.733-4.638 3.867 2.98 4.805 5.54 10.592 7.365 16.827 6.987 23.854-6.37 41.01-15.866 54.267-3.472 4.96-7.094 10.026-10.566 14.986 2.245 8.828 1.618 13.102-.79 17.896-1.763 3.514-4.308 6.792-6.863 9.376-3.31 3.348-7.75 5.86-9.76 6.98-2.914 1.63-8.755 3.168-10 3.86-8.426 11.89-16.45 23.287-25.05 34.93-14.707 20.535-30.59 43.684-44.232 60.35l.01.275 1.377.224c6.538-.19 17.85-.667 26.373-2.12 15.092-2.577 34.725-7.464 48.532-13.237 14.677-6.138 28.45-12.163 41.535-19.378 13.463-7.423 26.087-16.343 38.74-24.836 5.197-3.488 10.453-7.73 15.33-11.622a875.535 875.535 0 0 0 21.405-17.62c5.38-4.578 10.864-9.274 16.728-14.54-1.1-23.333 13.42-52.276 37.386-48.847 2.256-6.14 9.164-18.93 11.17-24.913 3.404-10.15 7.667-22.032 10.532-33.513 1.3-5.212 2.04-10.506 2.774-15.42.676-4.523 1.156-8.063 1.077-8.203-1.597-2.833-6.097-7.633-7.75-11.4-.822-1.868-.834-5.683-1.2-8.826-2.784-.873-6.973-1.222-10.01-1.67-1.805-.266-2.906-.925-4.747-1.095-1.56-.145-3.132-.258-4.724-.343-.99-.052-2.062.1-3.064.058-1.93-.082-3.88-.15-5.854-.222-2.043-.073-4.254.233-6.338.092zm14.128 128.784c-2.585 2.43-4.825 3.99-5.917 7.814 2.8-1.274 6.695-3.838 8.11-5.815-.845-.7-1.347-1.3-2.193-2zm-15.995 82.916c-2.355 1.687-4.23 2.694-4.14 6.72.845 1.783 1.957 4.82 4.024 5.33 5.9-2.523 3.823-7.99.937-12.08l-.82.03zm-35.833 29.164c-4.064 3.137-5.21 6.68-.802 10.476 3.876 1.098 5.546-1.52 6.16-3.78-.086-3.605-1.438-4.687-2.897-6.784-.82.03-1.64.06-2.46.088zm-38.212 25.37c-1.885 1.405-3.193 1.75-4.238 3.985.985 1.7 2.156 3.864 4.44 4.922 2.84 1.315 6.39.52 6.683-4.64-2.022-2.477-2.245-4.465-6.885-4.266zm-41.423 20.848l-2.42 1.18c2.358 3.84 5.707 8.958 10.74 4.752l-.008-.274c-2.596-2.936-2.748-5.762-8.312-5.658zm-42.22 13.968c1.178 3.28 4.074 6.723 8.122 6.98-.873-3.172-4.01-7.137-8.122-6.98z"/></svg>